<svg width="1440" height="1708" viewBox="0 0 1440 1708" fill="none" xmlns="http://www.w3.org/2000/svg">
<g id="Looper BG">
<path id="Polygon 1_68" opacity="0.0144928" d="M1623.55 1404.32L1849.88 1170.24C1854.1 1165.88 1856.42 1160.04 1856.35 1153.97L1850.73 687.909C1850.67 683.142 1849.14 678.511 1846.33 674.656L1606.19 344.549C1601.1 337.559 1592.53 334.011 1583.99 335.363L1303.54 379.782C1295 381.134 1287.94 387.159 1285.27 395.378L1158.88 783.537C1157.41 788.07 1157.37 792.95 1158.79 797.501L1297.47 1242.49C1299.28 1248.28 1303.29 1253.12 1308.65 1255.96L1596.23 1408.65C1605.29 1413.45 1616.43 1411.69 1623.55 1404.32Z" stroke="url(#paint0_linear_531_134024)" stroke-width="4"/>
<path id="Polygon 1_67" opacity="0.0289855" d="M1572.53 1404.27L1809.45 1184.33C1813.9 1180.2 1816.53 1174.47 1816.78 1168.41L1835.61 706.976C1835.8 702.198 1834.5 697.478 1831.89 693.473L1610.81 354.496C1606.09 347.265 1597.73 343.284 1589.14 344.187L1308.43 373.691C1299.84 374.593 1292.49 380.227 1289.38 388.28L1143.6 765.815C1141.88 770.276 1141.59 775.163 1142.78 779.795L1257.13 1227.23C1258.63 1233.11 1262.4 1238.16 1267.61 1241.27L1545.08 1407.16C1553.85 1412.4 1565.04 1411.23 1572.53 1404.27Z" stroke="url(#paint1_linear_531_134024)" stroke-width="4"/>
<path id="Polygon 1_66" opacity="0.0434783" d="M1521.83 1402.68L1768.47 1197.33C1773.14 1193.43 1776.09 1187.85 1776.65 1181.8L1819.43 726.271C1819.88 721.496 1818.82 716.7 1816.41 712.554L1614.66 365.788C1610.32 358.336 1602.18 353.935 1593.58 354.386L1313.39 369.07C1304.78 369.521 1297.15 374.749 1293.61 382.613L1129.21 748.569C1127.25 752.944 1126.7 757.824 1127.65 762.526L1217.8 1211.09C1219 1217.05 1222.51 1222.29 1227.56 1225.67L1494.32 1404.12C1502.8 1409.79 1513.99 1409.2 1521.83 1402.68Z" stroke="url(#paint2_linear_531_134024)" stroke-width="4"/>
<path id="Polygon 1_65" opacity="0.057971" d="M1471.52 1399.56L1727.02 1209.22C1731.9 1205.58 1735.15 1200.15 1736.03 1194.13L1802.19 745.737C1802.89 740.977 1802.09 736.117 1799.88 731.841L1617.67 378.37C1613.72 370.717 1605.83 365.909 1597.22 365.909L1318.34 365.909C1309.73 365.909 1301.84 370.717 1297.9 378.37L1115.68 731.841C1113.48 736.117 1112.67 740.977 1113.37 745.737L1179.53 1194.13C1180.42 1200.15 1183.66 1205.58 1188.54 1209.22L1444.04 1399.56C1452.19 1405.64 1463.37 1405.64 1471.52 1399.56Z" stroke="url(#paint3_linear_531_134024)" stroke-width="4"/>
<path id="Polygon 1_64" opacity="0.0724638" d="M1421.7 1394.97L1685.16 1219.99C1690.24 1216.62 1693.77 1211.36 1694.98 1205.39L1783.89 765.313C1784.84 760.582 1784.29 755.671 1782.3 751.274L1619.77 392.184C1616.22 384.351 1608.6 379.149 1600.02 378.699L1323.2 364.192C1314.62 363.742 1306.5 368.119 1302.15 375.538L1102.97 715.672C1100.53 719.837 1099.47 724.663 1099.92 729.468L1142.35 1176.42C1142.92 1182.49 1145.88 1188.09 1150.58 1191.97L1394.31 1393.54C1402.13 1400 1413.25 1400.58 1421.7 1394.97Z" stroke="url(#paint4_linear_531_134024)" stroke-width="4"/>
<path id="Polygon 1_63" opacity="0.0869565" d="M1372.43 1388.94L1642.95 1229.63C1648.21 1226.53 1652.03 1221.47 1653.55 1215.55L1764.52 784.941C1765.73 780.253 1765.43 775.303 1763.66 770.796L1620.9 407.169C1617.76 399.176 1610.43 393.597 1601.89 392.7L1327.9 363.901C1319.36 363.004 1311.03 366.937 1306.3 374.103L1091.05 700.102C1088.38 704.143 1087.06 708.922 1087.27 713.759L1106.29 1158.03C1106.55 1164.13 1109.22 1169.88 1113.73 1174.01L1345.22 1386.08C1352.67 1392.91 1363.71 1394.07 1372.43 1388.94Z" stroke="url(#paint5_linear_531_134024)" stroke-width="4"/>
<path id="Polygon 1_62" opacity="0.101449" d="M1323.78 1381.51L1600.46 1238.13C1605.89 1235.32 1609.98 1230.45 1611.81 1224.62L1744.1 804.564C1745.56 799.931 1745.52 794.955 1743.97 790.35L1621.01 423.26C1618.29 415.13 1611.27 409.19 1602.8 407.848L1332.35 365.013C1323.88 363.672 1315.37 367.152 1310.26 374.043L1079.88 685.168C1076.99 689.071 1075.41 693.79 1075.37 698.647L1071.38 1139.02C1071.32 1145.14 1073.71 1151.03 1078 1155.38L1296.83 1377.24C1303.91 1384.42 1314.83 1386.15 1323.78 1381.51Z" stroke="url(#paint6_linear_531_134024)" stroke-width="4"/>
<path id="Polygon 1_61" opacity="0.115942" d="M1275.84 1372.74L1557.74 1245.49C1563.33 1242.96 1567.67 1238.32 1569.82 1232.58L1722.63 824.123C1724.34 819.559 1724.55 814.57 1723.24 809.877L1620.04 440.391C1617.74 432.145 1611.05 425.861 1602.67 424.08L1336.48 367.5C1328.11 365.72 1319.44 368.738 1313.98 375.335L1069.42 670.903C1066.31 674.658 1064.48 679.302 1064.18 684.166L1037.65 1119.46C1037.28 1125.58 1039.36 1131.59 1043.43 1136.17L1249.2 1367.08C1255.89 1374.59 1266.68 1376.88 1275.84 1372.74Z" stroke="url(#paint7_linear_531_134024)" stroke-width="4"/>
<path id="Polygon 1_60" opacity="0.130435" d="M1228.66 1362.68L1514.87 1251.7C1520.59 1249.48 1525.19 1245.06 1527.64 1239.44L1700.12 843.562C1702.07 839.079 1702.55 834.091 1701.47 829.321L1617.96 458.492C1616.08 450.152 1609.73 443.542 1601.47 441.329L1340.23 371.33C1331.97 369.118 1323.17 371.668 1317.37 377.951L1059.63 657.341C1056.32 660.935 1054.23 665.491 1053.68 670.35L1005.12 1099.43C1004.43 1105.53 1006.2 1111.65 1010.05 1116.43L1202.42 1355.65C1208.7 1363.46 1219.32 1366.3 1228.66 1362.68Z" stroke="url(#paint8_linear_531_134024)" stroke-width="4"/>
<path id="Polygon 1_59" opacity="0.144928" d="M1182.31 1351.37L1471.89 1256.76C1477.74 1254.85 1482.57 1250.69 1485.32 1245.19L1676.58 862.824C1678.78 858.437 1679.51 853.462 1678.68 848.628L1614.7 477.493C1613.25 469.081 1607.26 462.164 1599.14 459.526L1343.52 376.471C1335.41 373.833 1326.49 375.908 1320.38 381.862L1050.47 644.511C1046.95 647.933 1044.63 652.389 1043.82 657.228L973.805 1078.99C972.799 1085.05 974.261 1091.27 977.866 1096.24L1156.54 1343C1162.4 1351.09 1172.81 1354.47 1182.31 1351.37Z" stroke="url(#paint9_linear_531_134024)" stroke-width="4"/>
<path id="Polygon 1_58" opacity="0.15942" d="M1136.84 1338.88L1428.89 1260.69C1434.83 1259.1 1439.89 1255.19 1442.93 1249.84L1652.03 881.856C1654.47 877.576 1655.46 872.628 1654.87 867.741L1610.24 497.32C1609.22 488.858 1603.6 481.653 1595.65 478.599L1346.3 382.882C1338.34 379.828 1329.34 381.424 1322.92 387.03L1041.89 632.441C1038.19 635.679 1035.62 640.021 1034.56 644.829L943.721 1058.21C942.4 1064.22 943.544 1070.51 946.898 1075.68L1111.61 1329.2C1117.04 1337.55 1127.22 1341.46 1136.84 1338.88Z" stroke="url(#paint10_linear_531_134024)" stroke-width="4"/>
<path id="Polygon 1_57" opacity="0.173913" d="M1092.32 1325.27L1385.9 1263.5C1391.94 1262.23 1397.21 1258.59 1400.53 1253.4L1626.5 900.602C1629.16 896.442 1630.42 891.535 1630.07 886.608L1604.53 517.898C1603.95 509.408 1598.72 501.937 1590.94 498.475L1348.48 390.524C1340.71 387.062 1331.66 388.176 1324.95 393.42L1033.86 621.155C1029.97 624.199 1027.16 628.415 1025.85 633.178L914.874 1037.17C913.241 1043.11 914.064 1049.47 917.158 1054.8L1067.69 1314.31C1072.67 1322.9 1082.61 1327.32 1092.32 1325.27Z" stroke="url(#paint11_linear_531_134024)" stroke-width="4"/>
<path id="Polygon 1_56" opacity="0.188406" d="M1048.8 1310.61L1343 1265.19C1349.11 1264.24 1354.58 1260.89 1358.18 1255.87L1599.99 919.012C1602.88 914.985 1604.4 910.132 1604.3 905.176L1597.56 539.15C1597.4 530.655 1592.57 522.938 1585 519.081L1350.02 399.35C1342.45 395.493 1333.37 396.123 1326.4 400.99L1026.32 610.677C1022.25 613.516 1019.22 617.592 1017.66 622.298L887.271 1015.93C885.329 1021.79 885.826 1028.19 888.652 1033.68L1024.84 1298.4C1029.36 1307.2 1039.02 1312.12 1048.8 1310.61Z" stroke="url(#paint12_linear_531_134024)" stroke-width="4"/>
<path id="Polygon 1_55" opacity="0.202899" d="M1006.32 1294.95L1300.25 1265.78C1306.4 1265.17 1312.05 1262.1 1315.92 1257.27L1572.55 937.035C1575.66 933.153 1577.43 928.366 1577.59 923.394L1589.29 561C1589.56 552.522 1585.14 544.581 1577.8 540.34L1350.86 409.315C1343.51 405.073 1334.42 405.22 1327.22 409.696L1019.23 601.024C1015 603.65 1011.74 607.574 1009.93 612.21L860.911 994.571C858.664 1000.34 858.835 1006.76 861.384 1012.4L983.088 1281.54C987.153 1290.52 996.498 1295.92 1006.32 1294.95Z" stroke="url(#paint13_linear_531_134024)" stroke-width="4"/>
<path id="Polygon 1_54" opacity="0.217391" d="M964.921 1278.36L1257.69 1265.29C1263.88 1265.01 1269.7 1262.25 1273.82 1257.62L1544.19 954.621C1547.51 950.896 1549.53 946.19 1549.95 941.214L1579.69 583.37C1580.39 574.93 1576.4 566.788 1569.3 562.175L1350.93 420.366C1343.83 415.754 1334.77 415.418 1327.34 419.492L1012.54 592.216C1008.16 594.618 1004.68 598.379 1002.63 602.931L835.792 973.16C833.245 978.81 833.087 985.249 835.353 991.017L942.487 1263.79C946.081 1272.95 955.097 1278.8 964.921 1278.36Z" stroke="url(#paint14_linear_531_134024)" stroke-width="4"/>
<path id="Polygon 1_53" opacity="0.231884" d="M924.652 1260.92L1215.39 1263.73C1221.59 1263.79 1227.56 1261.34 1231.94 1256.94L1514.94 971.725C1518.47 968.168 1520.74 963.555 1521.41 958.588L1568.77 606.181C1569.89 597.801 1566.33 589.48 1559.49 584.51L1350.2 432.453C1343.36 427.483 1334.35 426.667 1326.72 430.327L1006.2 584.266C1001.68 586.435 997.996 590.021 995.703 594.477L811.905 951.766C809.065 957.287 808.577 963.721 810.553 969.606L903.07 1245.24C906.189 1254.53 914.852 1260.83 924.652 1260.92Z" stroke="url(#paint15_linear_531_134024)" stroke-width="4"/>
<path id="Polygon 1_52" opacity="0.246377" d="M885.546 1242.7L1173.39 1261.15C1179.6 1261.55 1185.7 1259.41 1190.31 1255.24L1484.84 988.3C1488.57 984.922 1491.09 980.415 1492.01 975.47L1556.49 629.353C1558.04 621.055 1554.91 612.577 1548.35 607.266L1348.61 445.519C1342.05 440.207 1333.11 438.915 1325.32 442.152L1000.17 577.185C995.522 579.115 991.638 582.514 989.108 586.862L789.241 930.459C786.114 935.835 785.297 942.248 786.977 948.235L864.872 1225.96C867.509 1235.36 875.799 1242.07 885.546 1242.7Z" stroke="url(#paint16_linear_531_134024)" stroke-width="4"/>
<path id="Polygon 1_51" opacity="0.26087" d="M847.632 1223.76L1131.76 1257.55C1137.94 1258.29 1144.16 1256.49 1149 1252.55L1453.93 1004.3C1457.85 1001.12 1460.6 996.729 1461.78 991.818L1542.86 652.807C1544.82 644.613 1542.14 636.003 1535.88 630.365L1346.12 459.507C1339.86 453.869 1331.02 452.106 1323.07 454.912L994.395 570.984C989.634 572.666 985.558 575.867 982.797 580.095L767.784 909.307C764.377 914.523 763.232 920.898 764.61 926.973L827.919 1206.01C830.072 1215.5 837.967 1222.61 847.632 1223.76Z" stroke="url(#paint17_linear_531_134024)" stroke-width="4"/>
<path id="Polygon 1_50" opacity="0.275362" d="M810.938 1204.19L1090.53 1252.98C1096.68 1254.05 1103 1252.58 1108.04 1248.9L1422.24 1019.7C1426.33 1016.71 1429.32 1012.45 1430.75 1007.59L1527.87 676.466C1530.24 668.395 1528.01 659.676 1522.06 653.729L1342.69 474.357C1336.74 468.41 1328.02 466.184 1319.95 468.551L988.831 565.669C983.967 567.095 979.711 570.089 976.723 574.184L747.515 888.376C743.837 893.418 742.366 899.738 743.439 905.886L792.235 1185.48C793.902 1195.04 801.384 1202.52 810.938 1204.19Z" stroke="url(#paint18_linear_531_134024)" stroke-width="4"/>
<path id="Polygon 1_49" opacity="0.289855" d="M775.485 1184.05L1049.77 1247.46C1055.86 1248.87 1062.26 1247.74 1067.5 1244.33L1389.8 1034.44C1394.07 1031.66 1397.29 1027.55 1398.97 1022.74L1511.52 700.25C1514.29 692.324 1512.52 683.52 1506.9 677.281L1338.28 490.011C1332.66 483.772 1324.09 481.089 1315.92 483.012L983.428 561.243C978.475 562.408 974.047 565.184 970.84 569.134L728.413 867.731C724.472 872.585 722.677 878.834 723.441 885.039L757.839 1164.45C759.02 1174.04 766.07 1181.87 775.485 1184.05Z" stroke="url(#paint19_linear_531_134024)" stroke-width="4"/>
<path id="Polygon 1_48" opacity="0.304348" d="M741.293 1163.42L1009.5 1241.03C1015.52 1242.77 1021.99 1241.98 1027.41 1238.85L1356.67 1048.49C1361.09 1045.94 1364.54 1041.98 1366.46 1037.25L1493.83 724.082C1496.98 716.32 1495.67 707.455 1490.4 700.943L1332.86 506.403C1327.59 499.891 1319.19 496.762 1310.94 498.236L978.138 557.708C973.109 558.606 968.522 561.154 965.101 564.949L710.451 847.436C706.258 852.088 704.143 858.249 704.595 864.496L724.746 1142.98C725.441 1152.59 732.044 1160.74 741.293 1163.42Z" stroke="url(#paint20_linear_531_134024)" stroke-width="4"/>
<path id="Polygon 1_47" opacity="0.318841" d="M708.373 1142.37L969.788 1233.72C975.711 1235.79 982.223 1235.35 987.814 1232.5L1322.88 1061.83C1327.45 1059.5 1331.11 1055.71 1333.28 1051.06L1474.79 747.885C1478.33 740.307 1477.47 731.405 1472.56 724.639L1326.4 523.473C1321.48 516.706 1313.28 513.142 1304.98 514.164L972.913 555.062C967.821 555.689 963.086 558 959.459 561.628L693.6 827.551C689.164 831.988 686.733 838.046 686.871 844.319L692.966 1121.17C693.177 1130.76 699.318 1139.21 708.373 1142.37Z" stroke="url(#paint21_linear_531_134024)" stroke-width="4"/>
<path id="Polygon 1_46" opacity="0.333333" d="M676.736 1120.99L930.659 1225.57C936.471 1227.97 943.01 1227.88 948.755 1225.33L1288.47 1074.41C1293.18 1072.32 1297.05 1068.71 1299.46 1064.16L1454.43 771.585C1458.34 764.208 1457.94 755.294 1453.39 748.293L1318.87 541.154C1314.33 534.153 1306.35 530.165 1298.02 530.734L967.705 553.302C962.566 553.653 957.694 555.719 953.869 559.169L677.829 808.136C673.161 812.346 670.42 818.284 670.243 824.567L662.505 1099.07C662.235 1108.63 667.901 1117.35 676.736 1120.99Z" stroke="url(#paint22_linear_531_134024)" stroke-width="4"/>
<path id="Polygon 1_45" opacity="0.347826" d="M646.386 1099.34L892.155 1216.63C897.839 1219.34 904.386 1219.6 910.269 1217.36L1253.5 1086.22C1258.33 1084.37 1262.4 1080.95 1265.05 1076.51L1432.76 795.107C1437.02 787.95 1437.09 779.047 1432.92 771.832L1310.26 559.381C1306.1 552.166 1298.35 547.768 1290.02 547.883L962.468 552.421C957.296 552.492 952.299 554.305 948.284 557.567L663.101 789.248C658.213 793.219 655.167 799.021 654.674 805.299L633.362 1076.78C632.617 1086.27 637.795 1095.24 646.386 1099.34Z" stroke="url(#paint23_linear_531_134024)" stroke-width="4"/>
<path id="Polygon 1_44" opacity="0.362319" d="M617.323 1077.5L854.312 1206.93C859.85 1209.95 866.387 1210.57 872.392 1208.63L1218.01 1097.22C1222.96 1095.63 1227.21 1092.41 1230.09 1088.08L1409.81 818.378C1414.42 811.459 1414.93 802.591 1411.16 795.183L1300.54 578.089C1296.77 570.681 1289.29 565.887 1280.98 565.549L957.155 552.41C951.965 552.199 946.856 553.752 942.66 556.815L649.377 770.941C644.281 774.661 640.937 780.312 640.129 786.57L605.536 1054.37C604.322 1063.77 609.002 1072.96 617.323 1077.5Z" stroke="url(#paint24_linear_531_134024)" stroke-width="4"/>
<path id="Polygon 1_43" opacity="0.376812" d="M589.543 1055.55L817.163 1196.51C822.538 1199.84 829.046 1200.81 835.157 1199.2L1182.05 1107.39C1187.09 1106.06 1191.53 1103.05 1194.64 1098.86L1385.6 841.33C1390.54 834.665 1391.51 825.855 1388.13 818.276L1289.71 597.211C1286.33 589.632 1279.14 584.457 1270.88 583.67L951.721 553.258C946.528 552.763 941.32 554.049 936.953 556.904L636.617 753.267C631.326 756.727 627.692 762.211 626.569 768.433L579.019 1031.91C577.341 1041.2 581.515 1050.58 589.543 1055.55Z" stroke="url(#paint25_linear_531_134024)" stroke-width="4"/>
<path id="Polygon 1_42" opacity="0.391304" d="M563.04 1033.55L780.74 1185.43C785.935 1189.06 792.394 1190.38 798.595 1189.09L1145.66 1116.72C1150.79 1115.65 1155.4 1112.86 1158.73 1108.81L1360.16 863.893C1365.42 857.498 1366.84 848.77 1363.87 841.041L1277.75 616.682C1274.78 608.952 1267.89 603.414 1259.7 602.181L946.123 554.952C940.941 554.172 935.648 555.184 931.121 557.822L624.777 736.276C619.304 739.464 615.388 744.768 613.952 750.937L553.798 1009.48C551.667 1018.64 555.327 1028.17 563.04 1033.55Z" stroke="url(#paint26_linear_531_134024)" stroke-width="4"/>
<path id="Polygon 1_41" opacity="0.405797" d="M537.8 1011.58L745.068 1173.73C750.067 1177.64 756.459 1179.31 762.732 1178.35L1108.9 1125.18C1114.1 1124.38 1118.88 1121.82 1122.42 1117.93L1333.53 886.002C1339.09 879.892 1340.95 871.269 1338.4 863.412L1264.65 636.435C1262.1 628.578 1255.52 622.693 1247.43 621.019L940.316 557.476C935.161 556.409 929.797 557.143 925.118 559.555L613.809 720.013C608.168 722.921 603.979 728.03 602.233 734.132L529.859 987.142C527.283 996.146 530.424 1005.81 537.8 1011.58Z" stroke="url(#paint27_linear_531_134024)" stroke-width="4"/>
<path id="Polygon 1_40" opacity="0.42029" d="M513.808 989.712L710.174 1161.46C714.96 1165.64 721.266 1167.66 727.594 1167.03L1071.82 1132.76C1077.08 1132.24 1082 1129.92 1085.75 1126.19L1305.75 907.594C1311.6 901.783 1313.89 893.288 1311.76 885.325L1250.42 656.404C1248.28 648.442 1242.05 642.23 1234.08 640.122L934.259 560.811C929.147 559.459 923.725 559.909 918.907 562.086L603.666 704.522C597.871 707.141 593.419 712.041 591.366 718.06L507.18 964.977C504.171 973.803 506.789 983.573 513.808 989.712Z" stroke="url(#paint28_linear_531_134024)" stroke-width="4"/>
<path id="Polygon 1_39" opacity="0.434783" d="M491.044 968.008L676.078 1148.65C680.637 1153.1 686.839 1155.46 693.203 1155.17L1034.46 1139.45C1039.77 1139.21 1044.83 1137.13 1048.78 1133.58L1276.86 928.607C1282.97 923.11 1285.69 914.764 1283.98 906.719L1235.05 676.525C1233.34 668.48 1227.46 661.96 1219.64 659.426L927.91 564.937C922.857 563.301 917.392 563.463 912.445 565.399L594.295 689.844C588.362 692.165 583.657 696.843 581.302 702.764L485.739 943.051C482.308 951.678 484.4 961.522 491.044 968.008Z" stroke="url(#paint29_linear_531_134024)" stroke-width="4"/>
<path id="Polygon 1_38" opacity="0.449275" d="M469.483 946.537L642.8 1135.37C647.117 1140.07 653.195 1142.77 659.579 1142.82L996.888 1145.24C1002.22 1145.28 1007.41 1143.46 1011.55 1140.1L1246.89 948.986C1253.26 943.813 1256.39 935.638 1255.11 927.533L1218.55 696.732C1217.27 688.627 1211.77 681.82 1204.11 678.869L921.231 569.833C916.251 567.913 910.758 567.786 905.694 569.471L585.645 676.015C579.587 678.031 574.641 682.475 571.988 688.282L465.507 921.43C461.667 929.838 463.233 939.728 469.483 946.537Z" stroke="url(#paint30_linear_531_134024)" stroke-width="4"/>
<path id="Polygon 1_37" opacity="0.463768" d="M449.101 925.366L610.356 1121.66C614.417 1126.6 620.353 1129.63 626.739 1130.02L959.142 1150.13C964.495 1150.46 969.794 1148.9 974.12 1145.73L1215.91 968.674C1222.51 963.838 1226.05 955.855 1225.19 947.713L1200.94 716.963C1200.08 708.822 1194.96 701.749 1187.5 698.391L914.184 575.474C909.293 573.275 903.787 572.853 898.618 574.283L577.661 663.068C571.495 664.774 566.318 668.97 563.374 674.65L446.454 900.18C442.219 908.349 443.26 918.256 449.101 925.366Z" stroke="url(#paint31_linear_531_134024)" stroke-width="4"/>
<path id="Polygon 1_36" opacity="0.478261" d="M429.865 904.556L578.76 1107.57C582.552 1112.74 588.328 1116.09 594.697 1116.82L921.279 1154.11C926.633 1154.72 932.032 1153.43 936.534 1150.47L1183.95 987.621C1190.77 983.131 1194.7 975.361 1194.27 967.205L1182.22 737.155C1181.79 729 1177.07 721.683 1169.81 717.93L906.733 581.834C901.946 579.358 896.442 578.641 891.181 579.809L570.287 651.035C564.029 652.424 558.634 656.362 555.404 661.899L428.545 879.364C423.93 887.275 424.448 897.17 429.865 904.556Z" stroke="url(#paint32_linear_531_134024)" stroke-width="4"/>
<path id="Polygon 1_35" opacity="0.492754" d="M411.742 884.167L548.022 1093.15C551.531 1098.53 557.13 1102.2 563.464 1103.27L883.348 1157.18C888.689 1158.08 894.175 1157.07 898.842 1154.32L1151.07 1005.78C1158.09 1001.64 1162.4 994.106 1162.4 985.96L1162.4 757.247C1162.4 749.101 1158.09 741.563 1151.07 737.429L898.842 588.886C894.175 586.138 888.688 585.124 883.348 586.025L563.464 639.942C557.13 641.01 551.531 644.678 548.022 650.059L411.742 859.04C406.762 866.676 406.762 876.531 411.742 884.167Z" stroke="url(#paint33_linear_531_134024)" stroke-width="4"/>
<path id="Polygon 1_34" opacity="0.507246" d="M394.694 864.258L518.149 1078.45C521.363 1084.03 526.768 1088 533.05 1089.41L845.401 1159.35C850.713 1160.54 856.274 1159.81 861.096 1157.28L1117.33 1023.1C1124.53 1019.33 1129.2 1012.04 1129.63 1003.93L1141.51 777.181C1141.94 769.066 1138.05 761.33 1131.29 756.829L890.48 596.6C885.949 593.585 880.494 592.274 875.087 592.902L557.136 629.813C550.742 630.555 544.951 633.943 541.171 639.154L396.004 839.267C390.677 846.61 390.164 856.398 394.694 864.258Z" stroke="url(#paint34_linear_531_134024)" stroke-width="4"/>
<path id="Polygon 1_33" opacity="0.521739" d="M378.683 844.882L489.146 1063.52C492.055 1069.28 497.249 1073.55 503.46 1075.29L807.488 1160.62C812.755 1162.1 818.378 1161.65 823.345 1159.36L1082.78 1039.55C1090.14 1036.15 1095.17 1029.13 1096.01 1021.07L1119.58 796.898C1120.42 788.838 1116.97 780.927 1110.48 776.074L881.616 604.946C877.234 601.669 871.828 600.062 866.368 600.413L551.243 620.666C544.805 621.08 538.837 624.179 534.794 629.206L381.288 820.097C375.631 827.132 374.613 836.825 378.683 844.882Z" stroke="url(#paint35_linear_531_134024)" stroke-width="4"/>
<path id="Polygon 1_32" opacity="0.536232" d="M363.665 826.093L461.015 1048.41C463.608 1054.33 468.574 1058.89 474.696 1060.96L769.657 1161C774.866 1162.76 780.535 1162.61 785.637 1160.55L1047.48 1055.09C1054.98 1052.07 1060.34 1045.33 1061.61 1037.35L1096.61 816.342C1097.88 808.359 1094.86 800.298 1088.66 795.11L872.22 613.891C868.003 610.36 862.66 608.457 857.16 608.528L545.722 612.52C539.258 612.603 533.127 615.402 528.831 620.233L367.547 801.583C361.578 808.294 360.062 817.866 363.665 826.093Z" stroke="url(#paint36_linear_531_134024)" stroke-width="4"/>
<path id="Polygon 1_31" opacity="0.550725" d="M349.595 807.94L433.755 1033.16C436.023 1039.23 440.745 1044.06 446.761 1046.47L731.959 1160.5C737.094 1162.55 742.796 1162.69 748.022 1160.88L1011.5 1069.68C1019.12 1067.04 1024.8 1060.61 1026.47 1052.72L1072.65 835.462C1074.33 827.577 1071.76 819.391 1065.87 813.884L862.266 623.402C858.227 619.624 852.964 617.427 847.438 617.214L540.516 605.386C534.042 605.136 527.763 607.629 523.223 612.251L354.732 783.771C348.47 790.145 346.467 799.57 349.595 807.94Z" stroke="url(#paint37_linear_531_134024)" stroke-width="4"/>
<path id="Polygon 1_30" opacity="0.565217" d="M336.425 790.468L407.363 1017.84C409.297 1024.03 413.761 1029.13 419.653 1031.86L694.442 1159.13C699.487 1161.47 705.208 1161.9 710.545 1160.35L974.888 1083.29C982.605 1081.04 988.588 1074.93 990.668 1067.16L1047.73 854.204C1049.81 846.44 1047.69 838.153 1042.13 832.346L851.728 633.444C847.883 629.427 842.714 626.94 837.177 626.441L535.563 599.273C529.096 598.691 522.684 600.869 517.91 605.27L342.792 766.707C336.256 772.731 333.778 781.983 336.425 790.468Z" stroke="url(#paint38_linear_531_134024)" stroke-width="4"/>
<path id="Polygon 1_29" opacity="0.57971" d="M324.105 773.72L381.833 1002.47C383.425 1008.78 387.616 1014.12 393.366 1017.17L657.151 1156.92C662.091 1159.54 667.816 1160.27 673.254 1158.97L937.713 1095.9C945.509 1094.04 951.775 1088.26 954.252 1080.64L1021.87 872.52C1024.35 864.897 1022.68 856.535 1017.47 850.448L840.584 643.981C836.947 639.735 831.888 636.96 826.352 636.173L530.801 594.188C524.358 593.272 517.829 595.129 512.832 599.298L331.672 750.431C324.884 756.094 321.942 765.148 324.105 773.72Z" stroke="url(#paint39_linear_531_134024)" stroke-width="4"/>
<path id="Polygon 1_28" opacity="0.594203" d="M312.585 757.735L357.155 987.119C358.399 993.521 362.303 999.094 367.895 1002.45L620.133 1153.88C624.953 1156.77 630.667 1157.8 636.194 1156.77L900.039 1107.49C907.894 1106.03 914.425 1100.59 917.289 1093.13L995.122 890.363C997.986 882.903 996.772 874.491 991.916 868.144L828.813 654.977C825.397 650.512 820.463 647.453 814.944 646.378L526.17 590.131C519.768 588.884 513.138 590.413 507.929 594.339L321.32 734.981C314.298 740.272 310.908 749.104 312.585 757.735Z" stroke="url(#paint40_linear_531_134024)" stroke-width="4"/>
<path id="Polygon 1_27" opacity="0.608696" d="M301.809 742.55L333.319 971.822C334.209 978.298 337.813 984.089 343.229 987.749L583.431 1150.03C588.117 1153.2 593.804 1154.52 599.408 1153.76L861.931 1118.04C869.825 1116.97 876.601 1111.88 879.841 1104.6L967.513 907.69C970.754 900.412 969.997 891.975 965.513 885.39L816.397 666.395C813.214 661.721 808.421 658.383 802.933 657.019L521.609 587.101C515.265 585.525 508.55 586.722 503.142 590.394L311.676 720.39C304.442 725.301 300.619 733.889 301.809 742.55Z" stroke="url(#paint41_linear_531_134024)" stroke-width="4"/>
<path id="Polygon 1_26" opacity="0.623188" d="M291.724 728.197L310.311 956.626C310.842 963.156 314.133 969.15 319.358 973.103L547.088 1145.4C551.624 1148.83 557.271 1150.46 562.939 1149.97L823.453 1127.53C831.366 1126.85 838.367 1122.13 841.973 1115.06L939.088 924.459C942.693 917.383 942.393 908.947 938.293 902.145L803.319 678.196C800.382 673.324 795.745 669.713 790.302 668.061L517.058 585.094C510.789 583.191 504.006 584.051 498.411 587.46L302.683 706.69C295.259 711.212 291.019 719.533 291.724 728.197Z" stroke="url(#paint42_linear_531_134024)" stroke-width="4"/>
<path id="Polygon 1_25" opacity="0.637681" d="M282.273 714.706L288.115 941.574C288.284 948.139 291.251 954.318 296.268 958.555L511.146 1140C515.518 1143.69 521.109 1145.62 526.828 1145.41L784.672 1135.96C792.584 1135.67 799.79 1131.33 803.748 1124.47L909.888 940.633C913.846 933.777 914 925.367 910.296 918.371L789.564 690.342C786.887 685.284 782.42 681.407 777.037 679.467L512.459 584.101C506.281 581.874 499.446 582.394 493.677 585.53L294.282 693.906C286.689 698.032 282.051 706.067 282.273 714.706Z" stroke="url(#paint43_linear_531_134024)" stroke-width="4"/>
<path id="Polygon 1_24" opacity="0.652174" d="M273.398 702.1L266.712 926.708C266.516 933.287 269.149 939.635 273.943 944.145L475.643 1133.88C479.837 1137.83 485.357 1140.05 491.114 1140.13L745.653 1143.31C753.543 1143.41 760.933 1139.46 765.23 1132.84L879.958 956.175C884.255 949.557 884.86 941.198 881.561 934.031L775.122 702.793C772.714 697.563 768.433 693.426 763.123 691.2L507.752 584.11C501.682 581.564 494.813 581.741 488.882 584.596L286.412 682.061C278.672 685.786 273.654 693.514 273.398 702.1Z" stroke="url(#paint44_linear_531_134024)" stroke-width="4"/>
<path id="Polygon 1_23" opacity="0.666667" d="M265.04 690.403L246.082 912.068C245.52 918.642 247.808 925.14 252.364 929.912L440.617 1127.06C444.618 1131.25 450.053 1133.77 455.835 1134.13L706.461 1149.59C714.31 1150.07 721.862 1146.51 726.485 1140.15L849.343 971.053C853.965 964.691 855.017 956.408 852.131 949.093L759.981 715.51C757.854 710.121 753.773 705.733 748.552 703.222L502.881 585.105C496.935 582.246 490.047 582.079 483.969 584.645L279.011 671.173C271.147 674.494 265.768 681.897 265.04 690.403Z" stroke="url(#paint45_linear_531_134024)" stroke-width="4"/>
<path id="Polygon 1_22" opacity="0.681159" d="M257.142 679.631L226.204 897.694C225.275 904.241 227.209 910.872 231.513 915.893L406.103 1119.57C409.898 1124 415.232 1126.82 421.027 1127.46L667.162 1154.8C674.95 1155.66 682.644 1152.5 687.575 1146.41L818.091 985.237C823.023 979.147 824.514 970.965 822.049 963.527L744.134 728.454C742.3 722.92 738.432 718.289 733.314 715.498L497.79 587.069C491.984 583.903 485.096 583.389 478.884 585.659L272.019 661.26C264.052 664.171 258.334 671.232 257.142 679.631Z" stroke="url(#paint46_linear_531_134024)" stroke-width="4"/>
<path id="Polygon 1_21" opacity="0.695652" d="M249.643 669.8L207.051 883.621C205.756 890.123 207.329 896.867 211.367 902.124L372.136 1111.44C375.711 1116.1 380.929 1119.21 386.723 1120.14L627.819 1158.94C635.528 1160.18 643.34 1157.42 648.565 1151.62L786.251 998.702C791.475 992.9 793.399 984.842 791.36 977.305L727.577 741.585C726.044 735.92 722.404 731.056 717.402 727.987L492.424 589.979C486.773 586.513 479.901 585.653 473.571 587.621L265.374 652.33C257.325 654.831 251.29 661.535 249.643 669.8Z" stroke="url(#paint47_linear_531_134024)" stroke-width="4"/>
<path id="Polygon 1_20" opacity="0.710145" d="M242.484 660.921L188.6 869.886C186.94 876.321 188.145 883.159 191.904 888.639L338.747 1102.72C342.088 1107.59 347.176 1110.99 352.956 1112.21L588.496 1162.02C596.107 1163.63 604.016 1161.28 609.517 1155.78L753.871 1011.43C759.372 1005.92 761.719 998.015 760.11 990.404L710.307 754.863C709.084 749.084 705.685 743.996 700.814 740.654L486.731 593.812C481.251 590.053 474.413 588.848 467.978 590.508L259.013 644.392C250.906 646.483 244.575 652.814 242.484 660.921Z" stroke="url(#paint48_linear_531_134024)" stroke-width="4"/>
<path id="Polygon 1_19" opacity="0.724638" d="M235.605 652.999L170.82 856.522C168.799 862.869 169.63 869.781 173.097 875.469L305.963 1093.44C309.059 1098.52 314.001 1102.2 319.753 1103.71L549.254 1164.05C556.749 1166.02 564.733 1164.09 570.493 1158.9L721 1023.38C726.76 1018.2 729.52 1010.46 728.344 1002.8L692.32 768.249C691.417 762.371 688.272 757.07 683.545 753.461L480.659 598.539C475.365 594.497 468.577 592.948 462.053 594.294L252.874 637.45C244.73 639.13 238.127 645.075 235.605 652.999Z" stroke="url(#paint49_linear_531_134024)" stroke-width="4"/>
<path id="Polygon 1_18" opacity="0.73913" d="M228.947 646.04L153.684 843.559C151.306 849.799 151.758 856.765 154.922 862.646L273.813 1083.63C276.651 1088.9 281.433 1092.86 287.145 1094.67L510.155 1165.06C517.517 1167.39 525.554 1165.86 531.553 1161L687.692 1034.56C693.691 1029.71 696.853 1022.16 696.111 1014.48L673.62 781.705C673.044 775.743 670.165 770.242 665.596 766.37L474.16 604.132C469.066 599.814 462.346 597.924 455.748 598.952L246.897 631.504C238.738 632.775 231.887 638.323 228.947 646.04Z" stroke="url(#paint50_linear_531_134024)" stroke-width="4"/>
<path id="Polygon 1_17" opacity="0.753623" d="M222.45 640.042L137.16 831.028C134.431 837.141 134.5 844.14 137.349 850.197L242.322 1073.34C244.889 1078.8 249.497 1083.03 255.154 1085.12L471.259 1165.06C478.47 1167.73 486.538 1166.62 492.758 1162.1L653.995 1044.95C660.215 1040.43 663.766 1033.1 663.457 1025.42L654.209 795.19C653.966 789.163 651.367 783.473 646.97 779.345L467.188 610.556C462.307 605.973 455.672 603.745 449.015 604.452L241.021 626.549C232.868 627.415 225.793 632.556 222.45 640.042Z" stroke="url(#paint51_linear_531_134024)" stroke-width="4"/>
<path id="Polygon 1_16" opacity="0.768116" d="M216.056 635.002L121.217 818.956C118.142 824.921 117.825 831.932 120.351 838.15L211.51 1062.6C213.796 1068.23 218.216 1072.73 223.805 1075.11L432.623 1164.07C439.667 1167.08 447.743 1166.37 454.164 1162.2L619.961 1054.53C626.383 1050.36 630.308 1043.27 630.432 1035.62L634.092 808.666C634.19 802.592 631.881 796.726 627.669 792.348L459.697 617.776C455.044 612.94 448.51 610.377 441.81 610.76L235.186 622.579C227.06 623.044 219.786 627.768 216.056 635.002Z" stroke="url(#paint52_linear_531_134024)" stroke-width="4"/>
<path id="Polygon 1_15" opacity="0.782609" d="M209.708 630.914L105.821 807.367C102.408 813.165 101.704 820.167 103.896 826.528L181.399 1051.47C183.392 1057.26 187.61 1062.01 193.118 1064.68L394.302 1162.13C401.164 1165.45 409.226 1165.16 415.829 1161.35L585.642 1063.31C592.245 1059.49 596.529 1052.66 597.082 1045.05L613.278 822.098C613.721 815.994 611.714 809.965 607.699 805.345L451.645 625.755C447.232 620.676 440.816 617.784 434.088 617.842L229.332 619.584C221.255 619.652 213.806 623.953 209.708 630.914Z" stroke="url(#paint53_linear_531_134024)" stroke-width="4"/>
<path id="Polygon 1_14" opacity="0.797101" d="M203.349 627.766L90.9383 796.284C87.1951 801.896 86.104 808.867 87.9537 815.354L152.005 1039.98C153.696 1045.91 157.697 1050.91 163.11 1053.86L356.351 1159.26C363.014 1162.89 371.042 1163 377.805 1159.56L551.088 1071.26C557.852 1067.82 562.479 1061.26 563.455 1053.73L591.775 835.447C592.568 829.332 590.873 823.154 587.069 818.301L442.994 634.452C438.833 629.143 432.551 625.928 425.811 625.658L223.404 617.548C215.395 617.227 207.797 621.098 203.349 627.766Z" stroke="url(#paint54_linear_531_134024)" stroke-width="4"/>
<path id="Polygon 1_13" opacity="0.811594" d="M196.924 625.545L76.5327 785.729C72.4696 791.135 70.9916 798.055 72.4918 804.649L123.342 1028.17C124.72 1034.23 128.492 1039.47 133.798 1042.71L318.819 1155.48C325.271 1159.42 333.243 1159.93 340.145 1156.86L516.351 1078.41C523.253 1075.33 528.206 1069.06 529.6 1061.64L569.593 848.677C570.74 842.57 569.367 836.258 565.787 831.18L433.705 643.827C429.808 638.3 423.676 634.768 416.94 634.17L217.343 616.454C209.423 615.751 201.701 619.189 196.924 625.545Z" stroke="url(#paint55_linear_531_134024)" stroke-width="4"/>
<path id="Polygon 1_12" opacity="0.826087" d="M190.379 624.235L62.5702 775.719C58.1979 780.901 56.335 787.748 57.479 794.431L95.4239 1016.09C96.4807 1022.26 100.009 1027.74 105.195 1031.25L281.759 1150.85C287.985 1155.07 295.88 1155.98 302.9 1153.28L481.48 1084.73C488.501 1082.04 493.76 1076.08 495.565 1068.78L546.748 861.754C548.252 855.674 547.21 849.244 543.865 843.949L423.745 653.835C420.124 648.103 414.157 644.261 407.441 643.335L211.098 616.282C203.285 615.205 195.465 618.207 190.379 624.235Z" stroke="url(#paint56_linear_531_134024)" stroke-width="4"/>
<path id="Polygon 1_11" opacity="0.84058" d="M183.662 623.815L49.0127 766.27C44.3431 771.21 42.0982 777.963 42.8805 784.716L68.259 1003.78C68.9857 1010.05 72.2588 1015.75 77.311 1019.54L245.214 1145.4C251.202 1149.89 258.999 1151.18 266.117 1148.87L446.525 1090.25C453.642 1087.94 459.189 1082.31 461.395 1075.16L523.253 874.644C525.115 868.61 524.414 862.077 521.315 856.575L413.083 664.43C409.746 658.507 403.961 654.363 397.279 653.111L204.613 617.007C196.926 615.567 189.034 618.131 183.662 623.815Z" stroke="url(#paint57_linear_531_134024)" stroke-width="4"/>
<path id="Polygon 1_10" opacity="0.855072" d="M176.722 624.263L35.8241 757.397C30.8701 762.078 28.2474 768.715 28.6633 775.518L41.8551 991.293C42.2436 997.648 45.2486 1003.56 50.1548 1007.61L209.229 1139.16C214.967 1143.91 222.647 1145.58 229.839 1143.65L411.533 1094.97C418.725 1093.04 424.54 1087.75 427.136 1080.77L499.125 887.313C501.346 881.346 500.993 874.726 498.153 869.028L401.689 675.566C398.648 669.466 393.058 665.03 386.427 663.453L197.839 618.604C190.296 616.81 182.357 618.938 176.722 624.263Z" stroke="url(#paint58_linear_531_134024)" stroke-width="4"/>
<path id="Polygon 1_9" opacity="0.869565" d="M169.511 625.552L22.9671 749.11C17.7427 753.515 14.7476 760.015 14.7935 766.849L16.2164 978.665C16.2596 985.086 18.9844 991.196 23.7321 995.518L173.845 1132.18C179.322 1137.17 186.865 1139.21 194.11 1137.67L376.554 1098.89C383.799 1097.35 389.859 1092.42 392.835 1085.64L474.382 899.73C476.962 893.85 476.966 887.16 474.394 881.277L389.54 687.194C386.802 680.932 381.422 676.213 374.858 674.313L190.728 621.042C183.346 618.907 175.386 620.599 169.511 625.552Z" stroke="url(#paint59_linear_531_134024)" stroke-width="4"/>
<path id="Polygon 1_8" opacity="0.884058" d="M161.982 627.656L10.4044 741.419C4.92448 745.532 1.56355 751.874 1.23687 758.718L-8.65493 965.945C-8.96373 972.414 -6.53082 978.713 -1.95398 983.295L139.099 1124.51C144.306 1129.72 151.694 1132.13 158.97 1130.98L341.632 1102.04C348.909 1100.89 355.193 1096.32 358.533 1089.76L449.044 911.864C451.981 906.092 452.349 899.349 450.056 893.292L376.612 699.265C374.186 692.857 369.03 687.864 362.547 685.646L183.234 624.29C176.029 621.825 168.072 623.085 161.982 627.656Z" stroke="url(#paint60_linear_531_134024)" stroke-width="4"/>
<path id="Polygon 1_7" opacity="0.898551" d="M154.09 630.543L-1.90186 734.331C-7.62141 738.137 -11.3405 744.3 -12.0413 751.134L-32.7601 953.175C-33.4267 959.675 -31.297 966.152 -26.9031 970.988L105.027 1116.19C109.953 1121.62 117.168 1124.37 124.454 1123.6L306.813 1104.43C314.099 1103.67 320.584 1099.48 324.275 1093.15L423.132 923.687C426.425 918.043 427.161 911.265 425.158 905.046L362.885 711.728C360.779 705.189 355.86 699.934 349.474 697.4L175.312 628.312C168.3 625.531 160.37 626.364 154.09 630.543Z" stroke="url(#paint61_linear_531_134024)" stroke-width="4"/>
<path id="Polygon 1_6" opacity="0.913043" d="M145.795 634.179L-13.9882 727.851C-19.9306 731.334 -23.9988 737.298 -25.0742 744.101L-56.1013 940.4C-57.1307 946.913 -55.3153 953.554 -51.116 958.638L71.6603 1107.27C76.2988 1112.89 83.3231 1115.98 90.5967 1115.6L272.139 1106.08C279.413 1105.7 286.076 1101.9 290.102 1095.83L396.669 935.171C400.314 929.676 401.425 922.881 399.721 916.511L348.345 724.531C346.564 717.877 341.895 712.372 335.621 709.528L166.922 633.072C160.118 629.988 152.24 630.401 145.795 634.179Z" stroke="url(#paint62_linear_531_134024)" stroke-width="4"/>
<path id="Polygon 1_5" opacity="0.927536" d="M137.057 638.53L-25.8925 721.979C-32.0399 725.128 -36.4471 730.872 -37.8965 737.625L-78.6847 927.664C-80.0814 934.171 -78.5907 940.964 -74.5976 946.289L39.0271 1097.81C43.3707 1103.6 50.1881 1107.01 57.4279 1107.01L237.653 1107.01C244.893 1107.01 251.71 1103.6 256.054 1097.81L369.679 946.289C373.672 940.964 375.162 934.171 373.766 927.664L332.978 737.625C331.528 730.872 327.121 725.128 320.974 721.979L158.024 638.53C151.442 635.159 143.639 635.159 137.057 638.53Z" stroke="url(#paint63_linear_531_134024)" stroke-width="4"/>
<path id="Polygon 1_4" opacity="0.942029" d="M127.838 643.559L-37.6511 716.718C-43.9848 719.518 -48.7198 725.023 -50.5414 731.705L-100.518 915.009C-102.286 921.492 -101.13 928.423 -97.354 933.982L7.15303 1087.84C11.1956 1093.79 17.7904 1097.51 24.9754 1097.89L203.394 1107.24C210.579 1107.61 217.526 1104.61 222.169 1099.11L342.186 957.017C346.522 951.884 348.396 945.111 347.316 938.479L316.774 750.955C315.66 744.12 311.527 738.15 305.52 734.703L148.585 644.646C142.236 641.003 134.533 640.599 127.838 643.559Z" stroke="url(#paint64_linear_531_134024)" stroke-width="4"/>
<path id="Polygon 1_3" opacity="0.956522" d="M118.105 649.225L-49.3003 712.065C-55.801 714.505 -60.8514 719.752 -63.0424 726.341L-121.612 902.478C-123.753 908.917 -122.941 915.973 -119.394 921.758L-23.9404 1077.43C-20.2038 1083.52 -13.8462 1087.53 -6.73709 1088.28L169.4 1106.79C176.509 1107.54 183.561 1104.94 188.483 1099.76L314.217 967.332C318.89 962.411 321.15 955.678 320.395 948.935L299.726 764.469C298.953 757.569 295.104 751.387 289.253 747.648L138.571 651.376C132.468 647.477 124.885 646.68 118.105 649.225Z" stroke="url(#paint65_linear_531_134024)" stroke-width="4"/>
<path id="Polygon 1_2" opacity="0.971014" d="M107.826 655.489L-60.8759 708.016C-67.5234 710.085 -72.8756 715.055 -75.432 721.531L-141.979 890.112C-144.495 896.488 -144.037 903.654 -140.729 909.657L-54.235 1066.63C-50.8083 1072.85 -44.7016 1077.13 -37.6887 1078.24L135.706 1105.71C142.719 1106.82 149.851 1104.63 155.032 1099.77L285.8 977.213C290.801 972.525 293.451 965.852 293.027 959.01L281.832 778.116C281.402 771.167 277.848 764.787 272.165 760.764L127.952 658.676C122.106 654.538 114.665 653.359 107.826 655.489Z" stroke="url(#paint66_linear_531_134024)" stroke-width="4"/>
<path id="Polygon 1_1" opacity="0.985507" d="M96.9723 662.307L-72.4127 704.564C-79.186 706.254 -84.8253 710.928 -87.7419 717.27L-161.634 877.952C-164.527 884.244 -164.431 891.505 -161.373 897.719L-83.7154 1055.49C-80.6016 1061.81 -74.7584 1066.36 -67.8618 1067.83L102.346 1104.01C109.243 1105.47 116.431 1103.69 121.848 1099.18L256.961 986.639C262.283 982.206 265.324 975.612 265.24 968.687L263.091 791.842C263.007 784.862 259.756 778.298 254.256 773.999L116.702 666.501C111.122 662.14 103.844 660.593 96.9723 662.307Z" stroke="url(#paint67_linear_531_134024)" stroke-width="4"/>
<path id="Polygon 1" d="M85.5185 669.637L-83.9454 701.702C-90.8228 703.003 -96.7334 707.365 -100.004 713.553L-180.594 866.037C-183.865 872.226 -184.139 879.567 -181.34 885.982L-112.371 1044.06C-109.572 1050.48 -104.004 1055.27 -97.2427 1057.08L69.3511 1101.72C76.112 1103.53 83.33 1102.17 88.9618 1098.01L227.731 995.592C233.363 991.436 236.796 984.941 237.057 977.947L243.506 805.597C243.768 798.602 240.83 791.869 235.525 787.303L104.797 674.803C99.4916 670.237 92.3959 668.336 85.5185 669.637Z" stroke="url(#paint68_linear_531_134024)" stroke-width="4"/>
</g>
<defs>
<linearGradient id="paint0_linear_531_134024" x1="1611.91" y1="1419.24" x2="1428.03" y2="258.222" gradientUnits="userSpaceOnUse">
<stop stop-color="#FF9618"/>
<stop offset="1" stop-color="#3DAEEE"/>
</linearGradient>
<linearGradient id="paint1_linear_531_134024" x1="1560.15" y1="1418.5" x2="1438.36" y2="259.766" gradientUnits="userSpaceOnUse">
<stop stop-color="#FF9618"/>
<stop offset="1" stop-color="#3DAEEE"/>
</linearGradient>
<linearGradient id="paint2_linear_531_134024" x1="1508.74" y1="1416.17" x2="1448.31" y2="263.015" gradientUnits="userSpaceOnUse">
<stop stop-color="#FF9618"/>
<stop offset="1" stop-color="#3DAEEE"/>
</linearGradient>
<linearGradient id="paint3_linear_531_134024" x1="1457.78" y1="1412.29" x2="1457.78" y2="267.93" gradientUnits="userSpaceOnUse">
<stop stop-color="#FF9618"/>
<stop offset="1" stop-color="#3DAEEE"/>
</linearGradient>
<linearGradient id="paint4_linear_531_134024" x1="1407.34" y1="1406.9" x2="1466.69" y2="274.471" gradientUnits="userSpaceOnUse">
<stop stop-color="#FF9618"/>
<stop offset="1" stop-color="#3DAEEE"/>
</linearGradient>
<linearGradient id="paint5_linear_531_134024" x1="1357.51" y1="1400.05" x2="1474.95" y2="282.59" gradientUnits="userSpaceOnUse">
<stop stop-color="#FF9618"/>
<stop offset="1" stop-color="#3DAEEE"/>
</linearGradient>
<linearGradient id="paint6_linear_531_134024" x1="1308.34" y1="1391.77" x2="1482.49" y2="292.237" gradientUnits="userSpaceOnUse">
<stop stop-color="#FF9618"/>
<stop offset="1" stop-color="#3DAEEE"/>
</linearGradient>
<linearGradient id="paint7_linear_531_134024" x1="1259.93" y1="1382.12" x2="1489.23" y2="303.358" gradientUnits="userSpaceOnUse">
<stop stop-color="#FF9618"/>
<stop offset="1" stop-color="#3DAEEE"/>
</linearGradient>
<linearGradient id="paint8_linear_531_134024" x1="1212.33" y1="1371.15" x2="1495.08" y2="315.893" gradientUnits="userSpaceOnUse">
<stop stop-color="#FF9618"/>
<stop offset="1" stop-color="#3DAEEE"/>
</linearGradient>
<linearGradient id="paint9_linear_531_134024" x1="1165.61" y1="1358.93" x2="1500" y2="329.781" gradientUnits="userSpaceOnUse">
<stop stop-color="#FF9618"/>
<stop offset="1" stop-color="#3DAEEE"/>
</linearGradient>
<linearGradient id="paint10_linear_531_134024" x1="1119.82" y1="1345.51" x2="1503.9" y2="344.957" gradientUnits="userSpaceOnUse">
<stop stop-color="#FF9618"/>
<stop offset="1" stop-color="#3DAEEE"/>
</linearGradient>
<linearGradient id="paint11_linear_531_134024" x1="1075.04" y1="1330.95" x2="1506.73" y2="361.351" gradientUnits="userSpaceOnUse">
<stop stop-color="#FF9618"/>
<stop offset="1" stop-color="#3DAEEE"/>
</linearGradient>
<linearGradient id="paint12_linear_531_134024" x1="1031.3" y1="1315.33" x2="1508.44" y2="378.894" gradientUnits="userSpaceOnUse">
<stop stop-color="#FF9618"/>
<stop offset="1" stop-color="#3DAEEE"/>
</linearGradient>
<linearGradient id="paint13_linear_531_134024" x1="988.658" y1="1298.71" x2="1508.96" y2="397.511" gradientUnits="userSpaceOnUse">
<stop stop-color="#FF9618"/>
<stop offset="1" stop-color="#3DAEEE"/>
</linearGradient>
<linearGradient id="paint14_linear_531_134024" x1="947.158" y1="1281.16" x2="1508.27" y2="417.127" gradientUnits="userSpaceOnUse">
<stop stop-color="#FF9618"/>
<stop offset="1" stop-color="#3DAEEE"/>
</linearGradient>
<linearGradient id="paint15_linear_531_134024" x1="906.837" y1="1262.75" x2="1506.3" y2="437.663" gradientUnits="userSpaceOnUse">
<stop stop-color="#FF9618"/>
<stop offset="1" stop-color="#3DAEEE"/>
</linearGradient>
<linearGradient id="paint16_linear_531_134024" x1="867.732" y1="1243.56" x2="1503.02" y2="459.04" gradientUnits="userSpaceOnUse">
<stop stop-color="#FF9618"/>
<stop offset="1" stop-color="#3DAEEE"/>
</linearGradient>
<linearGradient id="paint17_linear_531_134024" x1="829.873" y1="1223.66" x2="1498.41" y2="481.177" gradientUnits="userSpaceOnUse">
<stop stop-color="#FF9618"/>
<stop offset="1" stop-color="#3DAEEE"/>
</linearGradient>
<linearGradient id="paint18_linear_531_134024" x1="793.285" y1="1203.13" x2="1492.43" y2="503.992" gradientUnits="userSpaceOnUse">
<stop stop-color="#FF9618"/>
<stop offset="1" stop-color="#3DAEEE"/>
</linearGradient>
<linearGradient id="paint19_linear_531_134024" x1="757.991" y1="1182.05" x2="1485.06" y2="527.401" gradientUnits="userSpaceOnUse">
<stop stop-color="#FF9618"/>
<stop offset="1" stop-color="#3DAEEE"/>
</linearGradient>
<linearGradient id="paint20_linear_531_134024" x1="724.009" y1="1160.5" x2="1476.28" y2="551.323" gradientUnits="userSpaceOnUse">
<stop stop-color="#FF9618"/>
<stop offset="1" stop-color="#3DAEEE"/>
</linearGradient>
<linearGradient id="paint21_linear_531_134024" x1="691.348" y1="1138.54" x2="1466.07" y2="575.672" gradientUnits="userSpaceOnUse">
<stop stop-color="#FF9618"/>
<stop offset="1" stop-color="#3DAEEE"/>
</linearGradient>
<linearGradient id="paint22_linear_531_134024" x1="660.019" y1="1116.27" x2="1454.44" y2="600.365" gradientUnits="userSpaceOnUse">
<stop stop-color="#FF9618"/>
<stop offset="1" stop-color="#3DAEEE"/>
</linearGradient>
<linearGradient id="paint23_linear_531_134024" x1="630.024" y1="1093.75" x2="1441.37" y2="625.319" gradientUnits="userSpaceOnUse">
<stop stop-color="#FF9618"/>
<stop offset="1" stop-color="#3DAEEE"/>
</linearGradient>
<linearGradient id="paint24_linear_531_134024" x1="601.363" y1="1071.07" x2="1426.87" y2="650.451" gradientUnits="userSpaceOnUse">
<stop stop-color="#FF9618"/>
<stop offset="1" stop-color="#3DAEEE"/>
</linearGradient>
<linearGradient id="paint25_linear_531_134024" x1="574.03" y1="1048.29" x2="1410.94" y2="675.679" gradientUnits="userSpaceOnUse">
<stop stop-color="#FF9618"/>
<stop offset="1" stop-color="#3DAEEE"/>
</linearGradient>
<linearGradient id="paint26_linear_531_134024" x1="548.015" y1="1025.51" x2="1393.59" y2="700.921" gradientUnits="userSpaceOnUse">
<stop stop-color="#FF9618"/>
<stop offset="1" stop-color="#3DAEEE"/>
</linearGradient>
<linearGradient id="paint27_linear_531_134024" x1="523.304" y1="1002.78" x2="1374.84" y2="726.1" gradientUnits="userSpaceOnUse">
<stop stop-color="#FF9618"/>
<stop offset="1" stop-color="#3DAEEE"/>
</linearGradient>
<linearGradient id="paint28_linear_531_134024" x1="499.881" y1="980.188" x2="1354.71" y2="751.137" gradientUnits="userSpaceOnUse">
<stop stop-color="#FF9618"/>
<stop offset="1" stop-color="#3DAEEE"/>
</linearGradient>
<linearGradient id="paint29_linear_531_134024" x1="477.722" y1="957.797" x2="1333.22" y2="775.955" gradientUnits="userSpaceOnUse">
<stop stop-color="#FF9618"/>
<stop offset="1" stop-color="#3DAEEE"/>
</linearGradient>
<linearGradient id="paint30_linear_531_134024" x1="456.801" y1="935.677" x2="1310.4" y2="800.481" gradientUnits="userSpaceOnUse">
<stop stop-color="#FF9618"/>
<stop offset="1" stop-color="#3DAEEE"/>
</linearGradient>
<linearGradient id="paint31_linear_531_134024" x1="437.09" y1="913.896" x2="1286.27" y2="824.644" gradientUnits="userSpaceOnUse">
<stop stop-color="#FF9618"/>
<stop offset="1" stop-color="#3DAEEE"/>
</linearGradient>
<linearGradient id="paint32_linear_531_134024" x1="418.556" y1="892.518" x2="1260.89" y2="848.373" gradientUnits="userSpaceOnUse">
<stop stop-color="#FF9618"/>
<stop offset="1" stop-color="#3DAEEE"/>
</linearGradient>
<linearGradient id="paint33_linear_531_134024" x1="401.161" y1="871.604" x2="1234.27" y2="871.604" gradientUnits="userSpaceOnUse">
<stop stop-color="#FF9618"/>
<stop offset="1" stop-color="#3DAEEE"/>
</linearGradient>
<linearGradient id="paint34_linear_531_134024" x1="384.867" y1="851.213" x2="1206.48" y2="894.272" gradientUnits="userSpaceOnUse">
<stop stop-color="#FF9618"/>
<stop offset="1" stop-color="#3DAEEE"/>
</linearGradient>
<linearGradient id="paint35_linear_531_134024" x1="369.631" y1="831.401" x2="1177.54" y2="916.316" gradientUnits="userSpaceOnUse">
<stop stop-color="#FF9618"/>
<stop offset="1" stop-color="#3DAEEE"/>
</linearGradient>
<linearGradient id="paint36_linear_531_134024" x1="355.407" y1="812.223" x2="1147.52" y2="937.681" gradientUnits="userSpaceOnUse">
<stop stop-color="#FF9618"/>
<stop offset="1" stop-color="#3DAEEE"/>
</linearGradient>
<linearGradient id="paint37_linear_531_134024" x1="342.148" y1="793.727" x2="1116.46" y2="958.312" gradientUnits="userSpaceOnUse">
<stop stop-color="#FF9618"/>
<stop offset="1" stop-color="#3DAEEE"/>
</linearGradient>
<linearGradient id="paint38_linear_531_134024" x1="329.803" y1="775.96" x2="1084.42" y2="978.159" gradientUnits="userSpaceOnUse">
<stop stop-color="#FF9618"/>
<stop offset="1" stop-color="#3DAEEE"/>
</linearGradient>
<linearGradient id="paint39_linear_531_134024" x1="318.32" y1="758.966" x2="1051.45" y2="997.176" gradientUnits="userSpaceOnUse">
<stop stop-color="#FF9618"/>
<stop offset="1" stop-color="#3DAEEE"/>
</linearGradient>
<linearGradient id="paint40_linear_531_134024" x1="307.642" y1="742.784" x2="1017.62" y2="1015.32" gradientUnits="userSpaceOnUse">
<stop stop-color="#FF9618"/>
<stop offset="1" stop-color="#3DAEEE"/>
</linearGradient>
<linearGradient id="paint41_linear_531_134024" x1="297.716" y1="727.451" x2="982.977" y2="1032.55" gradientUnits="userSpaceOnUse">
<stop stop-color="#FF9618"/>
<stop offset="1" stop-color="#3DAEEE"/>
</linearGradient>
<linearGradient id="paint42_linear_531_134024" x1="288.481" y1="712.999" x2="947.592" y2="1048.83" gradientUnits="userSpaceOnUse">
<stop stop-color="#FF9618"/>
<stop offset="1" stop-color="#3DAEEE"/>
</linearGradient>
<linearGradient id="paint43_linear_531_134024" x1="279.88" y1="699.457" x2="911.526" y2="1064.14" gradientUnits="userSpaceOnUse">
<stop stop-color="#FF9618"/>
<stop offset="1" stop-color="#3DAEEE"/>
</linearGradient>
<linearGradient id="paint44_linear_531_134024" x1="271.851" y1="686.85" x2="874.845" y2="1078.44" gradientUnits="userSpaceOnUse">
<stop stop-color="#FF9618"/>
<stop offset="1" stop-color="#3DAEEE"/>
</linearGradient>
<linearGradient id="paint45_linear_531_134024" x1="264.333" y1="675.199" x2="837.613" y2="1091.71" gradientUnits="userSpaceOnUse">
<stop stop-color="#FF9618"/>
<stop offset="1" stop-color="#3DAEEE"/>
</linearGradient>
<linearGradient id="paint46_linear_531_134024" x1="257.266" y1="664.522" x2="799.898" y2="1103.94" gradientUnits="userSpaceOnUse">
<stop stop-color="#FF9618"/>
<stop offset="1" stop-color="#3DAEEE"/>
</linearGradient>
<linearGradient id="paint47_linear_531_134024" x1="250.586" y1="654.832" x2="761.767" y2="1115.1" gradientUnits="userSpaceOnUse">
<stop stop-color="#FF9618"/>
<stop offset="1" stop-color="#3DAEEE"/>
</linearGradient>
<linearGradient id="paint48_linear_531_134024" x1="244.231" y1="646.139" x2="723.287" y2="1125.19" gradientUnits="userSpaceOnUse">
<stop stop-color="#FF9618"/>
<stop offset="1" stop-color="#3DAEEE"/>
</linearGradient>
<linearGradient id="paint49_linear_531_134024" x1="238.138" y1="638.448" x2="684.523" y2="1134.21" gradientUnits="userSpaceOnUse">
<stop stop-color="#FF9618"/>
<stop offset="1" stop-color="#3DAEEE"/>
</linearGradient>
<linearGradient id="paint50_linear_531_134024" x1="232.246" y1="631.763" x2="645.545" y2="1142.14" gradientUnits="userSpaceOnUse">
<stop stop-color="#FF9618"/>
<stop offset="1" stop-color="#3DAEEE"/>
</linearGradient>
<linearGradient id="paint51_linear_531_134024" x1="226.494" y1="626.081" x2="606.416" y2="1149" gradientUnits="userSpaceOnUse">
<stop stop-color="#FF9618"/>
<stop offset="1" stop-color="#3DAEEE"/>
</linearGradient>
<linearGradient id="paint52_linear_531_134024" x1="220.82" y1="621.398" x2="567.203" y2="1154.78" gradientUnits="userSpaceOnUse">
<stop stop-color="#FF9618"/>
<stop offset="1" stop-color="#3DAEEE"/>
</linearGradient>
<linearGradient id="paint53_linear_531_134024" x1="215.164" y1="617.704" x2="527.971" y2="1159.5" gradientUnits="userSpaceOnUse">
<stop stop-color="#FF9618"/>
<stop offset="1" stop-color="#3DAEEE"/>
</linearGradient>
<linearGradient id="paint54_linear_531_134024" x1="209.469" y1="614.988" x2="488.781" y2="1163.17" gradientUnits="userSpaceOnUse">
<stop stop-color="#FF9618"/>
<stop offset="1" stop-color="#3DAEEE"/>
</linearGradient>
<linearGradient id="paint55_linear_531_134024" x1="203.675" y1="613.233" x2="449.695" y2="1165.8" gradientUnits="userSpaceOnUse">
<stop stop-color="#FF9618"/>
<stop offset="1" stop-color="#3DAEEE"/>
</linearGradient>
<linearGradient id="paint56_linear_531_134024" x1="197.73" y1="612.421" x2="410.775" y2="1167.42" gradientUnits="userSpaceOnUse">
<stop stop-color="#FF9618"/>
<stop offset="1" stop-color="#3DAEEE"/>
</linearGradient>
<linearGradient id="paint57_linear_531_134024" x1="191.577" y1="612.53" x2="372.077" y2="1168.05" gradientUnits="userSpaceOnUse">
<stop stop-color="#FF9618"/>
<stop offset="1" stop-color="#3DAEEE"/>
</linearGradient>
<linearGradient id="paint58_linear_531_134024" x1="185.164" y1="613.534" x2="333.658" y2="1167.72" gradientUnits="userSpaceOnUse">
<stop stop-color="#FF9618"/>
<stop offset="1" stop-color="#3DAEEE"/>
</linearGradient>
<linearGradient id="paint59_linear_531_134024" x1="178.442" y1="615.406" x2="295.572" y2="1166.46" gradientUnits="userSpaceOnUse">
<stop stop-color="#FF9618"/>
<stop offset="1" stop-color="#3DAEEE"/>
</linearGradient>
<linearGradient id="paint60_linear_531_134024" x1="171.363" y1="618.114" x2="257.869" y2="1164.29" gradientUnits="userSpaceOnUse">
<stop stop-color="#FF9618"/>
<stop offset="1" stop-color="#3DAEEE"/>
</linearGradient>
<linearGradient id="paint61_linear_531_134024" x1="163.881" y1="621.626" x2="220.599" y2="1161.27" gradientUnits="userSpaceOnUse">
<stop stop-color="#FF9618"/>
<stop offset="1" stop-color="#3DAEEE"/>
</linearGradient>
<linearGradient id="paint62_linear_531_134024" x1="155.954" y1="625.905" x2="183.809" y2="1157.41" gradientUnits="userSpaceOnUse">
<stop stop-color="#FF9618"/>
<stop offset="1" stop-color="#3DAEEE"/>
</linearGradient>
<linearGradient id="paint63_linear_531_134024" x1="147.541" y1="630.914" x2="147.541" y2="1152.78" gradientUnits="userSpaceOnUse">
<stop stop-color="#FF9618"/>
<stop offset="1" stop-color="#3DAEEE"/>
</linearGradient>
<linearGradient id="paint64_linear_531_134024" x1="138.604" y1="636.612" x2="111.835" y2="1147.4" gradientUnits="userSpaceOnUse">
<stop stop-color="#FF9618"/>
<stop offset="1" stop-color="#3DAEEE"/>
</linearGradient>
<linearGradient id="paint65_linear_531_134024" x1="129.11" y1="642.958" x2="76.7291" y2="1141.33" gradientUnits="userSpaceOnUse">
<stop stop-color="#FF9618"/>
<stop offset="1" stop-color="#3DAEEE"/>
</linearGradient>
<linearGradient id="paint66_linear_531_134024" x1="119.025" y1="649.907" x2="42.2571" y2="1134.6" gradientUnits="userSpaceOnUse">
<stop stop-color="#FF9618"/>
<stop offset="1" stop-color="#3DAEEE"/>
</linearGradient>
<linearGradient id="paint67_linear_531_134024" x1="108.323" y1="657.415" x2="8.44989" y2="1127.28" gradientUnits="userSpaceOnUse">
<stop stop-color="#FF9618"/>
<stop offset="1" stop-color="#3DAEEE"/>
</linearGradient>
<linearGradient id="paint68_linear_531_134024" x1="96.9761" y1="665.434" x2="-24.6656" y2="1119.41" gradientUnits="userSpaceOnUse">
<stop stop-color="#FF9618"/>
<stop offset="1" stop-color="#3DAEEE"/>
</linearGradient>
</defs>
</svg>
