<svg version="1.2" xmlns="http://www.w3.org/2000/svg" viewBox="0 0 1440 879" width="1440" height="879">
	<title>about-vector-svg</title>
	<defs>
		<linearGradient id="g1" x1="1611.9" y1="1419.2" x2="1428" y2="258.2" gradientUnits="userSpaceOnUse">
			<stop offset="0" stop-color="#9747ff" />
			<stop offset="1" stop-color="#3daeee" />
		</linearGradient>
		<linearGradient id="g2" x1="1560.2" y1="1418.5" x2="1438.4" y2="259.8" gradientUnits="userSpaceOnUse">
			<stop offset="0" stop-color="#9747ff" />
			<stop offset="1" stop-color="#3daeee" />
		</linearGradient>
		<linearGradient id="g3" x1="1508.7" y1="1416.2" x2="1448.3" y2="263" gradientUnits="userSpaceOnUse">
			<stop offset="0" stop-color="#9747ff" />
			<stop offset="1" stop-color="#3daeee" />
		</linearGradient>
		<linearGradient id="g4" x1="1457.8" y1="1412.3" x2="1457.8" y2="267.9" gradientUnits="userSpaceOnUse">
			<stop offset="0" stop-color="#9747ff" />
			<stop offset="1" stop-color="#3daeee" />
		</linearGradient>
		<linearGradient id="g5" x1="1407.3" y1="1406.9" x2="1466.7" y2="274.5" gradientUnits="userSpaceOnUse">
			<stop offset="0" stop-color="#9747ff" />
			<stop offset="1" stop-color="#3daeee" />
		</linearGradient>
		<linearGradient id="g6" x1="1357.5" y1="1400.1" x2="1474.9" y2="282.6" gradientUnits="userSpaceOnUse">
			<stop offset="0" stop-color="#9747ff" />
			<stop offset="1" stop-color="#3daeee" />
		</linearGradient>
		<linearGradient id="g7" x1="1308.3" y1="1391.8" x2="1482.5" y2="292.2" gradientUnits="userSpaceOnUse">
			<stop offset="0" stop-color="#9747ff" />
			<stop offset="1" stop-color="#3daeee" />
		</linearGradient>
		<linearGradient id="g8" x1="1259.9" y1="1382.1" x2="1489.2" y2="303.4" gradientUnits="userSpaceOnUse">
			<stop offset="0" stop-color="#9747ff" />
			<stop offset="1" stop-color="#3daeee" />
		</linearGradient>
		<linearGradient id="g9" x1="1212.3" y1="1371.2" x2="1495.1" y2="315.9" gradientUnits="userSpaceOnUse">
			<stop offset="0" stop-color="#9747ff" />
			<stop offset="1" stop-color="#3daeee" />
		</linearGradient>
		<linearGradient id="g10" x1="1165.6" y1="1358.9" x2="1500" y2="329.8" gradientUnits="userSpaceOnUse">
			<stop offset="0" stop-color="#9747ff" />
			<stop offset="1" stop-color="#3daeee" />
		</linearGradient>
		<linearGradient id="g11" x1="1119.8" y1="1345.5" x2="1503.9" y2="345" gradientUnits="userSpaceOnUse">
			<stop offset="0" stop-color="#9747ff" />
			<stop offset="1" stop-color="#3daeee" />
		</linearGradient>
		<linearGradient id="g12" x1="1075" y1="1330.9" x2="1506.7" y2="361.4" gradientUnits="userSpaceOnUse">
			<stop offset="0" stop-color="#9747ff" />
			<stop offset="1" stop-color="#3daeee" />
		</linearGradient>
		<linearGradient id="g13" x1="1031.3" y1="1315.3" x2="1508.4" y2="378.9" gradientUnits="userSpaceOnUse">
			<stop offset="0" stop-color="#9747ff" />
			<stop offset="1" stop-color="#3daeee" />
		</linearGradient>
		<linearGradient id="g14" x1="988.7" y1="1298.7" x2="1509" y2="397.5" gradientUnits="userSpaceOnUse">
			<stop offset="0" stop-color="#9747ff" />
			<stop offset="1" stop-color="#3daeee" />
		</linearGradient>
		<linearGradient id="g15" x1="947.2" y1="1281.2" x2="1508.3" y2="417.1" gradientUnits="userSpaceOnUse">
			<stop offset="0" stop-color="#9747ff" />
			<stop offset="1" stop-color="#3daeee" />
		</linearGradient>
		<linearGradient id="g16" x1="906.8" y1="1262.8" x2="1506.3" y2="437.7" gradientUnits="userSpaceOnUse">
			<stop offset="0" stop-color="#9747ff" />
			<stop offset="1" stop-color="#3daeee" />
		</linearGradient>
		<linearGradient id="g17" x1="867.7" y1="1243.6" x2="1503" y2="459" gradientUnits="userSpaceOnUse">
			<stop offset="0" stop-color="#9747ff" />
			<stop offset="1" stop-color="#3daeee" />
		</linearGradient>
		<linearGradient id="g18" x1="829.9" y1="1223.7" x2="1498.4" y2="481.2" gradientUnits="userSpaceOnUse">
			<stop offset="0" stop-color="#9747ff" />
			<stop offset="1" stop-color="#3daeee" />
		</linearGradient>
		<linearGradient id="g19" x1="793.3" y1="1203.1" x2="1492.4" y2="504" gradientUnits="userSpaceOnUse">
			<stop offset="0" stop-color="#9747ff" />
			<stop offset="1" stop-color="#3daeee" />
		</linearGradient>
		<linearGradient id="g20" x1="758" y1="1182.1" x2="1485.1" y2="527.4" gradientUnits="userSpaceOnUse">
			<stop offset="0" stop-color="#9747ff" />
			<stop offset="1" stop-color="#3daeee" />
		</linearGradient>
		<linearGradient id="g21" x1="724" y1="1160.5" x2="1476.3" y2="551.3" gradientUnits="userSpaceOnUse">
			<stop offset="0" stop-color="#9747ff" />
			<stop offset="1" stop-color="#3daeee" />
		</linearGradient>
		<linearGradient id="g22" x1="691.3" y1="1138.5" x2="1466.1" y2="575.7" gradientUnits="userSpaceOnUse">
			<stop offset="0" stop-color="#9747ff" />
			<stop offset="1" stop-color="#3daeee" />
		</linearGradient>
		<linearGradient id="g23" x1="660" y1="1116.3" x2="1454.4" y2="600.4" gradientUnits="userSpaceOnUse">
			<stop offset="0" stop-color="#9747ff" />
			<stop offset="1" stop-color="#3daeee" />
		</linearGradient>
		<linearGradient id="g24" x1="630" y1="1093.8" x2="1441.4" y2="625.3" gradientUnits="userSpaceOnUse">
			<stop offset="0" stop-color="#9747ff" />
			<stop offset="1" stop-color="#3daeee" />
		</linearGradient>
		<linearGradient id="g25" x1="601.4" y1="1071.1" x2="1426.9" y2="650.5" gradientUnits="userSpaceOnUse">
			<stop offset="0" stop-color="#9747ff" />
			<stop offset="1" stop-color="#3daeee" />
		</linearGradient>
		<linearGradient id="g26" x1="574" y1="1048.3" x2="1410.9" y2="675.7" gradientUnits="userSpaceOnUse">
			<stop offset="0" stop-color="#9747ff" />
			<stop offset="1" stop-color="#3daeee" />
		</linearGradient>
		<linearGradient id="g27" x1="548" y1="1025.5" x2="1393.6" y2="700.9" gradientUnits="userSpaceOnUse">
			<stop offset="0" stop-color="#9747ff" />
			<stop offset="1" stop-color="#3daeee" />
		</linearGradient>
		<linearGradient id="g28" x1="523.3" y1="1002.8" x2="1374.8" y2="726.1" gradientUnits="userSpaceOnUse">
			<stop offset="0" stop-color="#9747ff" />
			<stop offset="1" stop-color="#3daeee" />
		</linearGradient>
		<linearGradient id="g29" x1="499.9" y1="980.2" x2="1354.7" y2="751.1" gradientUnits="userSpaceOnUse">
			<stop offset="0" stop-color="#9747ff" />
			<stop offset="1" stop-color="#3daeee" />
		</linearGradient>
		<linearGradient id="g30" x1="477.7" y1="957.8" x2="1333.2" y2="776" gradientUnits="userSpaceOnUse">
			<stop offset="0" stop-color="#9747ff" />
			<stop offset="1" stop-color="#3daeee" />
		</linearGradient>
		<linearGradient id="g31" x1="456.8" y1="935.7" x2="1310.4" y2="800.5" gradientUnits="userSpaceOnUse">
			<stop offset="0" stop-color="#9747ff" />
			<stop offset="1" stop-color="#3daeee" />
		</linearGradient>
		<linearGradient id="g32" x1="437.1" y1="913.9" x2="1286.3" y2="824.6" gradientUnits="userSpaceOnUse">
			<stop offset="0" stop-color="#9747ff" />
			<stop offset="1" stop-color="#3daeee" />
		</linearGradient>
		<linearGradient id="g33" x1="418.6" y1="892.5" x2="1260.9" y2="848.4" gradientUnits="userSpaceOnUse">
			<stop offset="0" stop-color="#9747ff" />
			<stop offset="1" stop-color="#3daeee" />
		</linearGradient>
		<linearGradient id="g34" x1="401.2" y1="871.6" x2="1234.3" y2="871.6" gradientUnits="userSpaceOnUse">
			<stop offset="0" stop-color="#9747ff" />
			<stop offset="1" stop-color="#3daeee" />
		</linearGradient>
		<linearGradient id="g35" x1="384.9" y1="851.2" x2="1206.5" y2="894.3" gradientUnits="userSpaceOnUse">
			<stop offset="0" stop-color="#9747ff" />
			<stop offset="1" stop-color="#3daeee" />
		</linearGradient>
		<linearGradient id="g36" x1="369.6" y1="831.4" x2="1177.5" y2="916.3" gradientUnits="userSpaceOnUse">
			<stop offset="0" stop-color="#9747ff" />
			<stop offset="1" stop-color="#3daeee" />
		</linearGradient>
		<linearGradient id="g37" x1="355.4" y1="812.2" x2="1147.5" y2="937.7" gradientUnits="userSpaceOnUse">
			<stop offset="0" stop-color="#9747ff" />
			<stop offset="1" stop-color="#3daeee" />
		</linearGradient>
		<linearGradient id="g38" x1="342.1" y1="793.7" x2="1116.5" y2="958.3" gradientUnits="userSpaceOnUse">
			<stop offset="0" stop-color="#9747ff" />
			<stop offset="1" stop-color="#3daeee" />
		</linearGradient>
		<linearGradient id="g39" x1="329.8" y1="776" x2="1084.4" y2="978.2" gradientUnits="userSpaceOnUse">
			<stop offset="0" stop-color="#9747ff" />
			<stop offset="1" stop-color="#3daeee" />
		</linearGradient>
		<linearGradient id="g40" x1="318.3" y1="759" x2="1051.5" y2="997.2" gradientUnits="userSpaceOnUse">
			<stop offset="0" stop-color="#9747ff" />
			<stop offset="1" stop-color="#3daeee" />
		</linearGradient>
		<linearGradient id="g41" x1="307.6" y1="742.8" x2="1017.6" y2="1015.3" gradientUnits="userSpaceOnUse">
			<stop offset="0" stop-color="#9747ff" />
			<stop offset="1" stop-color="#3daeee" />
		</linearGradient>
		<linearGradient id="g42" x1="297.7" y1="727.5" x2="983" y2="1032.5" gradientUnits="userSpaceOnUse">
			<stop offset="0" stop-color="#9747ff" />
			<stop offset="1" stop-color="#3daeee" />
		</linearGradient>
		<linearGradient id="g43" x1="288.5" y1="713" x2="947.6" y2="1048.8" gradientUnits="userSpaceOnUse">
			<stop offset="0" stop-color="#9747ff" />
			<stop offset="1" stop-color="#3daeee" />
		</linearGradient>
		<linearGradient id="g44" x1="279.9" y1="699.5" x2="911.5" y2="1064.1" gradientUnits="userSpaceOnUse">
			<stop offset="0" stop-color="#9747ff" />
			<stop offset="1" stop-color="#3daeee" />
		</linearGradient>
		<linearGradient id="g45" x1="271.9" y1="686.8" x2="874.8" y2="1078.4" gradientUnits="userSpaceOnUse">
			<stop offset="0" stop-color="#9747ff" />
			<stop offset="1" stop-color="#3daeee" />
		</linearGradient>
		<linearGradient id="g46" x1="264.3" y1="675.2" x2="837.6" y2="1091.7" gradientUnits="userSpaceOnUse">
			<stop offset="0" stop-color="#9747ff" />
			<stop offset="1" stop-color="#3daeee" />
		</linearGradient>
		<linearGradient id="g47" x1="257.3" y1="664.5" x2="799.9" y2="1103.9" gradientUnits="userSpaceOnUse">
			<stop offset="0" stop-color="#9747ff" />
			<stop offset="1" stop-color="#3daeee" />
		</linearGradient>
		<linearGradient id="g48" x1="250.6" y1="654.8" x2="761.8" y2="1115.1" gradientUnits="userSpaceOnUse">
			<stop offset="0" stop-color="#9747ff" />
			<stop offset="1" stop-color="#3daeee" />
		</linearGradient>
		<linearGradient id="g49" x1="244.2" y1="646.1" x2="723.3" y2="1125.2" gradientUnits="userSpaceOnUse">
			<stop offset="0" stop-color="#9747ff" />
			<stop offset="1" stop-color="#3daeee" />
		</linearGradient>
		<linearGradient id="g50" x1="238.1" y1="638.4" x2="684.5" y2="1134.2" gradientUnits="userSpaceOnUse">
			<stop offset="0" stop-color="#9747ff" />
			<stop offset="1" stop-color="#3daeee" />
		</linearGradient>
		<linearGradient id="g51" x1="232.2" y1="631.8" x2="645.5" y2="1142.1" gradientUnits="userSpaceOnUse">
			<stop offset="0" stop-color="#9747ff" />
			<stop offset="1" stop-color="#3daeee" />
		</linearGradient>
		<linearGradient id="g52" x1="226.5" y1="626.1" x2="606.4" y2="1149" gradientUnits="userSpaceOnUse">
			<stop offset="0" stop-color="#9747ff" />
			<stop offset="1" stop-color="#3daeee" />
		</linearGradient>
		<linearGradient id="g53" x1="220.8" y1="621.4" x2="567.2" y2="1154.8" gradientUnits="userSpaceOnUse">
			<stop offset="0" stop-color="#9747ff" />
			<stop offset="1" stop-color="#3daeee" />
		</linearGradient>
		<linearGradient id="g54" x1="215.2" y1="617.7" x2="528" y2="1159.5" gradientUnits="userSpaceOnUse">
			<stop offset="0" stop-color="#9747ff" />
			<stop offset="1" stop-color="#3daeee" />
		</linearGradient>
		<linearGradient id="g55" x1="209.5" y1="615" x2="488.8" y2="1163.2" gradientUnits="userSpaceOnUse">
			<stop offset="0" stop-color="#9747ff" />
			<stop offset="1" stop-color="#3daeee" />
		</linearGradient>
		<linearGradient id="g56" x1="203.7" y1="613.2" x2="449.7" y2="1165.8" gradientUnits="userSpaceOnUse">
			<stop offset="0" stop-color="#9747ff" />
			<stop offset="1" stop-color="#3daeee" />
		</linearGradient>
		<linearGradient id="g57" x1="197.7" y1="612.4" x2="410.8" y2="1167.4" gradientUnits="userSpaceOnUse">
			<stop offset="0" stop-color="#9747ff" />
			<stop offset="1" stop-color="#3daeee" />
		</linearGradient>
		<linearGradient id="g58" x1="191.6" y1="612.5" x2="372.1" y2="1168" gradientUnits="userSpaceOnUse">
			<stop offset="0" stop-color="#9747ff" />
			<stop offset="1" stop-color="#3daeee" />
		</linearGradient>
		<linearGradient id="g59" x1="185.2" y1="613.5" x2="333.7" y2="1167.7" gradientUnits="userSpaceOnUse">
			<stop offset="0" stop-color="#9747ff" />
			<stop offset="1" stop-color="#3daeee" />
		</linearGradient>
		<linearGradient id="g60" x1="178.4" y1="615.4" x2="295.6" y2="1166.5" gradientUnits="userSpaceOnUse">
			<stop offset="0" stop-color="#9747ff" />
			<stop offset="1" stop-color="#3daeee" />
		</linearGradient>
		<linearGradient id="g61" x1="171.4" y1="618.1" x2="257.9" y2="1164.3" gradientUnits="userSpaceOnUse">
			<stop offset="0" stop-color="#9747ff" />
			<stop offset="1" stop-color="#3daeee" />
		</linearGradient>
		<linearGradient id="g62" x1="163.9" y1="621.6" x2="220.6" y2="1161.3" gradientUnits="userSpaceOnUse">
			<stop offset="0" stop-color="#9747ff" />
			<stop offset="1" stop-color="#3daeee" />
		</linearGradient>
		<linearGradient id="g63" x1="156" y1="625.9" x2="183.8" y2="1157.4" gradientUnits="userSpaceOnUse">
			<stop offset="0" stop-color="#9747ff" />
			<stop offset="1" stop-color="#3daeee" />
		</linearGradient>
		<linearGradient id="g64" x1="147.5" y1="630.9" x2="147.5" y2="1152.8" gradientUnits="userSpaceOnUse">
			<stop offset="0" stop-color="#9747ff" />
			<stop offset="1" stop-color="#3daeee" />
		</linearGradient>
		<linearGradient id="g65" x1="138.6" y1="636.6" x2="111.8" y2="1147.4" gradientUnits="userSpaceOnUse">
			<stop offset="0" stop-color="#9747ff" />
			<stop offset="1" stop-color="#3daeee" />
		</linearGradient>
		<linearGradient id="g66" x1="129.1" y1="643" x2="76.7" y2="1141.3" gradientUnits="userSpaceOnUse">
			<stop offset="0" stop-color="#9747ff" />
			<stop offset="1" stop-color="#3daeee" />
		</linearGradient>
		<linearGradient id="g67" x1="119" y1="649.9" x2="42.3" y2="1134.6" gradientUnits="userSpaceOnUse">
			<stop offset="0" stop-color="#9747ff" />
			<stop offset="1" stop-color="#3daeee" />
		</linearGradient>
		<linearGradient id="g68" x1="108.3" y1="657.4" x2="8.4" y2="1127.3" gradientUnits="userSpaceOnUse">
			<stop offset="0" stop-color="#9747ff" />
			<stop offset="1" stop-color="#3daeee" />
		</linearGradient>
		<linearGradient id="g69" x1="97" y1="665.4" x2="-24.7" y2="1119.4" gradientUnits="userSpaceOnUse">
			<stop offset="0" stop-color="#9747ff" />
			<stop offset="1" stop-color="#3daeee" />
		</linearGradient>
	</defs>
	<style>
		.s0 {
			opacity: 0;
			fill: none;
			stroke: url(#g1);
			stroke-width: 4
		}

		.s1 {
			opacity: 0;
			fill: none;
			stroke: url(#g2);
			stroke-width: 4
		}

		.s2 {
			opacity: 0;
			fill: none;
			stroke: url(#g3);
			stroke-width: 4
		}

		.s3 {
			opacity: .1;
			fill: none;
			stroke: url(#g4);
			stroke-width: 4
		}

		.s4 {
			opacity: .1;
			fill: none;
			stroke: url(#g5);
			stroke-width: 4
		}

		.s5 {
			opacity: .1;
			fill: none;
			stroke: url(#g6);
			stroke-width: 4
		}

		.s6 {
			opacity: .1;
			fill: none;
			stroke: url(#g7);
			stroke-width: 4
		}

		.s7 {
			opacity: .1;
			fill: none;
			stroke: url(#g8);
			stroke-width: 4
		}

		.s8 {
			opacity: .1;
			fill: none;
			stroke: url(#g9);
			stroke-width: 4
		}

		.s9 {
			opacity: .1;
			fill: none;
			stroke: url(#g10);
			stroke-width: 4
		}

		.s10 {
			opacity: .2;
			fill: none;
			stroke: url(#g11);
			stroke-width: 4
		}

		.s11 {
			opacity: .2;
			fill: none;
			stroke: url(#g12);
			stroke-width: 4
		}

		.s12 {
			opacity: .2;
			fill: none;
			stroke: url(#g13);
			stroke-width: 4
		}

		.s13 {
			opacity: .2;
			fill: none;
			stroke: url(#g14);
			stroke-width: 4
		}

		.s14 {
			opacity: .2;
			fill: none;
			stroke: url(#g15);
			stroke-width: 4
		}

		.s15 {
			opacity: .2;
			fill: none;
			stroke: url(#g16);
			stroke-width: 4
		}

		.s16 {
			opacity: .2;
			fill: none;
			stroke: url(#g17);
			stroke-width: 4
		}

		.s17 {
			opacity: .3;
			fill: none;
			stroke: url(#g18);
			stroke-width: 4
		}

		.s18 {
			opacity: .3;
			fill: none;
			stroke: url(#g19);
			stroke-width: 4
		}

		.s19 {
			opacity: .3;
			fill: none;
			stroke: url(#g20);
			stroke-width: 4
		}

		.s20 {
			opacity: .3;
			fill: none;
			stroke: url(#g21);
			stroke-width: 4
		}

		.s21 {
			opacity: .3;
			fill: none;
			stroke: url(#g22);
			stroke-width: 4
		}

		.s22 {
			opacity: .3;
			fill: none;
			stroke: url(#g23);
			stroke-width: 4
		}

		.s23 {
			opacity: .3;
			fill: none;
			stroke: url(#g24);
			stroke-width: 4
		}

		.s24 {
			opacity: .4;
			fill: none;
			stroke: url(#g25);
			stroke-width: 4
		}

		.s25 {
			opacity: .4;
			fill: none;
			stroke: url(#g26);
			stroke-width: 4
		}

		.s26 {
			opacity: .4;
			fill: none;
			stroke: url(#g27);
			stroke-width: 4
		}

		.s27 {
			opacity: .4;
			fill: none;
			stroke: url(#g28);
			stroke-width: 4
		}

		.s28 {
			opacity: .4;
			fill: none;
			stroke: url(#g29);
			stroke-width: 4
		}

		.s29 {
			opacity: .4;
			fill: none;
			stroke: url(#g30);
			stroke-width: 4
		}

		.s30 {
			opacity: .5;
			fill: none;
			stroke: url(#g31);
			stroke-width: 4
		}

		.s31 {
			opacity: .5;
			fill: none;
			stroke: url(#g32);
			stroke-width: 4
		}

		.s32 {
			opacity: .5;
			fill: none;
			stroke: url(#g33);
			stroke-width: 4
		}

		.s33 {
			opacity: .5;
			fill: none;
			stroke: url(#g34);
			stroke-width: 4
		}

		.s34 {
			opacity: .5;
			fill: none;
			stroke: url(#g35);
			stroke-width: 4
		}

		.s35 {
			opacity: .5;
			fill: none;
			stroke: url(#g36);
			stroke-width: 4
		}

		.s36 {
			opacity: .5;
			fill: none;
			stroke: url(#g37);
			stroke-width: 4
		}

		.s37 {
			opacity: .5;
			fill: none;
			stroke: url(#g38);
			stroke-width: 4
		}

		.s38 {
			opacity: .6;
			fill: none;
			stroke: url(#g39);
			stroke-width: 4
		}

		.s39 {
			opacity: .6;
			fill: none;
			stroke: url(#g40);
			stroke-width: 4
		}

		.s40 {
			opacity: .6;
			fill: none;
			stroke: url(#g41);
			stroke-width: 4
		}

		.s41 {
			opacity: .6;
			fill: none;
			stroke: url(#g42);
			stroke-width: 4
		}

		.s42 {
			opacity: .6;
			fill: none;
			stroke: url(#g43);
			stroke-width: 4
		}

		.s43 {
			opacity: .6;
			fill: none;
			stroke: url(#g44);
			stroke-width: 4
		}

		.s44 {
			opacity: .7;
			fill: none;
			stroke: url(#g45);
			stroke-width: 4
		}

		.s45 {
			opacity: .7;
			fill: none;
			stroke: url(#g46);
			stroke-width: 4
		}

		.s46 {
			opacity: .7;
			fill: none;
			stroke: url(#g47);
			stroke-width: 4
		}

		.s47 {
			opacity: .7;
			fill: none;
			stroke: url(#g48);
			stroke-width: 4
		}

		.s48 {
			opacity: .7;
			fill: none;
			stroke: url(#g49);
			stroke-width: 4
		}

		.s49 {
			opacity: .7;
			fill: none;
			stroke: url(#g50);
			stroke-width: 4
		}

		.s50 {
			opacity: .7;
			fill: none;
			stroke: url(#g51);
			stroke-width: 4
		}

		.s51 {
			opacity: .8;
			fill: none;
			stroke: url(#g52);
			stroke-width: 4
		}

		.s52 {
			opacity: .8;
			fill: none;
			stroke: url(#g53);
			stroke-width: 4
		}

		.s53 {
			opacity: .8;
			fill: none;
			stroke: url(#g54);
			stroke-width: 4
		}

		.s54 {
			opacity: .8;
			fill: none;
			stroke: url(#g55);
			stroke-width: 4
		}

		.s55 {
			opacity: .8;
			fill: none;
			stroke: url(#g56);
			stroke-width: 4
		}

		.s56 {
			opacity: .8;
			fill: none;
			stroke: url(#g57);
			stroke-width: 4
		}

		.s57 {
			opacity: .8;
			fill: none;
			stroke: url(#g58);
			stroke-width: 4
		}

		.s58 {
			opacity: .9;
			fill: none;
			stroke: url(#g59);
			stroke-width: 4
		}

		.s59 {
			opacity: .9;
			fill: none;
			stroke: url(#g60);
			stroke-width: 4
		}

		.s60 {
			opacity: .9;
			fill: none;
			stroke: url(#g61);
			stroke-width: 4
		}

		.s61 {
			opacity: .9;
			fill: none;
			stroke: url(#g62);
			stroke-width: 4
		}

		.s62 {
			opacity: .9;
			fill: none;
			stroke: url(#g63);
			stroke-width: 4
		}

		.s63 {
			opacity: .9;
			fill: none;
			stroke: url(#g64);
			stroke-width: 4
		}

		.s64 {
			opacity: .9;
			fill: none;
			stroke: url(#g65);
			stroke-width: 4
		}

		.s65 {
			opacity: 1;
			fill: none;
			stroke: url(#g66);
			stroke-width: 4
		}

		.s66 {
			opacity: 1;
			fill: none;
			stroke: url(#g67);
			stroke-width: 4
		}

		.s67 {
			opacity: 1;
			fill: none;
			stroke: url(#g68);
			stroke-width: 4
		}

		.s68 {
			fill: none;
			stroke: url(#g69);
			stroke-width: 4
		}
	</style>
	<g id="Looper BG">
		<path id="Polygon 1_68" class="s0"
			d="m1596.2 1408.7l-287.5-152.7c-5.4-2.9-9.4-7.7-11.2-13.5l-138.7-445c-1.4-4.6-1.4-9.4 0.1-14l126.4-388.1c2.6-8.2 9.7-14.3 18.2-15.6l280.5-44.4c8.5-1.4 17.1 2.2 22.2 9.1l240.1 330.2c2.8 3.8 4.4 8.4 4.4 13.2l5.6 466.1c0.1 6-2.2 11.9-6.4 16.2l-226.4 234.1c-7.1 7.4-18.2 9.2-27.3 4.4z" />
		<path id="Polygon 1_67" class="s1"
			d="m1545.1 1407.2l-277.5-165.9c-5.2-3.1-9-8.2-10.5-14.1l-114.3-447.4c-1.2-4.6-0.9-9.5 0.8-14l145.8-377.5c3.1-8.1 10.4-13.7 19-14.6l280.7-29.5c8.6-0.9 17 3.1 21.7 10.3l221.1 339c2.6 4 3.9 8.7 3.7 13.5l-18.8 461.4c-0.3 6.1-2.9 11.8-7.3 15.9l-237 220c-7.5 6.9-18.6 8.1-27.4 2.9z" />
		<path id="Polygon 1_66" class="s2"
			d="m1494.3 1404.1l-266.7-178.4c-5.1-3.4-8.6-8.6-9.8-14.6l-90.1-448.6c-1-4.7-0.4-9.6 1.5-13.9l164.4-366c3.6-7.9 11.2-13.1 19.8-13.5l280.2-14.7c8.6-0.5 16.7 3.9 21.1 11.4l201.7 346.8c2.4 4.1 3.5 8.9 3 13.7l-42.7 455.5c-0.6 6.1-3.6 11.6-8.2 15.5l-246.7 205.4c-7.8 6.5-19 7.1-27.5 1.4z" />
		<path id="Polygon 1_65" class="s3"
			d="m1444 1399.6l-255.5-190.4c-4.8-3.6-8.1-9-9-15.1l-66.1-448.4c-0.7-4.7 0.1-9.6 2.3-13.9l182.2-353.4c3.9-7.7 11.8-12.5 20.4-12.5h278.9c8.6 0 16.5 4.8 20.5 12.5l182.2 353.4c2.2 4.3 3 9.2 2.3 13.9l-66.2 448.4c-0.8 6.1-4.1 11.5-9 15.1l-255.5 190.4c-8.1 6-19.3 6-27.5 0z" />
		<path id="Polygon 1_64" class="s4"
			d="m1394.3 1393.5l-243.7-201.5c-4.7-3.9-7.7-9.5-8.3-15.6l-42.4-446.9c-0.4-4.8 0.6-9.7 3.1-13.8l199.2-340.2c4.3-7.4 12.4-11.8 21-11.3l276.8 14.5c8.6 0.4 16.2 5.7 19.8 13.5l162.5 359.1c2 4.4 2.5 9.3 1.6 14l-88.9 440.1c-1.2 6-4.8 11.2-9.8 14.6l-263.5 175c-8.4 5.6-19.6 5-27.4-1.5z" />
		<path id="Polygon 1_63" class="s5"
			d="m1345.2 1386.1l-231.5-212.1c-4.5-4.1-7.2-9.9-7.4-16l-19-444.2c-0.2-4.9 1.1-9.7 3.7-13.7l215.3-326c4.7-7.2 13.1-11.1 21.6-10.2l274 28.8c8.5 0.9 15.9 6.5 19 14.5l142.8 363.6c1.7 4.5 2 9.5 0.8 14.1l-111 430.6c-1.5 6-5.3 11-10.6 14.1l-270.5 159.3c-8.7 5.2-19.7 4-27.2-2.8z" />
		<path id="Polygon 1_62" class="s6"
			d="m1296.8 1377.2l-218.8-221.8c-4.3-4.4-6.7-10.3-6.6-16.4l4-440.4c0-4.8 1.6-9.5 4.5-13.4l230.4-311.2c5.1-6.8 13.6-10.3 22-9l270.5 42.8c8.5 1.4 15.5 7.3 18.2 15.5l123 367c1.5 4.7 1.6 9.6 0.1 14.3l-132.3 420c-1.8 5.8-5.9 10.7-11.3 13.5l-276.7 143.4c-9 4.7-19.9 2.9-27-4.3z" />
		<path id="Polygon 1_61" class="s7"
			d="m1249.2 1367.1l-205.8-230.9c-4-4.6-6.1-10.6-5.7-16.7l26.5-435.3c0.3-4.9 2.1-9.5 5.2-13.3l244.6-295.6c5.4-6.6 14.1-9.6 22.5-7.8l266.2 56.6c8.3 1.8 15 8 17.3 16.3l103.2 369.5c1.3 4.7 1.1 9.7-0.6 14.2l-152.8 408.5c-2.1 5.7-6.5 10.4-12.1 12.9l-281.9 127.2c-9.1 4.2-19.9 1.9-26.6-5.6z" />
		<path id="Polygon 1_60" class="s8"
			d="m1202.4 1355.7l-192.4-239.3c-3.8-4.7-5.6-10.9-4.9-17l48.6-429.1c0.5-4.8 2.6-9.4 5.9-13l257.8-279.3c5.8-6.3 14.6-8.9 22.8-6.7l261.3 70c8.2 2.2 14.6 8.9 16.5 17.2l83.5 370.8c1 4.8 0.6 9.8-1.4 14.3l-172.5 395.8c-2.4 5.7-7 10.1-12.7 12.3l-286.2 111c-9.4 3.6-20 0.8-26.3-7z" />
		<path id="Polygon 1_59" class="s9"
			d="m1156.5 1343l-178.6-246.8c-3.6-4.9-5.1-11.2-4.1-17.2l70-421.8c0.8-4.8 3.2-9.3 6.7-12.7l269.9-262.6c6.1-6 15-8.1 23.1-5.4l255.6 83c8.2 2.7 14.2 9.6 15.6 18l64 371.1c0.8 4.9 0.1 9.8-2.1 14.2l-191.3 382.4c-2.7 5.5-7.6 9.6-13.4 11.6l-289.6 94.6c-9.5 3.1-19.9-0.3-25.8-8.4z" />
		<path id="Polygon 1_58" class="s10"
			d="m1111.6 1329.2l-164.7-253.5c-3.4-5.2-4.5-11.5-3.2-17.5l90.9-413.4c1-4.8 3.6-9.1 7.3-12.4l281-245.4c6.4-5.6 15.4-7.2 23.4-4.1l249.4 95.7c7.9 3.1 13.5 10.3 14.5 18.7l44.7 370.4c0.6 4.9-0.4 9.9-2.9 14.2l-209.1 367.9c-3 5.4-8.1 9.3-14 10.9l-292.1 78.2c-9.6 2.6-19.8-1.4-25.2-9.7z" />
		<path id="Polygon 1_57" class="s11"
			d="m1067.7 1314.3l-150.5-259.5c-3.1-5.3-4-11.7-2.3-17.6l110.9-404c1.4-4.8 4.2-9 8.1-12l291.1-227.8c6.7-5.2 15.7-6.3 23.5-2.9l242.4 108c7.8 3.4 13 10.9 13.6 19.4l25.6 368.7c0.3 4.9-0.9 9.8-3.6 14l-226 352.8c-3.3 5.2-8.6 8.8-14.6 10.1l-293.6 61.8c-9.7 2-19.6-2.4-24.6-11z" />
		<path id="Polygon 1_56" class="s12"
			d="m1024.8 1298.4l-136.1-264.7c-2.9-5.5-3.4-11.9-1.4-17.8l130.4-393.6c1.5-4.7 4.6-8.8 8.6-11.6l300.1-209.7c7-4.9 16.1-5.5 23.6-1.7l235 119.8c7.6 3.8 12.4 11.6 12.6 20l6.7 366.1c0.1 4.9-1.4 9.8-4.3 13.8l-241.8 336.9c-3.6 5-9.1 8.3-15.2 9.3l-294.2 45.4c-9.8 1.5-19.4-3.4-24-12.2z" />
		<path id="Polygon 1_55" class="s13"
			d="m983.1 1281.5l-121.7-269.1c-2.6-5.6-2.7-12.1-0.5-17.8l149-382.4c1.8-4.6 5.1-8.6 9.3-11.2l308-191.3c7.2-4.5 16.3-4.6 23.7-0.4l226.9 131c7.3 4.3 11.8 12.2 11.5 20.7l-11.7 362.4c-0.2 5-1.9 9.8-5.1 13.6l-256.6 320.3c-3.9 4.8-9.5 7.9-15.7 8.5l-293.9 29.2c-9.8 0.9-19.1-4.5-23.2-13.5z" />
		<path id="Polygon 1_54" class="s14"
			d="m942.5 1263.8l-107.1-272.8c-2.3-5.8-2.2-12.2 0.4-17.8l166.8-370.3c2.1-4.5 5.6-8.3 9.9-10.7l314.8-172.7c7.5-4.1 16.5-3.7 23.6 0.9l218.4 141.8c7.1 4.6 11.1 12.7 10.4 21.2l-29.7 357.8c-0.5 5-2.5 9.7-5.8 13.4l-270.4 303c-4.1 4.7-9.9 7.4-16.1 7.7l-292.8 13.1c-9.8 0.4-18.8-5.4-22.4-14.6z" />
		<path id="Polygon 1_53" class="s15"
			d="m903.1 1245.2l-92.5-275.6c-2-5.9-1.5-12.3 1.3-17.8l183.8-357.3c2.3-4.5 6-8.1 10.5-10.2l320.5-154c7.6-3.6 16.7-2.8 23.5 2.2l209.3 152c6.8 5 10.4 13.3 9.3 21.7l-47.4 352.4c-0.7 5-2.9 9.6-6.5 13.1l-283 285.2c-4.3 4.4-10.3 6.9-16.5 6.8l-290.7-2.8c-9.8-0.1-18.5-6.4-21.6-15.7z" />
		<path id="Polygon 1_52" class="s16"
			d="m864.9 1226l-77.9-277.8c-1.7-6-0.9-12.4 2.2-17.7l199.9-343.6c2.5-4.4 6.4-7.8 11.1-9.7l325.1-135c7.8-3.3 16.7-2 23.3 3.3l199.7 161.8c6.6 5.3 9.7 13.8 8.2 22.1l-64.5 346.1c-0.9 4.9-3.4 9.4-7.2 12.8l-294.5 266.9c-4.6 4.2-10.7 6.3-16.9 6l-287.9-18.5c-9.7-0.6-18-7.3-20.6-16.7z" />
		<path id="Polygon 1_51" class="s17"
			d="m827.9 1206l-63.3-279c-1.4-6.1-0.2-12.5 3.2-17.7l215-329.2c2.8-4.2 6.8-7.4 11.6-9.1l328.7-116.1c7.9-2.8 16.8-1 23 4.6l189.8 170.9c6.2 5.6 8.9 14.2 7 22.4l-81.1 339c-1.2 4.9-4 9.3-7.9 12.5l-304.9 248.2c-4.8 4-11.1 5.8-17.2 5l-284.2-33.7c-9.6-1.2-17.5-8.3-19.7-17.8z" />
		<path id="Polygon 1_50" class="s18"
			d="m792.2 1185.5l-48.8-279.6c-1-6.2 0.4-12.5 4.1-17.5l229.2-314.2c3-4.1 7.3-7.1 12.1-8.5l331.2-97.1c8-2.4 16.7-0.2 22.7 5.8l179.4 179.3c5.9 6 8.1 14.7 5.8 22.8l-97.2 331.1c-1.4 4.9-4.4 9.1-8.5 12.1l-314.2 229.2c-5 3.7-11.3 5.1-17.5 4.1l-279.6-48.8c-9.5-1.7-17-9.2-18.7-18.7z" />
		<path id="Polygon 1_49" class="s19"
			d="m757.8 1164.5l-34.4-279.5c-0.7-6.2 1.1-12.4 5-17.3l242.4-298.6c3.2-3.9 7.7-6.7 12.6-7.9l332.5-78.2c8.2-1.9 16.8 0.8 22.4 7l168.6 187.3c5.6 6.2 7.4 15 4.6 23l-112.5 322.4c-1.7 4.8-4.9 9-9.2 11.7l-322.3 209.9c-5.2 3.4-11.6 4.6-17.7 3.2l-274.3-63.5c-9.4-2.1-16.5-10-17.7-19.5z" />
		<path id="Polygon 1_48" class="s20"
			d="m724.7 1143l-20.1-278.5c-0.5-6.3 1.7-12.4 5.9-17.1l254.6-282.5c3.4-3.7 8-6.3 13-7.2l332.8-59.5c8.3-1.4 16.7 1.7 22 8.2l157.5 194.5c5.3 6.6 6.6 15.4 3.4 23.2l-127.3 313.1c-2 4.8-5.4 8.7-9.8 11.3l-329.3 190.3c-5.4 3.2-11.9 4-17.9 2.2l-268.2-77.6c-9.3-2.7-15.9-10.8-16.6-20.4z" />
		<path id="Polygon 1_47" class="s21"
			d="m693 1121.2l-6.1-276.9c-0.2-6.3 2.3-12.3 6.7-16.7l265.9-266c3.6-3.6 8.3-5.9 13.4-6.5l332.1-40.9c8.3-1.1 16.5 2.5 21.4 9.3l146.2 201.1c4.9 6.8 5.7 15.7 2.2 23.3l-141.5 303.2c-2.2 4.6-5.8 8.4-10.4 10.7l-335.1 170.7c-5.6 2.8-12.1 3.3-18 1.2l-261.4-91.3c-9.1-3.2-15.2-11.6-15.4-21.2z" />
		<path id="Polygon 1_46" class="s22"
			d="m662.5 1099.1l7.7-274.5c0.2-6.3 3-12.3 7.6-16.5l276.1-248.9c3.8-3.5 8.7-5.5 13.8-5.9l330.3-22.6c8.3-0.5 16.3 3.5 20.9 10.5l134.5 207.1c4.5 7 4.9 15.9 1 23.3l-154.9 292.6c-2.5 4.5-6.3 8.1-11 10.2l-339.7 150.9c-5.8 2.6-12.3 2.7-18.1 0.3l-254-104.6c-8.8-3.7-14.5-12.4-14.2-21.9z" />
		<path id="Polygon 1_45" class="s23"
			d="m633.4 1076.8l21.3-271.5c0.5-6.3 3.5-12.1 8.4-16.1l285.2-231.6c4-3.3 9-5.1 14.2-5.2l327.5-4.5c8.3-0.1 16.1 4.3 20.3 11.5l122.6 212.4c4.2 7.2 4.1 16.2-0.1 23.3l-167.8 281.4c-2.6 4.5-6.7 7.9-11.5 9.7l-343.2 131.2c-5.9 2.2-12.5 1.9-18.1-0.8l-245.8-117.3c-8.6-4.1-13.8-13-13-22.5z" />
		<path id="Polygon 1_44" class="s24"
			d="m605.5 1054.4l34.6-267.8c0.8-6.3 4.2-11.9 9.3-15.7l293.3-214.1c4.2-3 9.3-4.6 14.5-4.4l323.8 13.1c8.3 0.4 15.8 5.2 19.5 12.6l110.7 217.1c3.7 7.4 3.2 16.3-1.4 23.2l-179.7 269.7c-2.9 4.3-7.1 7.5-12.1 9.1l-345.6 111.4c-6 2-12.5 1.3-18.1-1.7l-237-129.4c-8.3-4.5-13-13.7-11.8-23.1z" />
		<path id="Polygon 1_43" class="s25"
			d="m579 1031.9l47.6-263.5c1.1-6.2 4.7-11.7 10-15.1l300.4-196.4c4.3-2.9 9.5-4.1 14.7-3.6l319.2 30.4c8.2 0.8 15.4 5.9 18.8 13.5l98.4 221.1c3.4 7.6 2.4 16.4-2.5 23l-191 257.6c-3.1 4.1-7.5 7.2-12.6 8.5l-346.8 91.8c-6.2 1.6-12.7 0.6-18-2.7l-227.7-141c-8-4.9-12.2-14.3-10.5-23.6z" />
		<path id="Polygon 1_42" class="s26"
			d="m553.8 1009.5l60.2-258.6c1.4-6.1 5.3-11.4 10.8-14.6l306.3-178.5c4.5-2.6 9.8-3.6 15-2.8l313.6 47.2c8.2 1.2 15.1 6.8 18.1 14.5l86.1 224.3c2.9 7.8 1.5 16.5-3.7 22.9l-201.5 244.9c-3.3 4.1-7.9 6.9-13 7.9l-347.1 72.4c-6.2 1.3-12.7 0-17.9-3.7l-217.7-151.9c-7.7-5.3-11.3-14.9-9.2-24z" />
		<path id="Polygon 1_41" class="s27"
			d="m529.9 987.1l72.3-253c1.8-6.1 6-11.2 11.6-14.1l311.3-160.4c4.7-2.5 10.1-3.2 15.2-2.1l307.1 63.5c8.1 1.7 14.7 7.6 17.3 15.4l73.7 227c2.6 7.9 0.7 16.5-4.9 22.6l-211.1 231.9c-3.5 3.9-8.3 6.5-13.5 7.3l-346.2 53.1c-6.2 1-12.6-0.7-17.6-4.6l-207.3-162.1c-7.4-5.8-10.5-15.5-7.9-24.5z" />
		<path id="Polygon 1_40" class="s28"
			d="m507.2 965l84.2-246.9c2-6.1 6.5-11 12.3-13.6l315.2-142.4c4.8-2.2 10.2-2.6 15.4-1.3l299.8 79.3c7.9 2.1 14.2 8.3 16.3 16.3l61.4 228.9c2.1 8-0.2 16.5-6 22.3l-220 218.6c-3.8 3.7-8.7 6-14 6.6l-344.2 34.2c-6.3 0.7-12.6-1.4-17.4-5.5l-196.4-171.8c-7-6.1-9.6-15.9-6.6-24.7z" />
		<path id="Polygon 1_39" class="s29"
			d="m485.7 943.1l95.6-240.3c2.4-6 7.1-10.6 13-13l318.1-124.4c5-1.9 10.5-2.1 15.5-0.5l291.7 94.5c7.9 2.6 13.7 9.1 15.4 17.1l49 230.2c1.7 8.1-1 16.4-7.1 21.9l-228.1 205c-4 3.5-9 5.6-14.3 5.9l-341.3 15.7c-6.4 0.3-12.6-2.1-17.1-6.5l-185.1-180.7c-6.6-6.5-8.7-16.3-5.3-24.9z" />
		<path id="Polygon 1_38" class="s30"
			d="m465.5 921.4l106.5-233.1c2.6-5.8 7.6-10.3 13.6-12.3l320.1-106.5c5.1-1.7 10.6-1.6 15.5 0.3l282.9 109.1c7.7 2.9 13.2 9.7 14.4 17.8l36.6 230.8c1.3 8.1-1.8 16.3-8.2 21.5l-235.4 191.1c-4.1 3.4-9.3 5.2-14.6 5.1l-337.3-2.4c-6.4 0-12.5-2.7-16.8-7.4l-173.3-188.9c-6.3-6.8-7.8-16.7-4-25.1z" />
		<path id="Polygon 1_37" class="s31"
			d="m446.5 900.2l116.9-225.6c2.9-5.6 8.1-9.8 14.3-11.5l320.9-88.8c5.2-1.4 10.7-1 15.6 1.2l273.3 122.9c7.5 3.3 12.6 10.4 13.4 18.6l24.3 230.7c0.8 8.2-2.7 16.1-9.3 21l-241.8 177c-4.3 3.2-9.6 4.8-15 4.4l-332.4-20.1c-6.3-0.4-12.3-3.4-16.3-8.3l-161.3-196.3c-5.8-7.1-6.9-17.1-2.6-25.2z" />
		<path id="Polygon 1_36" class="s32"
			d="m428.5 879.4l126.9-217.5c3.2-5.5 8.6-9.5 14.9-10.9l320.9-71.2c5.2-1.2 10.7-0.4 15.5 2l263.1 136.1c7.3 3.8 12 11.1 12.4 19.3l12.1 230c0.4 8.2-3.5 15.9-10.3 20.4l-247.5 162.9c-4.5 2.9-9.9 4.2-15.2 3.6l-326.6-37.3c-6.4-0.7-12.1-4.1-15.9-9.2l-148.9-203c-5.5-7.4-6-17.3-1.4-25.2z" />
		<path id="Polygon 1_35" class="s33"
			d="m411.7 859l136.3-208.9c3.5-5.4 9.1-9.1 15.5-10.2l319.8-53.9c5.4-0.9 10.9 0.1 15.5 2.9l252.3 148.5c7 4.2 11.3 11.7 11.3 19.8v228.8c0 8.1-4.3 15.6-11.3 19.8l-252.3 148.5c-4.6 2.8-10.1 3.8-15.5 2.9l-319.8-53.9c-6.4-1.1-12-4.8-15.5-10.1l-136.3-209c-4.9-7.7-4.9-17.5 0-25.2z" />
		<path id="Polygon 1_34" class="s34"
			d="m396 839.3l145.2-200.1c3.8-5.3 9.5-8.6 15.9-9.4l318-36.9c5.4-0.6 10.8 0.7 15.4 3.7l240.8 160.2c6.7 4.5 10.6 12.3 10.2 20.4l-11.9 226.7c-0.4 8.1-5.1 15.4-12.3 19.2l-256.2 134.2c-4.8 2.5-10.4 3.2-15.7 2l-312.4-69.9c-6.2-1.4-11.6-5.4-14.9-10.9l-123.4-214.2c-4.5-7.9-4-17.7 1.3-25z" />
		<path id="Polygon 1_33" class="s35"
			d="m381.3 820.1l153.5-190.9c4-5 10-8.1 16.4-8.5l315.2-20.3c5.4-0.3 10.8 1.3 15.2 4.5l228.9 171.2c6.5 4.8 9.9 12.7 9.1 20.8l-23.6 224.2c-0.8 8-5.9 15.1-13.2 18.4l-259.5 119.9c-4.9 2.3-10.5 2.7-15.8 1.2l-304-85.3c-6.3-1.8-11.4-6-14.4-11.8l-110.4-218.6c-4.1-8.1-3.1-17.8 2.6-24.8z" />
		<path id="Polygon 1_32" class="s36"
			d="m367.5 801.6l161.3-181.4c4.3-4.8 10.5-7.6 16.9-7.7l311.5-4c5.5 0 10.8 1.9 15 5.4l216.5 181.2c6.2 5.2 9.2 13.3 7.9 21.2l-35 221c-1.3 8-6.6 14.8-14.1 17.8l-261.9 105.4c-5.1 2.1-10.7 2.3-15.9 0.5l-295-100c-6.1-2.1-11.1-6.7-13.7-12.6l-97.3-222.3c-3.6-8.2-2.1-17.8 3.8-24.5z" />
		<path id="Polygon 1_31" class="s37"
			d="m354.7 783.8l168.5-171.5c4.6-4.7 10.8-7.2 17.3-6.9l306.9 11.8c5.6 0.2 10.8 2.4 14.9 6.2l203.6 190.5c5.9 5.5 8.4 13.7 6.8 21.6l-46.2 217.2c-1.7 7.9-7.4 14.3-15 17l-263.5 91.2c-5.2 1.8-10.9 1.7-16-0.4l-285.2-114c-6.1-2.4-10.8-7.3-13-13.3l-84.2-225.3c-3.1-8.3-1.1-17.8 5.1-24.1z" />
		<path id="Polygon 1_30" class="s38"
			d="m342.8 766.7l175.1-161.4c4.8-4.4 11.2-6.6 17.7-6l301.6 27.1c5.5 0.5 10.7 3 14.5 7l190.4 198.9c5.6 5.9 7.7 14.1 5.6 21.9l-57 213c-2.1 7.7-8.1 13.8-15.8 16.1l-264.4 77c-5.3 1.6-11 1.2-16.1-1.2l-274.7-127.2c-5.9-2.8-10.4-7.9-12.3-14.1l-71-227.3c-2.6-8.5-0.1-17.8 6.4-23.8z" />
		<path id="Polygon 1_29" class="s39"
			d="m331.7 750.4l181.1-151.1c5-4.2 11.6-6 18-5.1l295.6 42c5.5 0.8 10.5 3.5 14.2 7.8l176.9 206.4c5.2 6.1 6.8 14.5 4.4 22.1l-67.6 208.1c-2.5 7.7-8.8 13.4-16.6 15.3l-264.4 63.1c-5.5 1.3-11.2 0.5-16.1-2.1l-263.8-139.7c-5.8-3.1-10-8.4-11.6-14.7l-57.7-228.8c-2.2-8.6 0.8-17.6 7.6-23.3z" />
		<path id="Polygon 1_28" class="s40"
			d="m321.3 735l186.6-140.7c5.2-3.9 11.9-5.4 18.3-4.2l288.7 56.3c5.6 1.1 10.5 4.1 13.9 8.6l163.1 213.1c4.9 6.4 6.1 14.8 3.2 22.3l-77.8 202.7c-2.9 7.5-9.4 12.9-17.3 14.4l-263.8 49.3c-5.5 1-11.2 0-16.1-2.9l-252.2-151.4c-5.6-3.4-9.5-9-10.7-15.4l-44.6-229.4c-1.7-8.6 1.7-17.4 8.7-22.7z" />
		<path id="Polygon 1_27" class="s41"
			d="m311.7 720.4l191.4-130c5.5-3.7 12.2-4.9 18.5-3.3l281.3 69.9c5.5 1.4 10.3 4.7 13.5 9.4l149.1 219c4.5 6.6 5.3 15 2 22.3l-87.7 196.9c-3.2 7.3-10 12.4-17.9 13.4l-262.5 35.8c-5.6 0.7-11.3-0.6-16-3.8l-240.2-162.3c-5.4-3.6-9-9.4-9.9-15.9l-31.5-229.3c-1.2-8.6 2.6-17.2 9.9-22.1z" />
		<path id="Polygon 1_26" class="s42"
			d="m302.7 706.7l195.7-119.2c5.6-3.4 12.4-4.3 18.7-2.4l273.2 83c5.4 1.6 10.1 5.2 13 10.1l135 223.9c4.1 6.8 4.4 15.3 0.8 22.4l-97.1 190.6c-3.6 7-10.6 11.7-18.5 12.4l-260.6 22.5c-5.6 0.5-11.3-1.2-15.8-4.6l-227.7-172.3c-5.3-4-8.6-9.9-9.1-16.5l-18.6-228.4c-0.7-8.7 3.6-17 11-21.5z" />
		<path id="Polygon 1_25" class="s43"
			d="m294.3 693.9l199.4-108.4c5.7-3.1 12.6-3.6 18.8-1.4l264.5 95.4c5.4 1.9 9.9 5.8 12.6 10.8l120.7 228.1c3.7 7 3.5 15.4-0.4 22.2l-106.2 183.9c-3.9 6.8-11.1 11.2-19 11.5l-257.9 9.4c-5.7 0.2-11.3-1.7-15.7-5.4l-214.8-181.4c-5-4.3-8-10.5-8.2-17l-5.8-226.9c-0.2-8.6 4.4-16.7 12-20.8z" />
		<path id="Polygon 1_24" class="s44"
			d="m286.4 682.1l202.5-97.5c5.9-2.9 12.8-3 18.9-0.5l255.3 107.1c5.3 2.2 9.6 6.4 12 11.6l106.5 231.2c3.3 7.2 2.7 15.6-1.6 22.2l-114.8 176.6c-4.3 6.7-11.7 10.6-19.5 10.5l-254.6-3.2c-5.7-0.1-11.3-2.3-15.5-6.2l-201.7-189.8c-4.8-4.5-7.4-10.8-7.2-17.4l6.7-224.6c0.3-8.6 5.3-16.3 13-20z" />
		<path id="Polygon 1_23" class="s45"
			d="m279 671.2l205-86.6c6-2.5 12.9-2.4 18.9 0.5l245.7 118.1c5.2 2.5 9.3 6.9 11.4 12.3l92.1 233.6c2.9 7.3 1.9 15.6-2.8 22l-122.8 169.1c-4.6 6.3-12.2 9.9-20 9.4l-250.7-15.5c-5.7-0.3-11.2-2.9-15.2-7l-188.2-197.2c-4.6-4.8-6.9-11.3-6.3-17.8l18.9-221.7c0.8-8.5 6.1-15.9 14-19.2z" />
		<path id="Polygon 1_22" class="s46"
			d="m272 661.3l206.9-75.6c6.2-2.3 13.1-1.8 18.9 1.4l235.5 128.4c5.1 2.8 9 7.4 10.8 13l77.9 235c2.5 7.5 1 15.6-3.9 21.7l-130.5 161.2c-5 6.1-12.6 9.3-20.4 8.4l-246.2-27.3c-5.8-0.7-11.1-3.5-14.9-7.9l-174.6-203.7c-4.3-5-6.2-11.7-5.3-18.2l30.9-218.1c1.2-8.4 7-15.4 14.9-18.3z" />
		<path id="Polygon 1_21" class="s47"
			d="m265.4 652.3l208.2-64.7c6.3-1.9 13.2-1.1 18.8 2.4l225 138c5 3.1 8.6 7.9 10.2 13.6l63.8 235.7c2 7.5 0.1 15.6-5.1 21.4l-137.7 152.9c-5.3 5.8-13.1 8.6-20.8 7.3l-241.1-38.8c-5.8-0.9-11-4-14.6-8.7l-160.7-209.3c-4.1-5.2-5.6-12-4.3-18.5l42.5-213.8c1.7-8.3 7.7-15 15.8-17.5z" />
		<path id="Polygon 1_20" class="s48"
			d="m259 644.4l209-53.9c6.4-1.7 13.3-0.4 18.7 3.3l214.1 146.9c4.9 3.3 8.3 8.4 9.5 14.2l49.8 235.5c1.6 7.6-0.7 15.5-6.2 21l-144.4 144.4c-5.5 5.5-13.4 7.8-21 6.2l-235.5-49.8c-5.8-1.2-10.9-4.6-14.3-9.5l-146.8-214.1c-3.8-5.4-5-12.3-3.3-18.7l53.9-209c2.1-8.1 8.4-14.4 16.5-16.5z" />
		<path id="Polygon 1_19" class="s49"
			d="m252.9 637.5l209.2-43.2c6.5-1.4 13.3 0.2 18.6 4.2l202.8 155c4.8 3.6 7.9 8.9 8.8 14.7l36 234.6c1.2 7.7-1.5 15.4-7.3 20.6l-150.5 135.5c-5.8 5.2-13.8 7.1-21.2 5.1l-229.5-60.3c-5.8-1.5-10.7-5.2-13.8-10.3l-132.9-217.9c-3.5-5.7-4.3-12.6-2.3-19l64.8-203.5c2.5-7.9 9.1-13.9 17.3-15.5z" />
		<path id="Polygon 1_18" class="s50"
			d="m246.9 631.5l208.8-32.5c6.6-1.1 13.4 0.8 18.5 5.1l191.4 162.3c4.6 3.8 7.4 9.3 8 15.3l22.5 232.8c0.8 7.7-2.4 15.2-8.4 20.1l-156.1 126.4c-6 4.9-14.1 6.4-21.4 4.1l-223.1-70.4c-5.7-1.8-10.4-5.8-13.3-11.1l-118.9-221c-3.1-5.8-3.6-12.8-1.2-19l75.2-197.6c3-7.7 9.8-13.2 18-14.5z" />
		<path id="Polygon 1_17" class="s51"
			d="m241 626.5l208-22c6.7-0.8 13.3 1.5 18.2 6.1l179.8 168.7c4.4 4.2 7 9.9 7.2 15.9l9.3 230.2c0.3 7.7-3.3 15-9.5 19.6l-161.2 117.1c-6.3 4.5-14.3 5.6-21.5 3l-216.1-80c-5.7-2.1-10.3-6.3-12.9-11.8l-105-223.1c-2.8-6.1-2.9-13.1-0.1-19.2l85.2-191c3.4-7.4 10.5-12.6 18.6-13.5z" />
		<path id="Polygon 1_16" class="s52"
			d="m235.2 622.6l206.6-11.8c6.7-0.4 13.2 2.1 17.9 7l168 174.5c4.2 4.4 6.5 10.3 6.4 16.4l-3.7 226.9c-0.1 7.7-4 14.8-10.4 18.9l-165.8 107.7c-6.5 4.2-14.5 4.9-21.6 1.9l-208.8-89c-5.6-2.4-10-6.9-12.3-12.5l-91.1-224.5c-2.6-6.2-2.3-13.2 0.8-19.1l94.9-184c3.7-7.2 11-12 19.1-12.4z" />
		<path id="Polygon 1_15" class="s53"
			d="m229.3 619.6l204.8-1.8c6.7 0 13.1 2.9 17.5 8l156.1 179.5c4 4.7 6 10.7 5.6 16.8l-16.2 222.9c-0.6 7.7-4.9 14.5-11.5 18.3l-169.8 98c-6.6 3.9-14.6 4.2-21.5 0.8l-201.2-97.4c-5.5-2.7-9.7-7.4-11.7-13.2l-77.5-225c-2.2-6.3-1.5-13.3 1.9-19.1l103.9-176.5c4.1-6.9 11.6-11.2 19.6-11.3z" />
		<path id="Polygon 1_14" class="s54"
			d="m223.4 617.5l202.4 8.2c6.8 0.2 13 3.4 17.2 8.8l144.1 183.8c3.8 4.9 5.5 11 4.7 17.1l-28.3 218.3c-1 7.6-5.6 14.1-12.4 17.6l-173.3 88.3c-6.8 3.4-14.8 3.3-21.4-0.3l-193.3-105.4c-5.4-3-9.4-8-11.1-13.9l-64-224.6c-1.9-6.5-0.8-13.5 2.9-19.1l112.4-168.5c4.5-6.7 12.1-10.6 20.1-10.3z" />
		<path id="Polygon 1_13" class="s55"
			d="m217.3 616.5l199.6 17.7c6.8 0.6 12.9 4.1 16.8 9.6l132.1 187.4c3.6 5.1 4.9 11.4 3.8 17.5l-40 212.9c-1.4 7.5-6.3 13.7-13.2 16.8l-176.3 78.5c-6.9 3-14.8 2.5-21.3-1.4l-185-112.8c-5.3-3.2-9.1-8.5-10.5-14.5l-50.8-223.6c-1.5-6.5 0-13.5 4-18.9l120.4-160.2c4.8-6.3 12.5-9.7 20.4-9z" />
		<path id="Polygon 1_12" class="s56"
			d="m211.1 616.3l196.3 27c6.8 1 12.7 4.8 16.3 10.5l120.2 190.1c3.3 5.3 4.4 11.8 2.8 17.9l-51.1 207c-1.8 7.3-7.1 13.2-14.1 15.9l-178.6 68.6c-7 2.7-14.9 1.8-21.1-2.5l-176.6-119.5c-5.2-3.6-8.7-9-9.8-15.2l-37.9-221.7c-1.2-6.7 0.7-13.5 5.1-18.7l127.8-151.5c5.1-6 12.9-9 20.7-7.9z" />
		<path id="Polygon 1_11" class="s57"
			d="m204.6 617l192.7 36.1c6.7 1.3 12.4 5.4 15.8 11.3l108.2 192.2c3.1 5.5 3.8 12 2 18l-61.9 200.6c-2.2 7.1-7.8 12.7-14.9 15.1l-180.4 58.6c-7.1 2.3-14.9 1-20.9-3.5l-167.9-125.9c-5-3.7-8.3-9.5-9-15.7l-25.4-219.1c-0.8-6.7 1.4-13.5 6.1-18.4l134.7-142.5c5.3-5.7 13.2-8.2 20.9-6.8z" />
		<path id="Polygon 1_10" class="s58"
			d="m197.8 618.6l188.6 44.9c6.7 1.5 12.2 6 15.3 12.1l96.5 193.4c2.8 5.7 3.1 12.3 0.9 18.3l-72 193.5c-2.6 6.9-8.4 12.2-15.6 14.2l-181.7 48.7c-7.2 1.9-14.8 0.2-20.6-4.5l-159-131.6c-5-4-8-10-8.3-16.3l-13.2-215.8c-0.5-6.8 2.2-13.4 7.1-18.1l140.9-133.1c5.7-5.4 13.6-7.5 21.1-5.7z" />
		<path id="Polygon 1_9" class="s59"
			d="m190.7 621l184.2 53.3c6.5 1.9 11.9 6.6 14.6 12.9l84.9 194.1c2.6 5.9 2.6 12.6 0 18.4l-81.6 185.9c-2.9 6.8-9 11.7-16.2 13.3l-182.5 38.8c-7.2 1.5-14.8-0.5-20.3-5.5l-150.1-136.7c-4.7-4.3-7.4-10.4-7.5-16.8l-1.4-211.9c-0.1-6.8 2.9-13.3 8.2-17.7l146.5-123.5c5.9-5 13.8-6.7 21.2-4.6z" />
		<path id="Polygon 1_8" class="s60"
			d="m183.2 624.3l179.3 61.3c6.5 2.3 11.7 7.3 14.1 13.7l73.5 194c2.2 6 1.9 12.8-1.1 18.6l-90.5 177.9c-3.3 6.5-9.6 11.1-16.9 12.2l-182.6 29c-7.3 1.1-14.7-1.3-19.9-6.5l-141.1-141.2c-4.5-4.6-7-10.9-6.7-17.4l9.9-207.2c0.4-6.8 3.7-13.2 9.2-17.3l151.6-113.7c6.1-4.6 14-5.9 21.2-3.4z" />
		<path id="Polygon 1_7" class="s61"
			d="m175.3 628.3l174.2 69.1c6.4 2.5 11.3 7.8 13.4 14.3l62.3 193.3c2 6.3 1.2 13-2.1 18.7l-98.8 169.5c-3.7 6.3-10.2 10.5-17.5 11.2l-182.3 19.2c-7.3 0.8-14.5-2-19.5-7.4l-131.9-145.2c-4.4-4.8-6.5-11.3-5.9-17.8l20.8-202.1c0.7-6.8 4.4-13 10.1-16.8l156-103.8c6.3-4.1 14.2-5 21.2-2.2z" />
		<path id="Polygon 1_6" class="s62"
			d="m166.9 633.1l168.7 76.4c6.3 2.9 11 8.4 12.7 15l51.4 192c1.7 6.4 0.6 13.2-3 18.7l-106.6 160.6c-4 6.1-10.7 9.9-18 10.3l-181.5 9.5c-7.3 0.4-14.3-2.7-18.9-8.3l-122.8-148.7c-4.2-5-6-11.7-5-18.2l31-196.3c1.1-6.8 5.2-12.8 11.1-16.2l159.8-93.7c6.4-3.8 14.3-4.2 21.1-1.1z" />
		<path id="Polygon 1_5" class="s63"
			d="m158 638.5l163 83.5c6.1 3.1 10.5 8.9 12 15.6l40.8 190.1c1.4 6.5-0.1 13.3-4.1 18.6l-113.6 151.5c-4.4 5.8-11.2 9.2-18.4 9.2h-180.3c-7.2 0-14-3.4-18.4-9.2l-113.6-151.5c-4-5.3-5.5-12.1-4.1-18.6l40.8-190.1c1.5-6.7 5.9-12.5 12-15.6l163-83.5c6.5-3.3 14.3-3.3 20.9 0z" />
		<path id="Polygon 1_4" class="s64"
			d="m148.6 644.6l156.9 90.1c6 3.4 10.2 9.4 11.3 16.3l30.5 187.5c1.1 6.6-0.8 13.4-5.1 18.5l-120 142.1c-4.7 5.5-11.6 8.5-18.8 8.1l-178.4-9.3c-7.2-0.4-13.8-4.1-17.8-10.1l-104.6-153.8c-3.7-5.6-4.9-12.5-3.1-19l50-183.3c1.8-6.7 6.5-12.2 12.8-15l165.5-73.1c6.7-3 14.4-2.6 20.8 1z" />
		<path id="Polygon 1_3" class="s65"
			d="m138.6 651.4l150.7 96.2c5.8 3.8 9.7 10 10.4 16.9l20.7 184.4c0.7 6.8-1.5 13.5-6.2 18.4l-125.7 132.5c-4.9 5.1-12 7.7-19.1 7l-176.1-18.5c-7.1-0.8-13.5-4.8-17.2-10.9l-95.5-155.6c-3.5-5.8-4.4-12.9-2.2-19.3l58.6-176.2c2.1-6.5 7.2-11.8 13.7-14.2l167.4-62.9c6.8-2.5 14.4-1.7 20.5 2.2z" />
		<path id="Polygon 1_2" class="s66"
			d="m128 658.7l144.2 102.1c5.6 4 9.2 10.4 9.6 17.3l11.2 180.9c0.5 6.9-2.2 13.5-7.2 18.2l-130.8 122.6c-5.1 4.8-12.3 7-19.3 5.9l-173.4-27.5c-7-1.1-13.1-5.4-16.5-11.6l-86.5-156.9c-3.3-6-3.8-13.2-1.3-19.6l66.6-168.6c2.5-6.4 7.9-11.4 14.5-13.5l168.7-52.5c6.9-2.1 14.3-1 20.2 3.2z" />
		<path id="Polygon 1_1" class="s67"
			d="m116.7 666.5l137.6 107.5c5.5 4.3 8.7 10.9 8.8 17.8l2.1 176.9c0.1 6.9-2.9 13.5-8.2 17.9l-135.2 112.6c-5.4 4.5-12.6 6.3-19.5 4.8l-170.2-36.2c-6.9-1.4-12.7-6-15.8-12.3l-77.7-157.8c-3-6.2-3.1-13.5-0.2-19.7l73.9-160.7c2.9-6.4 8.5-11 15.3-12.7l169.4-42.3c6.8-1.7 14.1-0.2 19.7 4.2z" />
		<path id="Polygon 1" class="s68"
			d="m104.8 674.8l130.7 112.5c5.3 4.6 8.3 11.3 8 18.3l-6.4 172.3c-0.3 7-3.7 13.5-9.4 17.7l-138.7 102.4c-5.7 4.2-12.9 5.5-19.6 3.7l-166.6-44.6c-6.8-1.8-12.4-6.6-15.2-13l-68.9-158.1c-2.8-6.4-2.6-13.8 0.7-20l80.6-152.4c3.3-6.2 9.2-10.6 16.1-11.9l169.4-32.1c6.9-1.3 14 0.6 19.3 5.2z" />
	</g>
</svg>