<svg width="32" height="32" viewBox="0 0 32 32" fill="none" xmlns="http://www.w3.org/2000/svg">
<path d="M30.4 19.2V20.8C30.4 23.856 28.688 26.512 26.16 27.856L27.2 32H24L23.2 28.8C22.928 28.8 22.672 28.8 22.4 28.8H9.6C9.328 28.8 9.072 28.8 8.8 28.8L8 32H4.8L5.84 27.856C3.312 26.512 1.6 23.856 1.6 20.8V19.2H0V16H28.8V4.8C28.8 4.37565 28.6314 3.96869 28.3314 3.66863C28.0313 3.36857 27.6243 3.2 27.2 3.2C26.4 3.2 25.792 3.744 25.6 4.464C26.608 5.328 27.2 6.608 27.2 8H17.6C17.6 6.72696 18.1057 5.50606 19.0059 4.60589C19.9061 3.70571 21.127 3.2 22.4 3.2C22.496 3.2 22.576 3.2 22.672 3.2C23.328 1.344 25.104 0 27.2 0C28.473 0 29.6939 0.505713 30.5941 1.40589C31.4943 2.30606 32 3.52696 32 4.8V19.2H30.4ZM27.2 19.2H4.8V20.8C4.8 22.073 5.30571 23.2939 6.20589 24.1941C7.10606 25.0943 8.32696 25.6 9.6 25.6H22.4C23.673 25.6 24.8939 25.0943 25.7941 24.1941C26.6943 23.2939 27.2 22.073 27.2 20.8V19.2Z" fill="#3DAEEE"/>
</svg>
