<svg width="28" height="24" viewBox="0 0 28 24" fill="none" xmlns="http://www.w3.org/2000/svg">
<path d="M24.5 8.54167V3.41667C24.5 2.51051 24.1312 1.64147 23.4749 1.00072C22.8185 0.359969 21.9283 0 21 0H7C6.07174 0 5.1815 0.359969 4.52513 1.00072C3.86875 1.64147 3.5 2.51051 3.5 3.41667V8.54167C2.57174 8.54167 1.6815 8.90164 1.02513 9.54239C0.368749 10.1831 0 11.0522 0 11.9583V20.5H2.3275L3.5 23.9167H5.25L6.4225 20.5H21.5775L22.75 23.9167H24.5L25.6725 20.5H28V11.9583C28 11.0522 27.6312 10.1831 26.9749 9.54239C26.3185 8.90164 25.4283 8.54167 24.5 8.54167ZM12.25 8.54167H7V3.41667H12.25M21 8.54167H15.75V3.41667H21V8.54167Z" fill="#333333"/>
</svg>
