<svg width="180" height="180" viewBox="0 0 180 180" fill="none" xmlns="http://www.w3.org/2000/svg">
<path d="M173.663 89.9977C176.443 86.7606 178.391 82.894 179.338 78.7335C180.285 74.573 180.203 70.2443 179.098 66.1227C177.994 62.0012 175.901 58.2113 173 55.082C170.099 51.9527 166.479 49.5783 162.453 48.1649C163.242 43.9713 162.995 39.6486 161.735 35.5718C160.475 31.4949 158.239 27.7871 155.222 24.77C152.204 21.7528 148.496 19.5176 144.419 18.258C140.342 16.9985 136.019 16.7528 131.826 17.5422C130.414 13.5151 128.04 9.89373 124.91 6.99231C121.781 4.09089 117.991 1.99718 113.869 0.892949C109.746 -0.211282 105.417 -0.292654 101.256 0.6559C97.0957 1.60445 93.2294 3.55426 89.9932 6.33604C86.756 3.55618 82.8895 1.60812 78.729 0.660881C74.5685 -0.286361 70.2397 -0.204188 66.1181 0.90027C61.9966 2.00473 58.2068 4.09811 55.0774 6.99883C51.9481 9.89954 49.5737 13.52 48.1604 17.5461C43.9671 16.7579 39.6448 17.0048 35.5685 18.2651C31.4922 19.5255 27.7849 21.7614 24.7683 24.7788C21.7516 27.7962 19.5167 31.504 18.2574 35.5807C16.998 39.6573 16.7523 43.9796 17.5415 48.1727C13.5154 49.5861 9.89496 51.9604 6.99425 55.0898C4.09353 58.2191 2.00013 62.009 0.895676 66.1305C-0.208783 70.252 -0.290968 74.5808 0.656275 78.7413C1.60352 82.9018 3.55161 86.7683 6.33147 90.0055C3.55076 93.2426 1.60207 97.1094 0.654561 101.27C-0.292951 105.431 -0.210695 109.761 0.894247 113.882C1.99919 118.004 4.09339 121.794 6.9951 124.923C9.89681 128.053 13.5184 130.426 17.5454 131.838C16.7555 136.032 17.001 140.354 18.2604 144.431C19.5199 148.508 21.7554 152.216 24.7728 155.233C27.7902 158.25 31.4984 160.485 35.5754 161.744C39.6524 163.003 43.9751 163.248 48.1682 162.457C49.5816 166.483 51.9559 170.104 55.0852 173.004C58.2146 175.905 62.0044 177.999 66.1259 179.103C70.2475 180.207 74.5762 180.29 78.7367 179.342C82.8972 178.395 86.7638 176.447 90.001 173.667C93.2381 176.448 97.1049 178.397 101.266 179.344C105.427 180.292 109.756 180.209 113.878 179.104C118 177.999 121.79 175.905 124.919 173.004C128.048 170.102 130.422 166.48 131.834 162.453C136.027 163.243 140.35 162.997 144.427 161.738C148.504 160.478 152.212 158.243 155.229 155.226C158.246 152.208 160.482 148.5 161.741 144.424C163.001 140.347 163.246 136.024 162.457 131.831C166.483 130.417 170.104 128.043 173.005 124.914C175.905 121.784 177.999 117.994 179.103 113.872C180.207 109.751 180.289 105.422 179.341 101.261C178.393 97.1006 176.444 93.2343 173.663 89.9977V89.9977Z" fill="#3DAEEE"/>
<path d="M73.8415 124.353L48.8315 99.3588C47.8824 98.4081 47.3492 97.1196 47.3492 95.7762C47.3492 94.4328 47.8824 93.1443 48.8315 92.1936L51.87 89.1512C52.8207 88.202 54.1092 87.6689 55.4526 87.6689C56.796 87.6689 58.0846 88.202 59.0353 89.1512L77.2155 107.32L120.031 61.8204C120.952 60.8429 122.224 60.2709 123.567 60.2299C124.909 60.1889 126.213 60.6824 127.192 61.602L130.313 64.5469C131.292 65.4683 131.864 66.7407 131.905 68.0843C131.946 69.4278 131.452 70.7327 130.531 71.7121L81.1277 124.24C80.6625 124.736 80.1024 125.133 79.4807 125.408C78.8589 125.683 78.1883 125.83 77.5086 125.841C76.8288 125.851 76.1539 125.725 75.5239 125.469C74.894 125.214 74.3218 124.834 73.8415 124.353V124.353Z" fill="white"/>
</svg>
