<svg xmlns="http://www.w3.org/2000/svg" xmlns:xlink="http://www.w3.org/1999/xlink" width="500" height="500" fill="none" xmlns:v="https://vecta.io/nano"><style><![CDATA[.B{fill:#263238}.C{fill:#3daeee}.D{fill:#ebebeb}.E{fill:#e0e0e0}.F{fill:#f0f0f0}]]></style><path d="M500 382.4H0v.25h500v-.25zm-50.1 16.09h-21.68v.25h21.68v-.25zm-105.23-5.18h-34.11v.25h34.11v-.25zm96.45-4.1h-44.53v.25h44.53v-.25zm-268.1 5.04h-11.14v.25h11.14v-.25zm-20.05 0h-38.39v.25h38.39v-.25zm-58.96-4.22h-27.7v.25h27.7v-.25zM237 337.8H43.91a5.71 5.71 0 0 1-5.7-5.71V60.66a5.71 5.71 0 0 1 5.7-5.66H237a5.71 5.71 0 0 1 4.038 1.672c1.07 1.071 1.672 2.523 1.672 4.038v271.38c0 1.514-.602 2.967-1.672 4.038A5.71 5.71 0 0 1 237 337.8h0zM43.91 55.2a5.46 5.46 0 0 0-5.45 5.46v271.43a5.46 5.46 0 0 0 5.45 5.46H237c1.447-.003 2.835-.579 3.858-1.602s1.599-2.411 1.602-3.858V60.66c-.003-1.447-.579-2.834-1.602-3.858A5.47 5.47 0 0 0 237 55.2H43.91zm409.4 282.6h-193.1c-1.514-.003-2.964-.605-4.035-1.675s-1.672-2.521-1.675-4.035V60.66a5.72 5.72 0 0 1 5.71-5.66h193.1a5.71 5.71 0 0 1 5.69 5.66v271.43c0 1.511-.599 2.96-1.665 4.031a5.71 5.71 0 0 1-4.025 1.679h0zM260.21 55.2a5.47 5.47 0 0 0-3.858 1.602c-1.023 1.023-1.599 2.411-1.602 3.858v271.43c.003 1.447.579 2.834 1.602 3.858a5.47 5.47 0 0 0 3.858 1.602h193.1c1.447-.003 2.835-.579 3.858-1.602s1.599-2.411 1.602-3.858V60.66c-.003-1.447-.579-2.834-1.602-3.858a5.47 5.47 0 0 0-3.858-1.602h-193.1z" class="D"/><path d="M383.44 105.32l-7.18-1.92-1.92-7.18 2.81-2.8 2.96 6.13 6.14 2.97-2.81 2.8zm.44-4.8a3.34 3.34 0 0 0 .725-1.085 3.35 3.35 0 0 0 0-2.56 3.33 3.33 0 0 0-.725-1.085c-.311-.31-.679-.557-1.085-.725a3.35 3.35 0 0 0-2.56 0 3.34 3.34 0 0 0-1.085.725l3.57-5.36 4.78 2.42 1.05 5-4.67 2.67z" class="E"/><path d="M376.58 94l5.26-5.26 7.16 1.91 1.93 7.17-5.26 5.26-7.17-1.93-1.92-7.15zm9.55 4.3a3.35 3.35 0 0 0 .916-1.715c.129-.65.062-1.323-.191-1.935a3.35 3.35 0 0 0-3.095-2.067 3.35 3.35 0 0 0-3.095 2.067c-.253.612-.32 1.285-.191 1.935a3.35 3.35 0 0 0 .916 1.715 3.37 3.37 0 0 0 4.74-.02v.02z" class="F"/><path d="M90.22 296.71l3.85-1.04 1.03-3.85-1.5-1.5-1.59 3.29-3.3 1.59 1.51 1.51zm-.22-2.58a1.8 1.8 0 0 1 2.541-2.54l-1.91-2.87L88 290l-.56 2.7 2.56 1.43z" class="E"/><path d="M93.9 290.62l-2.82-2.82-3.85 1-1 3.85L89 295.5l3.85-1 1.05-3.88zm-5.12 2.31c-.185-.162-.335-.361-.441-.584s-.164-.464-.172-.711a1.8 1.8 0 0 1 .125-.72 1.79 1.79 0 0 1 .401-.612c.174-.174.382-.311.612-.401s.475-.133.721-.125a1.81 1.81 0 0 1 .711.172 1.8 1.8 0 0 1-.711 3.426 1.8 1.8 0 0 1-1.245-.445h0zM76.36 85.66l3.2 3.2a2.14 2.14 0 0 0 3 0h0a2.15 2.15 0 0 0 0-3l-3.19-3.19a2.15 2.15 0 0 0-3 0h0a2.14 2.14 0 0 0-.01 2.99z" class="F"/><path d="M74.11 77.71a4.45 4.45 0 0 1 4.648 1.484 4.45 4.45 0 0 1 .494 4.854 4.45 4.45 0 0 1-4.254 2.39 4.45 4.45 0 0 1-3.888-2.947 4.59 4.59 0 0 1 .297-3.514 4.59 4.59 0 0 1 2.703-2.266h0z" class="E"/><path d="M70.63 82.955l.463 1.289 9.505-3.415-.463-1.289-9.505 3.415z" class="F"/><path d="M250 427.56c107.082 0 193.89-5.068 193.89-11.32S357.082 404.92 250 404.92s-193.89 5.068-193.89 11.32 86.808 11.32 193.89 11.32z" fill="#f5f5f5"/><path d="M216.07 200.88l.45-13.14-8.06-2.64c-.346-4.453-1.069-8.869-2.16-13.2l6.84-5-4.64-12.34-8.46.68a78.21 78.21 0 0 0-7-11.35l4.38-7.31-9-9.61-7.56 3.87A81.82 81.82 0 0 0 170 123l1.22-8.4-12-5.44-5.5 6.44a80.65 80.65 0 0 0-13-3l-2-8.23-13.18-.45-2.6 8.07c-4.449.35-8.861 1.069-13.19 2.15l-5.08-6.8-12.34 4.61.68 8.46a80.08 80.08 0 0 0-11.35 7.07L74.3 123l-9.65 9 3.87 7.6c-2.907 3.383-5.516 7.009-7.8 10.84l-8.39-1.26-5.48 12 6.48 5.49c-1.367 4.24-2.37 8.589-3 13L42 181.76l-.45 13.14 8.1 2.64c.335 4.45 1.054 8.864 2.15 13.19l-6.84 5 4.65 12.35 8.46-.68a77.03 77.03 0 0 0 7 11.35l-4.39 7.31 9 9.61 7.56-3.87a80.78 80.78 0 0 0 10.84 7.83l-1.26 8.39 12 5.45 5.53-6.44a81.65 81.65 0 0 0 13 3.05l2 8.23 13.18.45 2.6-8.07a81.54 81.54 0 0 0 13.2-2.15l5 6.8 12.34-4.61-.64-8.46c3.966-2.049 7.762-4.414 11.35-7.07l7.27 4.38 9.65-9-3.87-7.6c2.908-3.382 5.517-7.009 7.8-10.84l8.39 1.26 5.48-12-6.48-5.5c1.39-4.237 2.41-8.587 3.05-13l8.4-2.02zm-88.79 42.57c-10.312-.348-20.289-3.747-28.669-9.767a52.16 52.16 0 0 1-5.171-80.484c7.541-7.043 17.001-11.69 27.183-13.355a52.15 52.15 0 0 1 52.76 24.007 52.16 52.16 0 0 1 7.788 29.269 52.15 52.15 0 0 1-16.524 36.323c-10.106 9.438-23.546 14.476-37.366 14.007h0zM343.55 230h-.07l-17.32-.59c-.351-.006-.694-.101-.999-.276a2.08 2.08 0 0 1-.741-.724l-4.67-7.85a47.84 47.84 0 0 1-7.28-3.38l-7.47 1.29c-.348.064-.706.038-1.042-.073s-.638-.307-.878-.567l-11.83-12.66c-.248-.262-.425-.584-.512-.934s-.084-.718.012-1.066l1.89-7.41a45.46 45.46 0 0 1-2.86-7.47l-7.53-5.2a2.1 2.1 0 0 1-.688-.788c-.159-.316-.235-.668-.222-1.022l.59-17.32a2.14 2.14 0 0 1 .283-.994c.175-.304.421-.56.717-.746l7.87-4.67c.908-2.511 2.035-4.937 3.37-7.25l-1.38-7.53c-.064-.35-.04-.71.072-1.047s.307-.641.568-.883l12.66-11.82a2.11 2.11 0 0 1 2-.51l7.44 1.9c2.395-1.172 4.888-2.132 7.45-2.87l5.2-7.53a2 2 0 0 1 .781-.701c.318-.16.674-.232 1.029-.209l17.31.6a2.1 2.1 0 0 1 1.002.278c.306.174.563.423.748.722l4.67 7.86a46.33 46.33 0 0 1 7.22 3.38l7.56-1.39c.348-.065.707-.04 1.043.072s.637.307.877.568l11.83 12.66a2.11 2.11 0 0 1 .5 2l-1.9 7.43a46.54 46.54 0 0 1 2.88 7.45l7.52 5.2a2.1 2.1 0 0 1 .688.788c.159.316.235.668.222 1.022l-.59 17.31c-.012.351-.109.694-.283.999a2.16 2.16 0 0 1-.717.751l-7.87 4.67c-.914 2.505-2.041 4.928-3.37 7.24l1.38 7.54c.065.348.04.707-.072 1.043s-.307.637-.568.877L367.33 220c-.262.248-.584.425-.934.512s-.718.084-1.066-.012l-7.4-1.89a47.53 47.53 0 0 1-7.49 2.87l-5.15 7.52c-.185.297-.441.543-.745.718s-.645.271-.995.282h0zm-16.09-4.77l15 .51 5-7.19c.277-.42.702-.72 1.19-.84a43.87 43.87 0 0 0 8.15-3.13h0a2.16 2.16 0 0 1 1.46-.15l7 1.79 11-10.25-1.26-7.23a2.09 2.09 0 0 1 .26-1.47 41.55 41.55 0 0 0 3.65-7.83c.159-.495.493-.915.94-1.18l7.53-4.46.51-15-7.2-5a2.11 2.11 0 0 1-.81-1.07v-.17c-.77-2.764-1.816-5.444-3.12-8-.231-.458-.288-.984-.16-1.48l1.8-7.08-10.25-11-7.19 1.32a2.13 2.13 0 0 1-1.46-.26c-2.481-1.488-5.108-2.718-7.84-3.67-.157-.05-.308-.117-.45-.2-.288-.18-.528-.427-.7-.72l-4.51-7.55-15-.52-5 7.21a2.16 2.16 0 0 1-1.24.85 42.61 42.61 0 0 0-8.06 3.11c-.454.232-.977.289-1.47.16l-7.08-1.8-11 10.25 1.32 7.17a2.18 2.18 0 0 1-.19 1.33l-.1.17a41.56 41.56 0 0 0-3.65 7.86 2.12 2.12 0 0 1-.92 1.12l-7.53 4.47-.51 15 7.21 5c.411.281.709.699.84 1.18a41.54 41.54 0 0 0 3.11 8.12 2.59 2.59 0 0 1 .17.46 2.25 2.25 0 0 1 0 1l-1.8 7 10.25 11 7.14-1.31a2.1 2.1 0 0 1 1.45.26c2.5 1.485 5.143 2.715 7.89 3.67.496.147.915.48 1.17.93l4.46 7.62zm9.27-18.97h-1.11c-8.313-.146-16.232-3.57-22.032-9.526a31.53 31.53 0 0 1-8.942-22.277c.073-8.314 3.427-16.262 9.332-22.115a31.53 31.53 0 0 1 44.394 0c5.905 5.853 9.259 13.801 9.332 22.115s-3.141 16.321-8.941 22.277a31.53 31.53 0 0 1-22.033 9.526zm0-59.09a27.55 27.55 0 0 0-19.256 8.319c-5.071 5.203-7.881 12.199-7.818 19.464a27.55 27.55 0 0 0 55.098 0c.063-7.265-2.747-14.261-7.818-19.464a27.55 27.55 0 0 0-19.256-8.319h-.95z" class="D"/><path d="M128.68 171.58h-.18c-4.5-1.75-7.19-3.45-8.59-5.5a5.14 5.14 0 0 1-3.23-.44 6.5 6.5 0 0 1-2.79-2.62 2.54 2.54 0 0 1-1.162.496 2.55 2.55 0 0 1-1.258-.126 6.14 6.14 0 0 1-3-2.41 2.23 2.23 0 0 1-1.56.43c-3-.24-7-6.16-7.29-12.46a.52.52 0 0 1 .48-.53c.066-.003.131.008.193.03a.52.52 0 0 1 .167.102c.048.045.087.098.114.158a.5.5 0 0 1 .046.19c.28 6 4.11 11.33 6.38 11.51a1.26 1.26 0 0 0 .492-.042c.16-.046.308-.124.438-.228a12.29 12.29 0 0 1-1.445-4.61 12.28 12.28 0 0 1 .445-4.81c.86-3 1.62-4.18 2.54-4 1.72.43 1.49 7 .58 11.29-.138.774-.423 1.514-.84 2.18.59.989 1.479 1.763 2.54 2.21.283.108.59.132.886.07s.568-.208.784-.42c-.78-1.93-1-4.57.12-7.93 1.4-4.43 2-4.55 2.31-4.63a.65.65 0 0 1 .35.022c.113.038.213.107.29.198.93 1.05-.18 7.93-1.34 11.33-.136.409-.324.799-.56 1.16.537 1.082 1.411 1.959 2.49 2.5a4.41 4.41 0 0 0 2.28.43 10.12 10.12 0 0 1-.25-.58c-.79-2.15-.4-4.62 1.19-7.58 1.05-1.95 1.91-2.87 2.71-2.87.212.003.419.067.597.183a1.1 1.1 0 0 1 .403.477c.87 1.61.24 6.92-1.48 9.56-.403.605-.963 1.089-1.62 1.4 1.34 1.76 3.89 3.31 8 4.89.062.022.118.057.166.101s.087.098.114.158.042.124.044.189a.5.5 0 0 1-.034.192.51.51 0 0 1-.205.252c-.093.06-.204.087-.315.078zM123 155.11s-.57 0-1.83 2.35c-1.45 2.68-1.82 4.89-1.13 6.75a5.15 5.15 0 0 0 .3.67c.542-.224 1.002-.608 1.32-1.1 1.4-2.14 2.07-6.54 1.55-8.26-.07-.35-.21-.41-.21-.41zm-7.18-4.21c-.541 1.139-.989 2.319-1.34 3.53a11.38 11.38 0 0 0-.38 6.55l.09-.26a32.79 32.79 0 0 0 1.66-9.82h-.03zm-6.58-3.15c-.17.15-.66.78-1.35 3.22a11.24 11.24 0 0 0 .72 8.24 6.2 6.2 0 0 0 .45-1.4c1.07-4.91.77-9.35.21-10.06h-.03zM166.7 224a9 9 0 0 1-4.56-1.19c-.114-.069-.197-.179-.231-.308a.51.51 0 0 1 .051-.382c.033-.056.077-.106.129-.145s.112-.067.175-.083a.49.49 0 0 1 .194-.009c.065.01.126.033.182.067 3.57 2.09 8.18.63 9.13-.9a.88.88 0 0 0 .15-.67 8.12 8.12 0 0 1-5.13-1.46c-2.55-1.59-2.75-2.07-2.73-2.45.005-.109.039-.215.099-.307a.61.61 0 0 1 .241-.213c1-.5 5.51 1.57 7.39 2.81a3.67 3.67 0 0 1 .62.52 3.55 3.55 0 0 0 1.9-1.14c.279-.328.481-.714.59-1.13h-.2c-1.6.16-3.2-.53-4.91-2.11-1.18-1.08-1.63-1.83-1.48-2.42a.89.89 0 0 1 .265-.43.9.9 0 0 1 .455-.22c1.38-.35 4.8 1.11 6.19 2.64.31.333.53.739.64 1.18 1.31-.61 2.69-2 4.32-4.27.038-.054.086-.1.142-.135a.49.49 0 0 1 .183-.071c.065-.011.132-.009.196.006a.5.5 0 0 1 .179.08.51.51 0 0 1 .12.7c-1.89 2.64-3.47 4.14-5.05 4.75a3.69 3.69 0 0 1-.87 2c-.576.67-1.333 1.159-2.18 1.41.048.239.047.484-.001.723s-.143.465-.279.667c-.84 1.43-3.26 2.49-5.92 2.49zm-.89-6.94l1.51 1a8.01 8.01 0 0 0 3.6 1.32 24.67 24.67 0 0 0-5.11-2.32h0zm3.49-4.25a4.32 4.32 0 0 0 1.17 1.39c1.48 1.37 2.83 2 4.13 1.84h.32a1.81 1.81 0 0 0-.44-.83c-1.4-1.58-4.48-2.56-5.18-2.4z" class="B"/><path d="M305.43 143a58.83 58.83 0 0 0-3.2-14.22 46.29 46.29 0 0 0-7-12.19c-3.48-4.285-7.803-7.811-12.7-10.36-5.333-2.927-12.407-4.963-21.22-6.11-18.3-2.387-32.56.86-42.78 9.74s-16.953 25.88-20.2 51a139.38 139.38 0 0 0-1 28.34c.667 8.667 2.26 15.643 4.78 20.93 3.207 7.129 8.266 13.269 14.65 17.78 6.313 4.433 14.98 7.363 26 8.79 19.587 2.553 34.11-1.21 43.57-11.29s15.727-27.113 18.8-51.1c1.366-10.386 1.467-20.9.3-31.31h0z" class="C"/><path d="M251.77 226.43c-2.41-.08-5-.3-7.61-.64-9.16-1.19-16.24-3.51-21.06-6.89a32.66 32.66 0 0 1-11-13.4l-.05-.11c-1.92-4-3.18-9.75-3.73-17-.583-8.709-.274-17.454.92-26.1 3.57-27.72 10.94-39.29 16.49-44.11 6.48-5.62 15.23-8.16 26.73-7.76 2.36.08 4.86.29 7.43.62 7.38 1 13.23 2.6 17.37 4.86a29.79 29.79 0 0 1 9.31 7.49 35.25 35.25 0 0 1 5.35 9.27 47.78 47.78 0 0 1 2.56 11.55 118.7 118.7 0 0 1-.29 28.72c-2.77 21.54-8.13 36.68-15.92 45-5.78 6.16-14.45 9-26.51 8.54l.01-.04z" class="B"/><path d="M441 157.42l3.31-3.09-1.31-2.61a27.7 27.7 0 0 0 2.69-3.74l2.9.43 1.87-4.14-2.22-1.89c.478-1.464.829-2.966 1.05-4.49l2.85-.71.14-4.54-2.78-.9c-.122-1.538-.37-3.063-.74-4.56l2.35-1.75-1.6-4.25-2.91.23a28.19 28.19 0 0 0-2.43-3.92l1.51-2.5-3.11-3.32-2.6 1.33c-1.171-.997-2.422-1.897-3.74-2.69l.42-2.9-4.13-1.89-1.9 2.23a27.79 27.79 0 0 0-4.49-1l-.71-2.84-4.54-.17-.91 2.8a27.03 27.03 0 0 0-4.54.74l-1.74-2.35-4.26 1.59.24 2.92c-1.375.695-2.686 1.508-3.92 2.43l-2.52-1.51-3.32 3.09 1.29 2.55a26.53 26.53 0 0 0-2.7 3.74l-2.89-.43-1.88 4.14 2.23 1.9c-.462 1.462-.797 2.961-1 4.48l-2.86.71-.14 4.54 2.79.9a27.26 27.26 0 0 0 .73 4.56l-2.36 1.74 1.6 4.25 2.92-.22c.702 1.371 1.515 2.682 2.43 3.92l-1.51 2.5 3.11 3.32 2.6-1.33a27.4 27.4 0 0 0 3.74 2.69l-.43 2.89 4.14 1.89 1.9-2.22c1.468.452 2.969.786 4.49 1l.71 2.84 4.54.17.91-2.8c1.532-.116 3.051-.364 4.54-.74l1.74 2.35 4.26-1.59-.23-2.92a26.71 26.71 0 0 0 3.91-2.43l2.51 1.57zm-23.62-19.13a6.47 6.47 0 0 1-1.655-3.373c-.206-1.263-.033-2.559.497-3.724s1.395-2.146 2.483-2.819a6.47 6.47 0 0 1 3.632-.964 6.46 6.46 0 0 1 3.554 1.216 6.47 6.47 0 0 1 2.28 2.986c.448 1.199.53 2.504.236 3.749a6.47 6.47 0 0 1-1.887 3.249 6.46 6.46 0 0 1-2.152 1.344 6.45 6.45 0 0 1-2.505.412c-.854-.03-1.693-.229-2.469-.585s-1.475-.863-2.054-1.491h.04zM320 292.34l-10.34-7.15c-1.014-3.723-2.408-7.332-4.16-10.77l2.65-10.4-15-16.06-10.56 1.93c-3.313-1.985-6.822-3.623-10.47-4.89h0l-6.42-10.81-22-.75-7.14 10.34c-3.719 1.013-7.324 2.403-10.76 4.15l-10.4-2.65-16.06 15 1.93 10.54a56.27 56.27 0 0 0-4.88 10.49l-10.81 6.42-.75 22 10.35 7.14a54.8 54.8 0 0 0 4.15 10.82h0L196.65 338l15 16.06 10.49-1.92a57.18 57.18 0 0 0 10.54 4.9h0l6.41 10.79 22 .76 7.13-10.34a57.05 57.05 0 0 0 10.86-4.16l10.34 2.64 16.07-15-1.93-10.54c1.989-3.32 3.625-6.839 4.88-10.5h0l10.81-6.42.75-21.93zm-68.45 33.39a24.71 24.71 0 0 1-23.213-30.338c1.116-4.758 3.618-9.078 7.188-12.414a24.71 24.71 0 0 1 12.874-6.328c4.822-.791 9.771-.133 14.22 1.889a24.71 24.71 0 0 1 14.471 23.331 24.74 24.74 0 0 1-25.55 23.86h.01z" class="D"/><path d="M271.34 143.29l.13-3.79-2.33-.76a22.83 22.83 0 0 0-.62-3.8l2-1.46-1.34-3.56-2.44.2c-.574-1.144-1.243-2.238-2-3.27l1.26-2.11-2.6-2.77-2.18 1.12a23.07 23.07 0 0 0-3.12-2.26l.35-2.42-3.46-1.57-1.58 1.86a23.21 23.21 0 0 0-3.75-.88l-.59-2.37-3.8-.13-.75 2.32c-1.281.103-2.552.31-3.8.62l-1.47-2-3.56 1.33.2 2.44c-1.144.574-2.238 1.243-3.27 2l-2.1-1.27-2.78 2.59 1.12 2.19a21.78 21.78 0 0 0-2.25 3.13l-2.42-.37-1.58 3.46 1.87 1.58c-.406 1.224-.7 2.483-.88 3.76l-2.38.6-.13 3.78 2.33.76a22.64 22.64 0 0 0 .62 3.81l-2 1.45 1.34 3.56 2.44-.2a21.48 21.48 0 0 0 2 3.27l-1.27 2.11 2.6 2.77 2.18-1.11a23.15 23.15 0 0 0 3.12 2.25l-.36 2.42 3.46 1.57 1.59-1.85c1.227.394 2.485.685 3.76.87l.59 2.38 3.79.13.75-2.33a22.64 22.64 0 0 0 3.81-.62l1.45 2 3.56-1.33-.19-2.43a24.89 24.89 0 0 0 3.27-2l2.1 1.26 2.78-2.59-1.11-2.19c.838-.971 1.587-2.016 2.24-3.12l2.42.36 1.58-3.46-1.86-1.58a22.2 22.2 0 0 0 .87-3.75l2.39-.6zm-25.6 12.27c-2.962-.108-5.825-1.091-8.229-2.826s-4.239-4.141-5.276-6.918-1.227-5.798-.548-8.683 2.197-5.504 4.364-7.527 4.883-3.358 7.808-3.838 5.926-.083 8.625 1.142a14.99 14.99 0 0 1 6.54 5.737c1.566 2.517 2.351 5.441 2.256 8.403-.063 1.975-.516 3.917-1.332 5.716a15.01 15.01 0 0 1-3.423 4.768c-1.444 1.348-3.14 2.398-4.991 3.089s-3.82 1.009-5.794.937h0z" class="C"/><path d="M235.34 210a.52.52 0 0 1-.36-.16l-2.09-2.16a17.54 17.54 0 0 1-3.15-.58l-3.27 1.44c-.072.039-.153.06-.235.06s-.163-.021-.235-.06l-5.48-3.63a.5.5 0 0 1-.167-.186.49.49 0 0 1-.053-.244v-3.56a17.22 17.22 0 0 1-1.76-2.68l-2.81-1.08c-.079-.03-.148-.08-.203-.145a.5.5 0 0 1-.107-.225l-1.3-6.44a.51.51 0 0 1 .14-.46l2.16-2.09a18.72 18.72 0 0 1 .58-3.15l-1.44-3.27c-.039-.072-.06-.153-.06-.235s.021-.163.06-.235l3.63-5.48c.045-.072.109-.131.185-.169a.46.46 0 0 1 .245-.051l3.56.05a16.51 16.51 0 0 1 2.68-1.76l1.09-2.81a.5.5 0 0 1 .14-.202c.063-.054.139-.091.22-.108l6.44-1.3c.082-.018.168-.015.248.01a.48.48 0 0 1 .212.13l2.09 2.16c1.069.097 2.126.292 3.16.58l3.26-1.44c.074-.039.156-.06.24-.06s.166.021.24.06l5.47 3.63c.069.049.126.113.166.188a.54.54 0 0 1 .064.242l-.06 3.56a17.23 17.23 0 0 1 1.77 2.68l2.8 1.09a.5.5 0 0 1 .202.14c.054.063.091.139.108.22l1.31 6.44c.015.082.011.167-.014.247s-.067.153-.126.213l-2.17 2.1c-.1 1.062-.294 2.113-.58 3.14l1.44 3.27c.039.074.06.156.06.24s-.021.166-.06.24l-3.58 5.43a.52.52 0 0 1-.183.162.51.51 0 0 1-.237.058l-3.57-.05c-.837.663-1.731 1.252-2.67 1.76l-1.09 2.81a.5.5 0 0 1-.144.204.49.49 0 0 1-.226.106l-6.44 1.36h-.1zm-5.63-4c.046-.009.094-.009.14 0 1.08.315 2.189.519 3.31.61a.56.56 0 0 1 .32.15l2 2.1 5.9-1.19 1.06-2.74a.55.55 0 0 1 .24-.26c.999-.517 1.941-1.137 2.81-1.85a.47.47 0 0 1 .33-.11l3.47.05 3.32-5-1.4-3.18c-.04-.11-.04-.23 0-.34a17.48 17.48 0 0 0 .61-3.31c.01-.121.063-.235.15-.32l2.1-2-1.19-5.9-2.73-1.06c-.117-.043-.214-.129-.27-.24a16.47 16.47 0 0 0-1.85-2.81.52.52 0 0 1-.11-.32v-3.48l-5-3.32-3.17 1.4c-.113.04-.237.04-.35 0a17.03 17.03 0 0 0-3.32-.61.56.56 0 0 1-.32-.15l-2-2.1-5.9 1.2-1.05 2.78a.51.51 0 0 1-.23.27c-1.003.515-1.948 1.135-2.82 1.85-.043.039-.094.069-.149.088a.43.43 0 0 1-.171.022l-3.47-.05-3.33 5 1.4 3.18a.5.5 0 0 1 0 .43 17.19 17.19 0 0 0-.58 3.23.5.5 0 0 1-.15.32l-2.1 2 1.2 5.9 2.72 1.06a.55.55 0 0 1 .28.26c.516.991 1.132 1.926 1.84 2.79.074.09.113.204.11.32v3.48l5 3.32 3.18-1.4c.052-.033.11-.057.17-.07h0zm4.91-3.24c-2.407-.002-4.768-.656-6.833-1.893s-3.756-3.011-4.894-5.132-1.679-4.511-1.567-6.915a13.33 13.33 0 0 1 2.204-6.74h0a13.33 13.33 0 0 1 5.078-4.532c2.057-1.046 4.349-1.54 6.654-1.434a13.33 13.33 0 0 1 11.136 7.016 13.34 13.34 0 0 1 1.579 6.621 13.33 13.33 0 0 1-1.896 6.537 13.32 13.32 0 0 1-4.876 4.749 13.33 13.33 0 0 1-6.585 1.723zm-10.25-20.13a12.32 12.32 0 0 0-2.051 6.852 12.33 12.33 0 0 0 2.101 6.836 12.32 12.32 0 0 0 5.545 4.517c2.255.925 4.732 1.16 7.12.676a12.33 12.33 0 0 0 6.296-3.393c1.717-1.729 2.882-3.928 3.35-6.319a12.33 12.33 0 0 0-.725-7.116c-.94-2.247-2.526-4.166-4.556-5.513a12.27 12.27 0 0 0-4.448-1.841 12.26 12.26 0 0 0-4.813.012 12.27 12.27 0 0 0-7.819 5.289h0zm76.92-12.98l-3-2.06a16.57 16.57 0 0 0-1.2-3.1l.76-3-4.32-4.63-3 .56c-.952-.567-1.956-1.039-3-1.41h0l-1.85-3.12-6.33-.21-2.06 3a15.96 15.96 0 0 0-3.1 1.2l-3-.77-4.63 4.33.56 3a15.67 15.67 0 0 0-1.41 3l-3.11 1.85-.22 6.33 3 2.06a16.14 16.14 0 0 0 1.2 3.12h0l-.76 3 4.32 4.63 3-.55c.952.566 1.957 1.038 3 1.41h0l1.84 3.11 6.34.22 2.05-3c1.081-.293 2.13-.695 3.13-1.2h0l3 .76 4.63-4.32-.55-3c.568-.951 1.041-1.956 1.41-3h0l3.11-1.85.19-6.36zm-19.73 9.62a7.12 7.12 0 0 1-3.912-1.335c-1.144-.822-2.018-1.965-2.512-3.284a7.12 7.12 0 0 1-.263-4.125c.322-1.371 1.043-2.616 2.073-3.577a7.12 7.12 0 0 1 3.711-1.822c1.389-.227 2.815-.036 4.097.547s2.362 1.534 3.103 2.731a7.12 7.12 0 0 1 1.063 3.995c-.068 1.886-.881 3.668-2.26 4.956a7.13 7.13 0 0 1-5.1 1.914h0z" fill="#fff"/><g class="C"><path opacity=".3" d="M287.12 212.87l.28-2.56-1.54-.62a15.95 15.95 0 0 0-.22-2.6l1.39-.89-.71-2.47h-1.66a14.79 14.79 0 0 0-1.19-2.31l.94-1.36-1.6-2-1.53.64a16.13 16.13 0 0 0-2-1.68l.37-1.62-2.25-1.24-1.18 1.19a15.86 15.86 0 0 0-2.48-.79l-.28-1.63-2.55-.29-.63 1.54c-.869.004-1.735.084-2.59.24l-.89-1.42-2.47.73v1.66a14.88 14.88 0 0 0-2.31 1.2l-1.36-1-2 1.6.64 1.53c-.61.621-1.168 1.289-1.67 2l-1.62-.36-1.23 2.25 1.18 1.17a14.98 14.98 0 0 0-.79 2.49l-1.64.27-.27 2.55 1.53.64c.001.865.078 1.728.23 2.58l-1.41.89.72 2.47H256c.334.799.735 1.569 1.2 2.3l-1 1.36 1.6 2 1.55-.65a14.59 14.59 0 0 0 2 1.67L261 224l2.25 1.23 1.17-1.17c.805.323 1.634.58 2.48.77l.29 1.64 2.55.28.62-1.53c.885-.001 1.767-.075 2.64-.22l.89 1.41 2.46-.72v-1.66c.804-.338 1.58-.739 2.32-1.2l1.34 1 2-1.61-.65-1.53c.616-.62 1.181-1.289 1.69-2l1.61.36 1.24-2.25-1.18-1.16a16.4 16.4 0 0 0 .77-2.48l1.63-.29zm-12.87-1c-.423.774-1.066 1.406-1.848 1.814a4.46 4.46 0 0 1-2.545.481c-.878-.095-1.707-.448-2.384-1.014s-1.169-1.321-1.417-2.168a4.45 4.45 0 0 1 .026-2.589 4.46 4.46 0 0 1 1.46-2.139c.688-.553 1.524-.889 2.403-.967s1.761.108 2.535.532a4.47 4.47 0 0 1 1.77 6.05h0z"/><path d="M323 119.12l.52-1.25c.354-.199.688-.43 1-.69h1.16l1.36-2-.44-1.07a6.23 6.23 0 0 0 .4-1.11h0l1-.92-.42-2.35-1.26-.52c-.197-.355-.429-.69-.69-1v-1.16l-1.95-1.36-1.08.45a5.55 5.55 0 0 0-1.22-.28l-.92-1-2.34.42-.53 1.26c-.371.192-.723.42-1.05.68h0-1.15l-1.36 2 .44 1.07a6.22 6.22 0 0 0-.28 1.22l-1 .93.42 2.34 1.26.52a5.76 5.76 0 0 0 .68 1h0v1.15l2 1.36 1.07-.44a6.46 6.46 0 0 0 1.23.27h0l.92 1 2.23-.52zm-5-6.48a2.68 2.68 0 0 1 1.187-2.732c.446-.287.967-.435 1.498-.426a2.68 2.68 0 0 1 2.446 1.7 2.67 2.67 0 0 1 .124 1.551 2.68 2.68 0 0 1-2.145 2.067 2.69 2.69 0 0 1-3.11-2.16h0zm-22.39-.15l-.77-.65a19.89 19.89 0 0 1 6-5l.47.88a18.87 18.87 0 0 0-5.7 4.77h0zm7.98-5.69l-.39-.92c3.693-1.605 7.731-2.251 11.74-1.88l-.1 1a22.79 22.79 0 0 0-11.25 1.8h0zm-1.89 6.92l-.82-.56a16.74 16.74 0 0 1 9.87-6.39l.19 1a15.72 15.72 0 0 0-9.24 5.95h0zm124.13 117.93l-15.7-2.12 10.38-77.81-30.28-4.08-73.45 67.62-3.86 28.93 63.29 8.54-3.16 23.67 30.28 4.08 3.16-23.66 15.7 2.12 3.64-27.29zm-79.42-10.72l38.76-35.33-5.32 39.84-33.44-4.51z"/></g><g class="B"><path d="M394.13 279.74H394c-.13-.024-.245-.099-.319-.208a.5.5 0 0 1-.081-.372L417 151.22a.51.51 0 0 1 .21-.316c.108-.075.24-.105.37-.084a.5.5 0 0 1 .32.208c.074.108.103.242.08.372l-23.35 127.93c-.023.116-.086.22-.177.294s-.205.116-.323.116h0zm20.7-126.37c-.008.217-.102.423-.261.571a.82.82 0 0 1-.589.219c-.217-.008-.423-.102-.571-.261a.82.82 0 0 1-.219-.589c.008-.217.102-.423.261-.571a.82.82 0 0 1 1.16.042c.148.16.227.372.219.589zm-3.33 17.3a.82.82 0 0 1-.534.738.81.81 0 0 1-.475.029.82.82 0 0 1-.411-.239c-.11-.119-.183-.268-.209-.428s-.004-.324.064-.472.177-.271.315-.356a.82.82 0 0 1 .772-.048c.098.045.186.108.259.187a.82.82 0 0 1 .168.273.81.81 0 0 1 .051.316zM408.17 188a.82.82 0 0 1-.074.312c-.045.098-.108.186-.187.259a.82.82 0 0 1-.273.168.81.81 0 0 1-.316.051c-.107-.003-.213-.026-.311-.07s-.186-.107-.26-.185-.13-.17-.168-.27a.81.81 0 0 1-.051-.315.83.83 0 0 1 .071-.315c.044-.099.108-.188.187-.263a.82.82 0 0 1 .592-.222c.217.01.421.105.568.264a.83.83 0 0 1 .222.586zm-6.56 18a.82.82 0 0 1-1.63 0c-.013-.115-.001-.231.034-.34s.093-.211.17-.297a.82.82 0 0 1 .276-.202c.106-.047.22-.071.335-.071s.229.024.335.071a.82.82 0 0 1 .276.202c.077.086.135.187.17.297s.047.225.034.34h0zm-.11 16.57c-.002.108-.027.215-.071.313s-.108.188-.187.261a.82.82 0 0 1-1.33-.318.81.81 0 0 1-.029-.475.82.82 0 0 1 .239-.411c.119-.11.268-.183.428-.209s.324-.004.472.064.271.177.356.315a.81.81 0 0 1 .122.46zm-3.33 17.3a.82.82 0 0 1-.527.746c-.152.058-.318.069-.476.033a.82.82 0 0 1-.414-.238c-.111-.118-.185-.267-.212-.427a.81.81 0 0 1 .063-.473c.068-.148.176-.273.315-.359s.299-.128.461-.122a.82.82 0 0 1 .568.258c.147.157.227.366.222.582h0zm-3.33 17.3a.83.83 0 0 1-.261.575c-.159.149-.371.23-.589.225a.82.82 0 0 1-.312-.074c-.098-.045-.186-.108-.259-.187a.82.82 0 0 1-.168-.273.81.81 0 0 1-.051-.316.82.82 0 0 1 .072-.312c.044-.098.107-.187.186-.261a.83.83 0 0 1 .587-.222.82.82 0 0 1 .312.072.8.8 0 0 1 .26.186c.074.078.132.171.17.271a.83.83 0 0 1 .053.316h0zm-3.34 17.31a.82.82 0 0 1-.534.738.81.81 0 0 1-.475.029.82.82 0 0 1-.411-.239c-.11-.119-.183-.268-.209-.428s-.004-.324.064-.472.177-.271.315-.356a.82.82 0 0 1 .46-.122.82.82 0 0 1 .313.071c.099.044.188.108.261.187a.82.82 0 0 1 .216.592h0z"/><path d="M400.79 206.45a.49.49 0 0 1-.309-.11c-.088-.071-.148-.17-.171-.28a.48.48 0 0 1-.005-.196c.011-.065.035-.127.07-.183s.081-.104.135-.142a.5.5 0 0 1 .18-.079l2.48-.53a.49.49 0 0 1 .198-.004c.066.011.128.036.184.073a.52.52 0 0 1 .142.138.51.51 0 0 1 .077.378c-.012.065-.038.126-.074.181s-.083.102-.137.138a.51.51 0 0 1-.18.076l-2.48.53-.11.01zm8.29-9.21a85.07 85.07 0 0 0-3 9.36c-.75 3.53-.79 11.43-.79 11.43"/><path d="M405.29 218.53a.52.52 0 0 1-.351-.156c-.093-.094-.147-.221-.149-.354 0-.32.06-8 .81-11.52.814-3.203 1.816-6.355 3-9.44a.49.49 0 0 1 .098-.179c.045-.052.1-.095.161-.125a.51.51 0 0 1 .198-.05c.069-.003.138.008.202.033a.51.51 0 0 1 .171.111.52.52 0 0 1 .113.17c.025.064.037.133.035.202a.49.49 0 0 1-.048.198c-1.178 3.036-2.18 6.138-3 9.29-.73 3.44-.78 11.24-.79 11.32a.5.5 0 0 1-.45.5z"/></g><path d="M179.94 222.63l-15.58 2.83-14.15-77.22-30.06 5.46-49 87 5.26 28.71L139.26 258l4.3 23.48 30.06-5.48-4.3-23.48 15.58-2.83-4.96-27.06zM101.09 237l26-45.57 7.25 39.54-33.25 6.03z" class="C"/><path d="M222.45 304.84c1.39-22.4-1.16-63.13 40.95-57.73 45.13 5.77 32.22 58.55 32.22 58.55l-73.17-.82z" class="B"/><path d="M251.51 291.38c10.151 0 18.38-8.229 18.38-18.38s-8.229-18.38-18.38-18.38-18.38 8.229-18.38 18.38 8.229 18.38 18.38 18.38z" fill="#fff"/><g class="B"><path d="M253.93 254.65c-8.71-1.48-18 4.93-18.93 11.43l34.51 3.18c-1.22-7.41-8.68-13.43-15.58-14.61z"/><path d="M265.58 272.54c-.25 4.81-2.87 8.58-5.85 8.42s-5.2-4.17-5-9 2.87-8.58 5.85-8.42 5.24 4.2 5 9z"/></g><path d="M251.51 292.38c-3.833 0-7.58-1.137-10.767-3.266a19.38 19.38 0 0 1-7.138-8.698c-1.467-3.541-1.85-7.438-1.103-11.197a19.39 19.39 0 0 1 15.227-15.227c3.76-.747 7.656-.364 11.197 1.103a19.38 19.38 0 0 1 8.698 7.138c2.129 3.187 3.266 6.934 3.266 10.767a19.4 19.4 0 0 1-19.38 19.38h0zm0-36.75a17.38 17.38 0 0 0-16.058 10.731c-1.315 3.177-1.659 6.672-.987 10.043a17.37 17.37 0 0 0 4.759 8.899 17.38 17.38 0 0 0 8.901 4.754c3.373.67 6.867.324 10.043-.993a17.38 17.38 0 0 0 7.798-6.405c1.908-2.86 2.926-6.221 2.924-9.659-.005-4.607-1.838-9.023-5.097-12.28a17.39 17.39 0 0 0-12.283-5.09h0z" class="C"/><path opacity=".3" d="M290.49 304.28h-.12c-.064-.014-.125-.041-.179-.079s-.099-.086-.133-.142a.49.49 0 0 1-.068-.184c-.01-.065-.006-.131.01-.195 0-.13 3.22-13.69-.09-27.4a.51.51 0 0 1 .062-.389c.071-.116.185-.199.318-.231a.51.51 0 0 1 .389.062c.116.071.199.185.231.318 3.37 14 .12 27.74.09 27.87-.03.111-.097.208-.189.275a.5.5 0 0 1-.321.095h0zm-2.79-35.52a.52.52 0 0 1-.46-.29c-1.243-2.747-2.836-5.322-4.74-7.66a.5.5 0 0 1 .07-.7c.051-.043.11-.075.173-.094s.131-.026.197-.02a.48.48 0 0 1 .188.058.51.51 0 0 1 .152.126 36.5 36.5 0 0 1 4.87 7.87c.028.059.045.123.048.188a.47.47 0 0 1-.029.193c-.022.061-.057.118-.101.166a.49.49 0 0 1-.158.113c-.066.031-.137.048-.21.05h0z" fill="#fff"/><g class="B"><path d="M128.73 409.92h-.37c-1.326-.037-2.583-.6-3.495-1.563s-1.402-2.251-1.365-3.577.6-2.583 1.563-3.495 2.251-1.402 3.577-1.365h.09c2.89 0 9.84-3.51 24.38-26.43a5 5 0 0 1 1.504-1.519c.605-.392 1.287-.648 2.001-.752s1.44-.051 2.131.152a5 5 0 0 1 1.874 1.029 207.46 207.46 0 0 0 37.14 25.48 4.99 4.99 0 0 1 1.62 1.178c.455.498.805 1.082 1.028 1.719a4.98 4.98 0 0 1 .271 1.985c-.045.673-.225 1.33-.53 1.931s-.729 1.136-1.246 1.569a4.99 4.99 0 0 1-1.761.954c-.646.196-1.324.259-1.995.186a4.99 4.99 0 0 1-1.907-.612 212.75 212.75 0 0 1-34.8-23.14c-12.19 18.35-21.23 26.27-29.71 26.27z"/><path d="M159.67 371.5h-.43c-.786-.114-1.494-.535-1.971-1.17s-.68-1.434-.569-2.22c.71-5-.17-23.63-6.48-38.13a3 3 0 0 1-.134-2.031c.194-.672.616-1.255 1.194-1.649 13.7-9.33 42.88-10.45 44.12-10.49a3 3 0 0 1 1.156.19c.369.139.707.349.995.618a3.01 3.01 0 0 1 .682.952c.163.359.254.746.267 1.14a3 3 0 0 1-.19 1.156c-.139.369-.349.707-.618.995a3.01 3.01 0 0 1-.952.682c-.359.163-.746.254-1.14.267-.27 0-25.78 1-38.88 8.2 5.58 14.44 6.85 32.43 5.92 38.94a3 3 0 0 1-2.97 2.55z"/></g><path d="M164.71 367.62c-2-4.71-11-4.18-16.27-.14-2.82 2.15-6.64 8.64-7 11a3.55 3.55 0 0 0 .052 1.695 3.54 3.54 0 0 0 .835 1.475c.393.418.882.733 1.424.919a3.55 3.55 0 0 0 1.689.151c3.45-.3 8.18-5.31 8.18-5.31-3.15 3.09.92 5.27 7 .8 3.32-2.49 6.32-5.32 4.09-10.59z" class="C"/><path d="M336.71 306.16a.33.33 0 0 1-.14 0 .48.48 0 0 1-.175-.088c-.052-.041-.095-.092-.127-.149a.48.48 0 0 1-.058-.188c-.007-.066 0-.132.02-.195 1.33-4.64 2.78-7.47 4.69-9-.299-1.075-.243-2.219.16-3.26.466-1.215 1.289-2.261 2.36-3-.291-.315-.498-.698-.601-1.114s-.1-.852.011-1.266c.362-1.253 1.111-2.359 2.14-3.16a2.24 2.24 0 0 1-.57-1.51c0-3 5.51-7.52 11.76-8.38a.5.5 0 0 1 .374.097c.107.081.177.2.196.333a.5.5 0 0 1-.097.374c-.081.107-.2.177-.333.196-5.94.81-10.92 5.11-10.9 7.38a1.31 1.31 0 0 0 .36.91c1.345-.912 2.859-1.547 4.452-1.868a12.24 12.24 0 0 1 4.828-.002c3.07.59 4.32 1.24 4.18 2.17-.28 1.75-6.81 2.12-11.19 1.6-.785-.071-1.548-.292-2.25-.65-.943.671-1.644 1.629-2 2.73a1.57 1.57 0 0 0 .49 1.64c1.86-1 4.47-1.36 7.92-.6 4.53 1 4.7 1.55 4.81 1.88.035.117.038.241.008.359s-.091.225-.178.311c-.95 1-7.9.53-11.39-.33a4.9 4.9 0 0 1-1.21-.45 5.45 5.45 0 0 0-2.26 2.71 4.23 4.23 0 0 0-.23 2.3c.178-.106.362-.203.55-.29 2.07-1 4.57-.82 7.66.5 2 .87 3 1.65 3.1 2.44.004.203-.046.403-.147.579a1.11 1.11 0 0 1-.423.421c-1.53 1-6.87.86-9.65-.62-.639-.347-1.172-.862-1.54-1.49-1.63 1.5-2.95 4.17-4.15 8.36-.036.091-.098.169-.178.226s-.174.09-.272.094h0zm5.42-9.33a3 3 0 0 0 1.22 1.22c2.26 1.2 6.7 1.47 8.36.8.34-.14.39-.25.39-.25s-.05-.56-2.5-1.61c-2.8-1.2-5-1.37-6.83-.52-.221.106-.434.227-.64.36h0zm3.34-6.57l.25.07c3.256.751 6.608 1.003 9.94.75-1.182-.438-2.4-.773-3.64-1-2.154-.583-4.432-.521-6.55.18h0zm1.26-5.62a5.9 5.9 0 0 0 1.43.32c5 .59 9.39-.1 10-.73-.17-.15-.84-.58-3.32-1.05-2.791-.557-5.689-.035-8.11 1.46h0zm-140.2 123.61c.66-.21.44-.85-.3-.85h-13.54c-25.78-2.73-43.79.93-32.44 1.79s-.8.68-9.09 3.82 61.65 3.93 68 0c5.84-3.62-21.77-1.83-12.63-4.76z" class="B"/><path d="M303.47 412.24l-117.8-3.91-4.89-114.22 139.11 3.11-16.42 115.02z" class="C"/><path d="M222.45 410.05c-.126 0-.247-.047-.34-.132s-.15-.202-.16-.328l-9.44-114.72a.51.51 0 0 1 .46-.54.52.52 0 0 1 .54.46L223 409.51c.005.066-.002.132-.022.195a.5.5 0 0 1-.249.292.5.5 0 0 1-.189.053h-.09z" class="B"/><path d="M303.47 412.24l31.66-4.82 9.97-106.21-25.21-3.99-16.42 115.02z" class="C"/><path opacity=".2" d="M303.47 412.24l31.66-4.82 9.97-106.21-25.21-3.99-16.42 115.02z" fill="#000"/><path d="M195.73 386.32l-2.9-67.87a12.26 12.26 0 0 1 .803-4.917 12.28 12.28 0 0 1 2.691-4.193c1.174-1.198 2.582-2.144 4.136-2.777s3.222-.94 4.9-.903l88.06 2c1.734.039 3.44.446 5.005 1.192s2.955 1.817 4.077 3.14 1.95 2.869 2.431 4.535a12.28 12.28 0 0 1 .357 5.133L295.53 390A12.27 12.27 0 0 1 283 400.55l-75.39-2.5a12.27 12.27 0 0 1-8.243-3.533c-2.203-2.176-3.502-5.104-3.637-8.197h0z" class="B"/><path d="M205.25 326.49l13.62.43-.11 3.51-8.53-.27-.08 2.62 7.91.25-.11 3.36-7.91-.26-.1 3.25 8.77.28-.12 3.72-13.87-.44.53-16.45zm16.15 16.98l.52-16.45 8.48.27c1.216-.006 2.426.169 3.59.52a3.81 3.81 0 0 1 2 1.56 4.64 4.64 0 0 1 .687 1.762 4.63 4.63 0 0 1-.073 1.89c-.154.618-.433 1.198-.821 1.704a4.64 4.64 0 0 1-1.433 1.234 6.16 6.16 0 0 1-1.81.6 5.12 5.12 0 0 1 1.31.64c.292.271.553.573.78.9.258.311.485.646.68 1l2.31 4.85-5.74-.19-2.56-5.11a3.93 3.93 0 0 0-.88-1.3c-.359-.26-.787-.406-1.23-.42h-.45l-.21 6.67-5.15-.13zm5.42-9.62l2.14.07c.454-.028.906-.091 1.35-.19a1.35 1.35 0 0 0 .85-.49c.216-.267.339-.597.35-.94.019-.229-.013-.459-.095-.673a1.53 1.53 0 0 0-.375-.567 3.1 3.1 0 0 0-1.88-.49l-2.24-.07-.1 3.35zM239.28 344l.52-16.45 8.47.27a12.16 12.16 0 0 1 3.59.52 3.77 3.77 0 0 1 2 1.56c.508.801.746 1.744.68 2.69a4.42 4.42 0 0 1-.617 2.269 4.43 4.43 0 0 1-1.693 1.631 6.29 6.29 0 0 1-1.81.6 5.01 5.01 0 0 1 1.3.64 4.85 4.85 0 0 1 .79.89 6.85 6.85 0 0 1 .68 1l2.31 4.84-5.74-.18-2.56-5.11c-.205-.487-.504-.929-.88-1.3a2.08 2.08 0 0 0-1.24-.42h-.44l-.22 6.68-5.14-.13zm5.41-9.62l2.15.06a7.22 7.22 0 0 0 1.35-.18c.333-.049.633-.225.84-.49a1.46 1.46 0 0 0 .35-.94c.022-.228-.008-.458-.088-.673s-.207-.408-.372-.567c-.558-.369-1.223-.542-1.89-.49l-2.23-.07-.11 3.35zm11.63 1.98a7.8 7.8 0 0 1 .521-3.37c.421-1.071 1.073-2.035 1.911-2.824a7.79 7.79 0 0 1 2.933-1.738c1.094-.355 2.254-.464 3.395-.318 1.152-.038 2.299.156 3.375.57s2.056 1.039 2.885 1.84c.74.852 1.298 1.845 1.642 2.92a8.31 8.31 0 0 1 .358 3.33 10.21 10.21 0 0 1-1.12 4.7c-.674 1.19-1.682 2.157-2.9 2.78-1.435.686-3.023.989-4.61.88a10.58 10.58 0 0 1-4.58-1 7 7 0 0 1-2.86-2.9 9.21 9.21 0 0 1-.95-4.87h0zm5.08.18a5.56 5.56 0 0 0 .81 3.61c.315.352.698.637 1.126.838a3.54 3.54 0 0 0 1.364.331c.472.018.943-.06 1.384-.228a3.53 3.53 0 0 0 1.186-.751 6.13 6.13 0 0 0 1-3.8c.134-1.205-.16-2.419-.83-3.43A3.23 3.23 0 0 0 265 332a3.1 3.1 0 0 0-1.37.212 3.11 3.11 0 0 0-1.14.788 5.56 5.56 0 0 0-1.09 3.54h0zm14.51 8.67l.52-16.46 8.47.27a12.5 12.5 0 0 1 3.59.52c.823.281 1.527.83 2 1.56a4.49 4.49 0 0 1 .68 2.69 4.42 4.42 0 0 1-2.31 3.91 6.6 6.6 0 0 1-1.81.59 4.98 4.98 0 0 1 1.3.65 4.85 4.85 0 0 1 .79.89c.258.311.485.646.68 1l2.31 4.85-5.74-.18-2.56-5.12a3.91 3.91 0 0 0-.88-1.29 2.16 2.16 0 0 0-1.24-.43h-.44l-.22 6.68-5.14-.13zm5.41-9.63l2.15.07a7.22 7.22 0 0 0 1.35-.18 1.35 1.35 0 0 0 .84-.49 1.48 1.48 0 0 0 .35-1c.022-.226-.009-.455-.088-.668s-.207-.405-.372-.562c-.558-.369-1.223-.542-1.89-.49l-2.23-.07-.11 3.39zm2.68 37.58a1.31 1.31 0 0 1-.546-.107c-.173-.074-.327-.184-.454-.323l-8.56-9.37-9.24 8.44a1.31 1.31 0 0 1-1.85-.08l-8.56-9.37-9.24 8.44a1.31 1.31 0 0 1-1.85-.08l-8.57-9.37-9.23 8.44c-.135.122-.293.215-.465.274a1.33 1.33 0 0 1-.535.066c-.347-.021-.673-.175-.91-.43l-8.56-9.36-9.23 8.43a1.32 1.32 0 0 1-.947.344c-.348-.015-.676-.168-.913-.424-.117-.127-.207-.275-.266-.438s-.085-.334-.076-.506a1.29 1.29 0 0 1 .432-.906l10.2-9.33a1.32 1.32 0 0 1 .947-.344c.348.015.676.168.913.424l8.56 9.37 9.23-8.44a1.37 1.37 0 0 1 .95-.34 1.33 1.33 0 0 1 .91.43l8.56 9.37 9.24-8.44a1.29 1.29 0 0 1 .436-.268c.162-.06.334-.087.506-.079a1.3 1.3 0 0 1 .497.122 1.31 1.31 0 0 1 .411.305l8.56 9.37 9.24-8.44a1.31 1.31 0 0 1 1.85.08L285 371c.171.191.282.428.321.681s.003.512-.103.745a1.32 1.32 0 0 1-.494.568c-.216.137-.468.209-.724.206v-.04z" fill="#fff"/><g class="C"><path d="M125.75 414.67l-6.26-2.99-5.58-27.17 3.03-3.33 8.81 33.49z"/><path d="M125.75 414.67l8.31-4.86-7.12-22.38-10-6.25 8.81 33.49z"/></g><path opacity=".2" d="M125.75 414.67l8.31-4.86-7.12-22.38-10-6.25 8.81 33.49z" fill="#000"/><path d="M262 419.61h-.69a5 5 0 0 1-3.496-1.56c-.912-.963-1.405-2.249-1.369-3.575a5 5 0 0 1 1.56-3.496c.963-.912 2.249-1.405 3.575-1.369 7.7.25 24-4.48 33.32-13.52.563-.552 1.248-.963 2-1.2 15.79-4.74 21.66 4.83 21.9 5.24l-8.6 5.09c.03.064.067.124.11.18-.09-.13-2.33-3-9.45-1.24-11.69 10.66-29.63 15.45-38.86 15.45z" class="B"/><g class="C"><path d="M261.39 426.25l-18.21-1.14-1.43-33.58 24.47.91-4.83 33.81z"/><path d="M261.39 426.25l4.26-4.24 2.64-20.93-2.07-8.64-4.83 33.81z"/></g><path opacity=".2" d="M261.39 426.25l4.26-4.24 2.64-20.93-2.07-8.64-4.83 33.81z" fill="#000"/><path d="M366.91 413.54a3 3 0 0 1-1.81-.61c-10.4-7.9-24.45-21.93-29.84-35.46-.081-.196-.138-.401-.17-.61-2.63-15.64-5.14-48.55-5.25-49.94-.03-.394.019-.79.142-1.165a3.01 3.01 0 0 1 .578-1.022c.52-.605 1.259-.978 2.055-1.038s1.582.199 2.187.72a3.01 3.01 0 0 1 1.038 2.055c0 .33 2.57 33.56 5.13 49.07 5.38 13.16 20 26.67 27.78 32.61.501.38.87.908 1.054 1.509a3 3 0 0 1-.025 1.841c-.201.596-.584 1.113-1.096 1.479a3 3 0 0 1-1.753.561h-.02zm13.87 1.51c-2.32 0-4.95-1.05-7.82-3.12-.644-.467-1.077-1.17-1.203-1.956a3 3 0 0 1 .533-2.234c.467-.644 1.17-1.077 1.956-1.203a3 3 0 0 1 2.234.533c2.48 1.79 3.83 2 4.3 2 .796 0 1.559.316 2.121.879a3 3 0 0 1 .879 2.121c0 .796-.316 1.559-.879 2.121a3 3 0 0 1-2.121.879v-.02z" class="B"/><path d="M373.8 411.84c3.21-9.53 16.37-7.65 20.91-6.23a47.8 47.8 0 0 1 11.07 4.8c2.45 1.6 2.49 4.29-.78 5.82-4 1.88-14.16.21-14.16.21 5.24 2.29 0 6-9.21 2.36-2.99-1.18-8.96-3.46-7.83-6.96z" class="C"/><g class="B"><path d="M341.86 331c-1.19 8.1-7.9 14.07-13.36 13.27s-5.68-8-4.49-16.14 3.35-14 8.81-13.2 10.23 8 9.04 16.07zm-131.98-32.3a.82.82 0 1 0 0-1.64.82.82 0 1 0 0 1.64z"/><use xlink:href="#B"/><path d="M219.13 400.68c0 .162-.048.321-.138.456s-.218.24-.368.302a.82.82 0 0 1-.474.046c-.159-.031-.305-.109-.42-.224s-.193-.261-.224-.42a.82.82 0 0 1 .046-.474c.062-.15.168-.278.302-.368s.294-.138.456-.138a.82.82 0 0 1 .82.82h0z"/><use xlink:href="#B" x="8.43" y="102.81"/><path d="M82.51 416.42a9.61 9.61 0 0 1-4.115-1.141 9.63 9.63 0 0 1-3.215-2.809.5.5 0 0 1-.099-.382c.01-.067.034-.131.07-.189a.51.51 0 0 1 .139-.146.49.49 0 0 1 .386-.079.5.5 0 0 1 .185.08.48.48 0 0 1 .138.146c1.87 2.7 6 4.13 7.8 3.28a1.3 1.3 0 0 0 .47-.34 6.04 6.04 0 0 1-2.32-1.8 6.05 6.05 0 0 1-1.2-2.68c-.23-1.27-.41-3 .63-3.22 1.44-.32 3.32 3.15 4 5.78a3.78 3.78 0 0 1 .13 1.34 4.25 4.25 0 0 0 1.78.14c.269-.021.53-.097.768-.225a1.94 1.94 0 0 0 .612-.515 5.86 5.86 0 0 1-1.602-1.848 5.87 5.87 0 0 1-.708-2.342c-.38-2.74-.09-3.21.21-3.45a.65.65 0 0 1 .335-.133.67.67 0 0 1 .355.063c1.07.45 2.36 4.33 2.61 6.53.03.229.03.461 0 .69a3.9 3.9 0 0 0 1.35.26 4.29 4.29 0 0 0 2.41-.63 5.83 5.83 0 0 1-.4-.29c-1-.89-1.46-2.31-1.28-4.33.14-1.57.49-2.43 1.12-2.7a1.13 1.13 0 0 1 1.21.24 6.92 6.92 0 0 1 1.73 5.56 3 3 0 0 1-.51 1.15c1.84.32 4.42-.2 6.65-.75a.52.52 0 0 1 .2-.008c.067.011.131.034.189.07s.107.081.147.136a.51.51 0 0 1 .084.182.52.52 0 0 1 .008.2c-.011.067-.034.131-.07.189s-.081.107-.136.147a.51.51 0 0 1-.182.084c-2.71.67-5.63 1.22-7.69.62a5.69 5.69 0 0 1-3.5 1.16c-.561-.007-1.115-.112-1.64-.31a2.81 2.81 0 0 1-.912.882 2.8 2.8 0 0 1-1.208.388 5.32 5.32 0 0 1-2.24-.19 2.21 2.21 0 0 1-1 .89 4.16 4.16 0 0 1-1.69.3h0zm-.86-8.28a4.32 4.32 0 0 0 .08 2.05 5.06 5.06 0 0 0 .967 2.198 5.05 5.05 0 0 0 1.873 1.502 3.21 3.21 0 0 0-.12-.7c-.78-2.86-2.28-4.83-2.8-5.05h0zm5.57-.87c.007.69.063 1.378.17 2.06a5.18 5.18 0 0 0 1.52 3.22 15.72 15.72 0 0 0-1.69-5.28h0zm6.29-.87s-.38.19-.52 1.86.15 2.82.93 3.49a3.04 3.04 0 0 0 .6.38 2.24 2.24 0 0 0 .54-1 6.26 6.26 0 0 0-1.19-4.43c-.21-.26-.33-.3-.36-.3h0zm135.36 17.58l2.71-4.7-2.71-4.7h-2.9l1.64 4.7-1.64 4.7h2.9zm-2.71-2.25c-.334.021-.669-.026-.985-.139a2.45 2.45 0 0 1-.848-.519 2.44 2.44 0 0 1-.572-.813 2.45 2.45 0 0 1-.201-.974c0-.335.068-.666.201-.974s.328-.584.572-.813a2.45 2.45 0 0 1 .848-.519c.315-.113.651-.16.985-.139l-4.6-.92-1.23 3.72 2.06 3.14 3.77-1.05z"/></g><path d="M226.56 414.58h-5.43l-2.71 4.7 2.71 4.7h5.43l2.71-4.7-2.71-4.7zm-2.71 7.15a2.45 2.45 0 0 1-1.364-.408c-.404-.268-.72-.65-.907-1.097s-.237-.941-.143-1.417a2.45 2.45 0 0 1 1.922-1.93c.476-.096.969-.048 1.417.138s.832.499 1.101.902.414.877.414 1.362a2.45 2.45 0 0 1-2.44 2.45h0zm194.04-7.47l-2.01-3.49 2.01-3.49h2.15l-1.21 3.49 1.21 3.49h-2.15zm2.01-1.67c.25.019.501-.015.737-.097a1.81 1.81 0 0 0 .636-.384 1.82 1.82 0 0 0 .43-.606c.1-.23.152-.478.152-.728s-.052-.498-.152-.728a1.82 1.82 0 0 0-.43-.606c-.183-.17-.4-.301-.636-.384a1.81 1.81 0 0 0-.737-.097l3.42-.68.91 2.76-1.52 2.33-2.81-.78z" class="C"/><path d="M419.61 407.28h4l2 3.49-2 3.49h-4l-2-3.49 2-3.49zm2 5.31a1.82 1.82 0 0 0 1.014-.302 1.83 1.83 0 0 0 .675-.815 1.82 1.82 0 0 0 .107-1.052 1.81 1.81 0 0 0-.496-.934c-.254-.256-.578-.43-.931-.501s-.72-.036-1.053.102a1.82 1.82 0 0 0-1.126 1.682c-.001.239.045.477.136.698s.225.423.394.592.371.303.592.394.459.137.698.136h-.01zM343 418.9h4.52a2.14 2.14 0 0 0 2.13-2.14h0a2.14 2.14 0 0 0-2.13-2.14H343c-.568 0-1.112.225-1.513.627a2.14 2.14 0 0 0-.627 1.513h0c0 .568.225 1.112.627 1.513a2.14 2.14 0 0 0 1.513.627h0z" class="B"/><path d="M335.73 414.86c.419-.763 1.053-1.386 1.823-1.793s1.641-.581 2.508-.498a4.46 4.46 0 0 1 2.369.962c.679.545 1.183 1.276 1.452 2.105a4.46 4.46 0 0 1 .056 2.556c-.231.839-.702 1.593-1.356 2.167a4.46 4.46 0 0 1-2.324 1.067c-.862.121-1.741-.014-2.528-.386a4.61 4.61 0 0 1-2.273-2.678c-.375-1.158-.277-2.416.273-3.502z" class="C"/><path d="M336.95 421.039l1.239.584 4.307-9.136-1.24-.584-4.306 9.136zM86.72 120.65c-1-4.41-.56-8.11 1.34-11.13s5-5 9.41-6 8.22-.6 11.2 1.26 5 5 6 9.3c.706 2.654.764 5.439.17 8.12a11.64 11.64 0 0 1-3.53 5.76 15.53 15.53 0 0 1-7.12 3.38c-2.573.683-5.267.775-7.88.27a11.72 11.72 0 0 1-5.9-3.5 15.67 15.67 0 0 1-3.69-7.46h0zm8.34-1.86c.62 2.72 1.57 4.56 2.85 5.52.661.441 1.404.743 2.184.889a5.89 5.89 0 0 0 2.358-.039c.776-.172 1.508-.499 2.154-.961s1.191-1.05 1.604-1.729c.72-1.39.73-3.6.05-6.61-.58-2.54-1.517-4.28-2.81-5.22-.651-.467-1.399-.783-2.188-.923s-1.6-.102-2.372.113a5.2 5.2 0 0 0-2.135.931 5.19 5.19 0 0 0-1.515 1.769c-.74 1.47-.81 3.47-.18 6.26zm23.53-1.44c-.355-1.363-.419-2.785-.186-4.174s.756-2.713 1.536-3.886c.874-1.246 1.986-2.307 3.271-3.122a11.57 11.57 0 0 1 4.219-1.628c3.913-.887 7.127-.423 9.64 1.39a10.9 10.9 0 0 1 4.04 6.632c.487 2.631-.011 5.35-1.4 7.638-1.56 2.38-4.1 3.967-7.62 4.76a11.83 11.83 0 0 1-8.16-.66 9.87 9.87 0 0 1-3.486-2.848c-.926-1.206-1.561-2.61-1.854-4.102h0zm7.51-1.73a6.08 6.08 0 0 0 1.93 3.63 3.58 3.58 0 0 0 1.4.644c.508.11 1.033.109 1.541-.005s.983-.335 1.396-.651a3.58 3.58 0 0 0 .993-1.178c.524-1.343.573-2.825.14-4.2-.21-1.365-.885-2.615-1.91-3.54-.398-.322-.865-.549-1.364-.662a3.33 3.33 0 0 0-1.516.012 3.5 3.5 0 0 0-1.426.656 3.49 3.49 0 0 0-.994 1.214c-.539 1.296-.606 2.74-.19 4.08zm22.48 12.95l-6.13-27 7-1.6.66 2.89a9.5 9.5 0 0 1 2.11-3.07 7.86 7.86 0 0 1 3.43-1.69 7.21 7.21 0 0 1 6.74 1.62c1.976 1.848 3.317 4.274 3.83 6.93.74 3.25.52 5.91-.64 8a7.87 7.87 0 0 1-2.235 2.542c-.92.675-1.976 1.142-3.095 1.368-1.078.256-2.195.3-3.29.13-1.05-.184-2.051-.582-2.94-1.17l2.12 9.33-7.56 1.72zm3.61-18.86a5.29 5.29 0 0 0 1.76 3.22c.382.292.825.495 1.296.592a3.2 3.2 0 0 0 1.424-.032c.433-.087.84-.274 1.187-.547s.626-.623.813-1.023a6 6 0 0 0 0-3.86c-.183-1.255-.786-2.411-1.71-3.28a2.91 2.91 0 0 0-1.18-.591c-.434-.104-.885-.107-1.32-.009a3.12 3.12 0 0 0-1.261.59 3.11 3.11 0 0 0-.879 1.08 5.72 5.72 0 0 0-.13 3.86zm17.24.59l7.28-2.39c.387.704.99 1.265 1.72 1.6.785.227 1.617.246 2.411.053a4.7 4.7 0 0 0 2.119-1.153c.166-.176.286-.391.351-.624s.071-.479.019-.716a1.39 1.39 0 0 0-.401-.708c-.202-.191-.455-.317-.729-.362-1.13-.124-2.27-.124-3.4 0-1.897.161-3.803.161-5.7 0-1.11-.161-2.151-.636-3-1.37-.905-.784-1.531-1.841-1.782-3.012a5.51 5.51 0 0 1 .392-3.478c.583-1.162 1.489-2.131 2.61-2.79 1.595-.906 3.328-1.545 5.13-1.89a18.48 18.48 0 0 1 5.28-.64 6.91 6.91 0 0 1 3.16 1c1.019.688 1.884 1.58 2.54 2.62l-7 2.31a2.51 2.51 0 0 0-1.23-1.17 3.85 3.85 0 0 0-2.27-.1 3.08 3.08 0 0 0-1.75.87 1.36 1.36 0 0 0-.317.569c-.057.213-.062.436-.013.651a1.2 1.2 0 0 0 .357.615c.179.164.403.271.643.305a12.36 12.36 0 0 0 3.36-.07c1.928-.279 3.885-.306 5.82-.08a6.29 6.29 0 0 1 3.28 1.51 5.46 5.46 0 0 1 1.66 2.85c.256 1.178.162 2.405-.27 3.53a7.08 7.08 0 0 1-2.64 3.27c-1.754 1.147-3.719 1.932-5.78 2.31-3.567.813-6.233.883-8 .21a7.07 7.07 0 0 1-3.85-3.72h0zm24.42-24.73h8.21v6.3l-1.51 12.67h-5.08l-1.62-12.65v-6.32zm.4 20.88h7.66v6.78h-7.66v-6.78z" class="B"/><defs ><path id="B" d="M218.21 303.78c0 .162-.048.321-.138.456s-.218.24-.368.302a.82.82 0 0 1-.474.046c-.159-.031-.305-.109-.42-.224s-.193-.261-.224-.42a.82.82 0 0 1 .046-.474c.062-.15.168-.278.302-.368s.294-.138.456-.138a.82.82 0 0 1 .82.82z"/></defs></svg>