<svg width="21" height="19" viewBox="0 0 21 19" fill="none" xmlns="http://www.w3.org/2000/svg">
<path d="M10.605 16.1008L10.5 16.2044L10.3845 16.1008C5.397 11.6381 2.1 8.68719 2.1 5.69482C2.1 3.62398 3.675 2.07084 5.775 2.07084C7.392 2.07084 8.967 3.10627 9.5235 4.51444H11.4765C12.033 3.10627 13.608 2.07084 15.225 2.07084C17.325 2.07084 18.9 3.62398 18.9 5.69482C18.9 8.68719 15.603 11.6381 10.605 16.1008ZM15.225 0C13.398 0 11.6445 0.838692 10.5 2.15368C9.3555 0.838692 7.602 0 5.775 0C2.541 0 0 2.49537 0 5.69482C0 9.59836 3.57 12.7978 8.9775 17.6332L10.5 19L12.0225 17.6332C17.43 12.7978 21 9.59836 21 5.69482C21 2.49537 18.459 0 15.225 0Z" fill="#333333"/>
</svg>
