<svg width="36" height="28" viewBox="0 0 36 28" fill="none" xmlns="http://www.w3.org/2000/svg">
<path d="M25.2 24.2667V28H0V24.2667C0 24.2667 0 16.8 12.6 16.8C25.2 16.8 25.2 24.2667 25.2 24.2667ZM18.9 6.53341C18.9 5.24124 18.5305 3.97809 17.8383 2.9037C17.146 1.8293 16.1621 0.991908 15.0109 0.497417C13.8597 0.00292629 12.593 -0.126455 11.3709 0.125634C10.1488 0.377723 9.0263 0.999961 8.14523 1.91366C7.26416 2.82736 6.66414 3.99149 6.42105 5.25882C6.17797 6.52616 6.30273 7.83979 6.77956 9.0336C7.25639 10.2274 8.06388 11.2478 9.09991 11.9657C10.1359 12.6835 11.354 13.0667 12.6 13.0667C14.2709 13.0667 15.8733 12.3784 17.0548 11.1532C18.2363 9.92792 18.9 8.26615 18.9 6.53341ZM25.092 16.8C26.1985 17.6881 27.104 18.8168 27.7446 20.1068C28.3852 21.3968 28.7455 22.8168 28.8 24.2667V28H36V24.2667C36 24.2667 36 17.4907 25.092 16.8ZM23.4 9.81471e-05C22.161 -0.00705623 20.9493 0.377081 19.926 1.10143C21.0194 2.68573 21.6073 4.58515 21.6073 6.53341C21.6073 8.48167 21.0194 10.3811 19.926 11.9654C20.9493 12.6897 22.161 13.0739 23.4 13.0667C25.0709 13.0667 26.6733 12.3784 27.8548 11.1532C29.0363 9.92792 29.7 8.26615 29.7 6.53341C29.7 4.80067 29.0363 3.13889 27.8548 1.91366C26.6733 0.688427 25.0709 9.81471e-05 23.4 9.81471e-05Z" fill="#3DAEEE"/>
</svg>
