<svg width="18" height="21" viewBox="0 0 18 21" fill="none" xmlns="http://www.w3.org/2000/svg">
    <path
        d="M16.0591 15.44V2.34523C16.0591 2.12099 15.875 1.93753 15.6499 1.93753H11.3027V0.184423C11.3027 0.031536 11.1237 -0.0550999 11.0035 0.0391805L7.74059 2.60768C7.71851 2.62468 7.70063 2.6465 7.68833 2.67146C7.67603 2.69641 7.66963 2.72385 7.66963 2.75165C7.66963 2.77946 7.67603 2.80689 7.68833 2.83185C7.70063 2.85681 7.71851 2.87862 7.74059 2.89562L11.001 5.46412C11.1212 5.5584 11.3002 5.47432 11.3002 5.31888V3.56832H14.2154V15.44C13.0851 15.8222 12.2719 16.8899 12.2719 18.1436C12.2719 19.7183 13.5556 20.9975 15.136 20.9975C16.7163 20.9975 18 19.7183 18 18.1436C18.0026 16.8899 17.1894 15.8248 16.0591 15.44ZM15.1385 19.3667C14.8173 19.3601 14.5115 19.2284 14.2866 18.9997C14.0618 18.7711 13.9359 18.4637 13.9359 18.1436C13.9359 17.8234 14.0618 17.5161 14.2866 17.2874C14.5115 17.0587 14.8173 16.927 15.1385 16.9205C15.4597 16.927 15.7655 17.0587 15.9904 17.2874C16.2152 17.5161 16.3412 17.8234 16.3412 18.1436C16.3412 18.4637 16.2152 18.7711 15.9904 18.9997C15.7655 19.2284 15.4597 19.3601 15.1385 19.3667ZM5.72808 2.85485C5.72808 1.28011 4.44438 0.000958689 2.86404 0.000958689C1.2837 0.000958689 0 1.28011 0 2.85485C0 4.10853 0.813183 5.17364 1.94346 5.5584V15.4426C0.813183 15.8248 0 16.8924 0 18.1461C0 19.7208 1.2837 21 2.86404 21C4.44438 21 5.72808 19.7208 5.72808 18.1461C5.72808 16.8924 4.9149 15.8273 3.78463 15.4426V5.5584C4.9149 5.17364 5.72808 4.10853 5.72808 2.85485ZM1.6366 2.85485C1.64315 2.53479 1.77535 2.23004 2.00483 2.006C2.23431 1.78195 2.54277 1.65647 2.86404 1.65647C3.18531 1.65647 3.49378 1.78195 3.72325 2.006C3.95273 2.23004 4.08493 2.53479 4.09149 2.85485C4.08493 3.17491 3.95273 3.47966 3.72325 3.70371C3.49378 3.92775 3.18531 4.05324 2.86404 4.05324C2.54277 4.05324 2.23431 3.92775 2.00483 3.70371C1.77535 3.47966 1.64315 3.17491 1.6366 2.85485ZM4.09149 18.1436C4.08493 18.4636 3.95273 18.7684 3.72325 18.9924C3.49378 19.2165 3.18531 19.3419 2.86404 19.3419C2.54277 19.3419 2.23431 19.2165 2.00483 18.9924C1.77535 18.7684 1.64315 18.4636 1.6366 18.1436C1.64315 17.8235 1.77535 17.5187 2.00483 17.2947C2.23431 17.0707 2.54277 16.9452 2.86404 16.9452C3.18531 16.9452 3.49378 17.0707 3.72325 17.2947C3.95273 17.5187 4.08493 17.8235 4.09149 18.1436Z"
        fill="#666666" fill-opacity="0.8" />
</svg>