<svg width="1730" height="580" viewBox="0 0 1730 580" fill="none" xmlns="http://www.w3.org/2000/svg">
    <path id="Vector 1"
        d="M1 315.5V70.5C67.5 60 116.5 49 254.5 61C392.5 73 544 138 626 171.5C708 205 791 251 927.5 301C1064 351 1170.5 348 1267.5 317.5C1364.5 287 1447.5 237.5 1547.5 163C1627.5 103.4 1701.83 30.8333 1729 2V325.5C1729 325.5 1690.5 353.5 1663 375C1635.5 396.5 1470 510.5 1339 547.5C1208 584.5 1137 584 1028.5 572.5C941.7 563.3 812.333 514 758.5 490.5C712.667 468.833 588.8 412.8 460 362C299 298.5 230.5 299.5 159.5 296C102.7 293.2 30.1667 307.833 1 315.5Z"
        fill="#D9D9D9" stroke="black" />
</svg>